<svg width="20" height="24" viewBox="0 0 20 24" fill="none" xmlns="http://www.w3.org/2000/svg">
<path d="M16.7216 12.677C16.7109 10.7269 17.593 9.25507 19.3783 8.17111C18.3794 6.74178 16.8703 5.95539 14.8778 5.8013C12.9915 5.65252 10.9299 6.90119 10.1753 6.90119C9.37832 6.90119 7.55048 5.85443 6.11583 5.85443C3.1509 5.90225 0 8.21894 0 12.932C0 14.3241 0.255048 15.7623 0.765143 17.2466C1.44527 19.1966 3.90011 23.9788 6.46121 23.8991C7.80021 23.8672 8.74601 22.9479 10.4888 22.9479C12.1785 22.9479 13.0553 23.8991 14.5484 23.8991C17.1307 23.8619 19.3518 19.5154 20 17.5601C16.5356 15.9288 16.7216 12.7779 16.7216 12.677ZM13.7141 3.9522C15.1647 2.23063 15.0319 0.663145 14.9894 0.0999146C13.7088 0.174303 12.2264 0.971328 11.3815 1.95432C10.4516 3.0064 9.90436 4.3082 10.0213 5.77473C11.4081 5.881 12.6727 5.16899 13.7141 3.9522Z" fill="black"/>
</svg>
