<svg width="393" height="852" viewBox="0 0 393 852" fill="none" xmlns="http://www.w3.org/2000/svg">
<g clip-path="url(#clip0_817_431)">
<rect width="393" height="852" fill="#242B47"/>
<path d="M344 17C344 50.1371 317.137 77 284 77C250.863 77 224 50.1371 224 17C224 -16.1371 250.863 -43 284 -43C317.137 -43 344 -16.1371 344 17ZM242.844 17C242.844 39.7296 261.27 58.1555 284 58.1555C306.73 58.1555 325.156 39.7296 325.156 17C325.156 -5.72957 306.73 -24.1555 284 -24.1555C261.27 -24.1555 242.844 -5.72957 242.844 17Z" fill="#3EC492"/>
<g clip-path="url(#clip1_817_431)">
<path fill-rule="evenodd" clip-rule="evenodd" d="M490.043 101.698C491.378 100.644 490.216 98.5303 488.61 99.0939L461.456 108.627C451.909 111.978 442.026 114.254 431.99 115.416C417.695 107.183 401.114 102.473 383.433 102.473C329.622 102.473 286 146.095 286 199.906C286 253.717 329.622 297.339 383.433 297.339C437.243 297.339 480.866 253.717 480.866 199.906C480.866 180.208 475.021 161.876 464.97 146.549C467.113 129.144 475.912 112.855 490.043 101.698ZM383.433 266.738C346.523 266.738 316.601 236.816 316.601 199.906C316.601 162.996 346.523 133.074 383.433 133.074C420.343 133.074 450.264 162.996 450.264 199.906C450.264 236.816 420.343 266.738 383.433 266.738Z" fill="#3EC492"/>
</g>
<g clip-path="url(#clip2_817_431)">
<path fill-rule="evenodd" clip-rule="evenodd" d="M77.1145 56.8706C78.3821 56.5772 78.2676 54.7362 76.9735 54.6021L55.0831 52.3341C46.028 51.3959 37.137 49.2756 28.6368 46.029C21.3781 35.1284 11.1519 26.0028 -1.55549 20.0071C-38.7704 2.44808 -83.1734 18.3823 -100.732 55.5971C-118.292 92.812 -102.357 137.215 -65.1424 154.774C-27.9275 172.333 16.4755 156.399 34.0346 119.184C38.9031 108.866 41.1968 97.9947 41.1759 87.2965C47.5547 72.1686 60.8559 60.6339 77.1145 56.8706ZM-55.1569 133.611C-80.6835 121.566 -91.6132 91.1093 -79.569 65.5827C-67.5248 40.056 -37.0676 29.1264 -11.541 41.1706C13.9856 53.2148 24.9153 83.672 12.8711 109.199C0.826908 134.725 -29.6303 145.655 -55.1569 133.611Z" fill="#1E243B"/>
</g>
</g>
<defs>
<clipPath id="clip0_817_431">
<rect width="393" height="852" fill="white"/>
</clipPath>
<clipPath id="clip1_817_431">
<rect width="204" height="197.91" fill="white" transform="translate(286 99)"/>
</clipPath>
<clipPath id="clip2_817_431">
<rect width="156" height="151.343" fill="white" transform="translate(-63.1189 -11.5769) rotate(25.2593)"/>
</clipPath>
</defs>
</svg>
