<svg width="393" height="852" viewBox="0 0 393 852" fill="none" xmlns="http://www.w3.org/2000/svg">
<rect width="393" height="852" fill="#242B47"/>
<path d="M96.5135 412.324H109.616V456H96.5135V451.894C93.6308 455.214 89.3506 457.223 83.4979 457.223C72.0547 457.223 62.6206 447.177 62.6206 434.162C62.6206 421.146 72.0547 411.101 83.4979 411.101C89.3506 411.101 93.6308 413.11 96.5135 416.429V412.324ZM86.1185 444.819C92.1458 444.819 96.5135 440.713 96.5135 434.162C96.5135 427.61 92.1458 423.505 86.1185 423.505C80.0911 423.505 75.7235 427.61 75.7235 434.162C75.7235 440.713 80.0911 444.819 86.1185 444.819ZM168.147 411.101C178.192 411.101 184.744 418.264 184.744 429.183V456H171.641V430.318C171.641 425.951 169.545 423.155 165.352 423.155C160.984 423.155 158.538 426.213 158.538 431.367V456H145.435V430.318C145.435 425.951 143.339 423.155 139.146 423.155C134.778 423.155 132.332 426.213 132.332 431.367V456H119.229V412.324H132.332V416.342C134.341 413.372 138.185 411.101 144.038 411.101C149.191 411.101 153.035 413.197 155.481 416.866C157.927 413.372 161.945 411.101 168.147 411.101Z" fill="white"/>
<g clip-path="url(#clip0_122_3472)">
<circle cx="216.185" cy="435.787" r="6.81671" fill="white" stroke="white" stroke-width="4"/>
<path fill-rule="evenodd" clip-rule="evenodd" d="M241.911 412.089C242.233 411.835 241.952 411.325 241.565 411.461L235.012 413.761C232.709 414.57 230.324 415.119 227.902 415.399C224.452 413.413 220.451 412.276 216.185 412.276C203.2 412.276 192.674 422.803 192.674 435.787C192.674 448.772 203.2 459.299 216.185 459.299C229.17 459.299 239.696 448.772 239.696 435.787C239.696 431.034 238.286 426.611 235.86 422.912C236.377 418.712 238.501 414.781 241.911 412.089ZM216.185 451.914C207.278 451.914 200.058 444.694 200.058 435.787C200.058 426.881 207.278 419.661 216.185 419.661C225.091 419.661 232.312 426.881 232.312 435.787C232.312 444.694 225.091 451.914 216.185 451.914Z" fill="#3EC492"/>
</g>
<path d="M263.907 420.098C265.654 414.245 271.507 411.45 277.01 411.45V426.3C271.594 425.427 263.907 427.61 263.907 436.258V456H250.804V412.324H263.907V420.098ZM313.565 412.324H326.668V456H313.565V451.894C310.682 455.214 306.402 457.223 300.549 457.223C289.106 457.223 279.672 447.177 279.672 434.162C279.672 421.146 289.106 411.101 300.549 411.101C306.402 411.101 310.682 413.11 313.565 416.429V412.324ZM303.17 444.819C309.197 444.819 313.565 440.713 313.565 434.162C313.565 427.61 309.197 423.505 303.17 423.505C297.142 423.505 292.775 427.61 292.775 434.162C292.775 440.713 297.142 444.819 303.17 444.819Z" fill="white"/>
<defs>
<clipPath id="clip0_122_3472">
<rect width="49.2266" height="47.7572" fill="white" transform="translate(192.674 411.438)"/>
</clipPath>
</defs>
</svg>
