<svg width="393" height="852" viewBox="0 0 393 852" fill="none" xmlns="http://www.w3.org/2000/svg">
<g clip-path="url(#clip0_805_5239)">
<rect width="393" height="852" fill="#242B47"/>
<circle cx="404" cy="344" r="35.8209" fill="#3EC492"/>
<circle cx="404" cy="344" r="47.2836" stroke="#3EC492" stroke-width="1.43284"/>
<path d="M315 26C315 59.1371 288.137 86 255 86C221.863 86 195 59.1371 195 26C195 -7.13709 221.863 -34 255 -34C288.137 -34 315 -7.13709 315 26ZM213.844 26C213.844 48.7296 232.27 67.1555 255 67.1555C277.73 67.1555 296.156 48.7296 296.156 26C296.156 3.27043 277.73 -15.1555 255 -15.1555C232.27 -15.1555 213.844 3.27043 213.844 26Z" fill="#3EC492"/>
<path d="M66.8657 113.906C66.8657 167.717 23.2435 211.339 -30.5672 211.339C-84.3778 211.339 -128 167.717 -128 113.906C-128 60.0954 -84.3778 16.4732 -30.5672 16.4732C23.2435 16.4732 66.8657 60.0954 66.8657 113.906ZM-97.3988 113.906C-97.3988 150.816 -67.4773 180.738 -30.5672 180.738C6.34293 180.738 36.2645 150.816 36.2645 113.906C36.2645 76.9959 6.34293 47.0744 -30.5672 47.0744C-67.4773 47.0744 -97.3988 76.9959 -97.3988 113.906Z" fill="#3EC492"/>
<path d="M112.358 212.991H123.61V250.5H112.358V246.974C109.882 249.825 106.206 251.55 101.18 251.55C91.3525 251.55 83.2505 242.923 83.2505 231.745C83.2505 220.568 91.3525 211.941 101.18 211.941C106.206 211.941 109.882 213.666 112.358 216.517V212.991ZM103.43 240.898C108.607 240.898 112.358 237.372 112.358 231.745C112.358 226.119 108.607 222.593 103.43 222.593C98.2542 222.593 94.5033 226.119 94.5033 231.745C94.5033 237.372 98.2542 240.898 103.43 240.898ZM173.876 211.941C182.503 211.941 188.13 218.092 188.13 227.469V250.5H176.877V228.445C176.877 224.694 175.076 222.293 171.475 222.293C167.725 222.293 165.624 224.919 165.624 229.345V250.5H154.371V228.445C154.371 224.694 152.571 222.293 148.97 222.293C145.219 222.293 143.119 224.919 143.119 229.345V250.5H131.866V212.991H143.119V216.442C144.844 213.891 148.145 211.941 153.171 211.941C157.597 211.941 160.898 213.741 162.998 216.892C165.099 213.891 168.55 211.941 173.876 211.941Z" fill="white"/>
<g clip-path="url(#clip1_805_5239)">
<path d="M221.011 232.479C221.011 235.763 218.391 238.385 215.209 238.385C212.026 238.385 209.406 235.763 209.406 232.479C209.406 229.195 212.026 226.573 215.209 226.573C218.391 226.573 221.011 229.195 221.011 232.479Z" fill="white" stroke="white" stroke-width="3.43518"/>
<path fill-rule="evenodd" clip-rule="evenodd" d="M237.147 211.991C237.422 211.77 237.181 211.328 236.85 211.446L231.263 213.434C229.3 214.133 227.267 214.607 225.203 214.85C222.26 213.132 218.848 212.149 215.208 212.149C204.133 212.149 195.155 221.251 195.155 232.479C195.155 243.707 204.133 252.809 215.208 252.809C226.284 252.809 235.262 243.707 235.262 232.479C235.262 228.368 234.059 224.542 231.989 221.344C232.429 217.713 234.239 214.318 237.147 211.991ZM215.208 246.424C207.612 246.424 201.453 240.18 201.453 232.479C201.453 224.777 207.612 218.534 215.208 218.534C222.805 218.534 228.964 224.777 228.964 232.479C228.964 240.18 222.805 246.424 215.208 246.424Z" fill="#3EC492"/>
</g>
<path d="M254.379 219.668C255.879 214.641 260.905 212.241 265.631 212.241V224.994C260.98 224.244 254.379 226.119 254.379 233.546V250.5H243.126V212.991H254.379V219.668ZM297.024 212.991H308.277V250.5H297.024V246.974C294.549 249.825 290.873 251.55 285.847 251.55C276.019 251.55 267.917 242.923 267.917 231.745C267.917 220.568 276.019 211.941 285.847 211.941C290.873 211.941 294.549 213.666 297.024 216.517V212.991ZM288.097 240.898C293.273 240.898 297.024 237.372 297.024 231.745C297.024 226.119 293.273 222.593 288.097 222.593C282.921 222.593 279.17 226.119 279.17 231.745C279.17 237.372 282.921 240.898 288.097 240.898Z" fill="white"/>
</g>
<defs>
<clipPath id="clip0_805_5239">
<rect width="393" height="852" fill="white"/>
</clipPath>
<clipPath id="clip1_805_5239">
<rect width="41.9874" height="41.2951" fill="white" transform="translate(195.155 211.424)"/>
</clipPath>
</defs>
</svg>
