<svg width="41" height="42" viewBox="0 0 41 42" fill="none" xmlns="http://www.w3.org/2000/svg">
<g clip-path="url(#clip0_147_9994)">
<rect x="6.53857" y="3.4408" width="33.176" height="31.875" rx="5" fill="#E1FBF1"/>
<g clip-path="url(#clip1_147_9994)">
<path d="M7.88387 13.5644C7.8138 13.3782 7.67781 13.2242 7.50172 13.1317C7.40017 13.0782 7.28842 13.0468 7.17384 13.0396C7.05927 13.0324 6.94447 13.0496 6.83703 13.0901C6.44893 13.2388 6.28834 13.78 6.38053 14.1726C6.19168 13.8172 5.71138 13.5124 5.32328 13.6581C5.21603 13.6982 5.11848 13.7606 5.03699 13.841C4.9555 13.9215 4.89192 14.0183 4.85042 14.125C4.77968 14.3113 4.77968 14.5171 4.85042 14.7034C5.07644 15.3057 5.75897 15.4276 6.37458 15.6477L7.01696 15.8752L7.35599 15.2804C7.6757 14.7094 8.10841 14.1666 7.88387 13.5644Z" fill="#3EC492"/>
<path d="M36.1532 10.4655C36.2393 10.2861 36.2562 10.0812 36.2007 9.89005C36.1688 9.77986 36.1138 9.6777 36.0395 9.5903C35.9652 9.50289 35.8731 9.43224 35.7695 9.38299C35.3963 9.20306 34.8922 9.46477 34.6736 9.80381C34.7985 9.42016 34.6855 8.86403 34.3123 8.68559C34.2086 8.63608 34.0957 8.60902 33.9809 8.6062C33.8661 8.60338 33.752 8.62486 33.6461 8.66923C33.4628 8.7465 33.3141 8.88828 33.2282 9.06775C32.9502 9.64767 33.3353 10.2261 33.6045 10.8224L33.8885 11.4484L34.5546 11.2759C35.1851 11.1079 35.8766 11.0454 36.1532 10.4655Z" fill="#3EC492"/>
<path d="M20.6721 36.0064V32.1808H16.1257V33.385L20.6721 36.0064Z" fill="#263238"/>
<path d="M37.8179 26.051V22.2253H33.2715V23.4306L37.8179 26.051Z" fill="#263238"/>
<path d="M35.9554 24.572L36.52 23.4489L35.1718 22.6704C34.744 22.425 34.1743 22.4524 33.5499 22.8143C32.221 23.5806 31.1444 25.5594 31.1444 27.233C31.1444 28.1098 31.4394 28.7282 31.9118 29.009L31.93 29.0201L33.3097 29.8159L33.9108 28.6359C35.039 27.7692 35.9118 26.0652 35.9554 24.572Z" fill="#37474F"/>
<path d="M35.9554 24.572L36.52 23.4489L35.1718 22.6704C34.744 22.425 34.1743 22.4524 33.5499 22.8143C32.221 23.5806 31.1444 25.5594 31.1444 27.233C31.1444 28.1098 31.4394 28.7282 31.9118 29.009L31.93 29.0201L33.3097 29.8159L33.9108 28.6359C35.039 27.7692 35.9118 26.0652 35.9554 24.572Z" fill="#263238"/>
<path d="M37.3574 25.2634C37.3574 26.7058 36.5566 28.3764 35.4841 29.2999V29.3049C35.3203 29.4464 35.1438 29.5727 34.957 29.682C33.6281 30.4504 32.5505 29.7145 32.5515 28.0409C32.5515 26.7768 33.1658 25.3374 34.0396 24.3794L34.0467 24.3713C34.3104 24.0761 34.6182 23.8234 34.959 23.6222C36.2809 22.8579 37.3574 23.5898 37.3574 25.2634Z" fill="#37474F"/>
<path d="M37.3574 25.2634C37.3574 26.7058 36.5566 28.3764 35.4841 29.2999C36.226 28.4556 36.7483 27.4413 37.0047 26.347C37.2074 25.383 37.1314 23.9973 36.3032 23.6475C35.475 23.2978 34.3822 24.0358 34.0366 24.3713C34.3003 24.0761 34.608 23.8234 34.9489 23.6222C36.2809 22.8579 37.3574 23.5898 37.3574 25.2634Z" fill="#455A64"/>
<path d="M34.952 24.6116C35.7974 24.123 36.4827 24.641 36.4827 25.7682C36.4827 26.8954 35.7974 28.2061 34.952 28.6937C34.1066 29.1813 33.4203 28.6643 33.4203 27.5361C33.4203 26.4078 34.1066 25.0991 34.952 24.6116ZM34.952 28.3419C35.6514 27.9365 36.2181 26.8538 36.2181 25.9212C36.2181 24.9887 35.6514 24.5599 34.952 24.9633C34.2525 25.3668 33.6849 26.4514 33.6849 27.384C33.6849 28.3166 34.2525 28.7454 34.952 28.3419Z" fill="#F5F5F5"/>
<path d="M33.6848 27.384C33.6705 27.6766 33.7485 27.9663 33.9078 28.2122C34.1359 28.5224 34.516 28.5913 34.9509 28.342C35.6513 27.9365 36.219 26.8549 36.219 25.9223C36.219 25.2695 35.9412 24.864 35.5358 24.8174C35.3301 24.8011 35.1248 24.8524 34.9509 24.9633C34.2514 25.3678 33.6848 26.4514 33.6848 27.384Z" fill="#E0E0E0"/>
<path opacity="0.4" d="M33.6848 27.384C33.6705 27.6766 33.7485 27.9663 33.9078 28.2122C34.1359 28.5224 34.516 28.5913 34.9509 28.342C35.6513 27.9365 36.219 26.8549 36.219 25.9223C36.219 25.2695 35.9412 24.864 35.5358 24.8174C35.3301 24.8011 35.1248 24.8524 34.9509 24.9633C34.2514 25.3678 33.6848 26.4514 33.6848 27.384Z" fill="black"/>
<path d="M33.685 27.384C33.6707 27.6766 33.7487 27.9663 33.908 28.2122C34.1144 28.2281 34.3203 28.1765 34.4949 28.0652C35.1943 27.6597 35.761 26.5781 35.761 25.6466C35.761 25.2897 35.6779 25.0069 35.5359 24.8174C35.3303 24.8011 35.125 24.8524 34.951 24.9633C34.2516 25.3678 33.685 26.4514 33.685 27.384Z" fill="#263238"/>
<path d="M35.1233 26.0693L35.3524 26.7343L35.8958 25.5422C35.8858 25.4005 35.8464 25.2624 35.7802 25.1367L35.1233 26.0693Z" fill="#E0E0E0"/>
<path d="M35.3493 26.5933L34.9438 27.1721L35.3493 27.6364C35.4506 27.5509 35.529 27.4415 35.5774 27.3181L35.3493 26.5933Z" fill="#E0E0E0"/>
<path d="M34.4846 27.0637L34.5991 27.1124L34.6285 26.9796L35.0786 27.1053L34.1541 28.4231C34.0566 28.3741 33.9721 28.3025 33.9078 28.2143C33.8936 28.194 33.8804 28.1737 33.8673 28.1524L34.4846 27.0637Z" fill="#E0E0E0"/>
<path d="M33.7337 26.8955L34.4849 27.0637L34.5538 26.9512L34.6288 26.9796L34.7515 26.4018L34.6602 26.4545L34.6653 26.3045H33.906C33.8295 26.4954 33.7718 26.6933 33.7337 26.8955Z" fill="#E0E0E0"/>
<path d="M34.6649 26.3045L34.7784 26.268L34.75 26.4018L35.2427 26.1169L34.8088 25.0546C34.6737 25.1547 34.5506 25.27 34.4419 25.3982L34.6649 26.3045Z" fill="#E0E0E0"/>
<path d="M34.4724 26.9289C34.4724 27.2816 34.6873 27.4438 34.9519 27.2918C35.2165 27.1397 35.4314 26.7292 35.4314 26.3794C35.4314 26.0297 35.2165 25.8635 34.9519 26.0165C34.6873 26.1696 34.4724 26.5761 34.4724 26.9289Z" fill="#F5F5F5"/>
<path d="M18.814 34.4636L19.3796 33.3404L18.0345 32.5619C17.6067 32.3156 17.037 32.344 16.4126 32.7048C15.0836 33.4722 14.0061 35.4509 14.0061 37.1245C14.0061 38.0014 14.3021 38.6187 14.7744 38.8995L14.7937 38.9106L16.1723 39.7074L16.7694 38.5224C17.8986 37.6577 18.7704 35.9568 18.814 34.4636Z" fill="#37474F"/>
<path d="M18.814 34.4636L19.3796 33.3404L18.0345 32.5619C17.6067 32.3156 17.037 32.344 16.4126 32.7048C15.0836 33.4722 14.0061 35.4509 14.0061 37.1245C14.0061 38.0014 14.3021 38.6187 14.7744 38.8995L14.7937 38.9106L16.1723 39.7074L16.7694 38.5224C17.8986 37.6577 18.7704 35.9568 18.814 34.4636Z" fill="#263238"/>
<path d="M20.2168 35.154C20.2168 36.5975 19.415 38.267 18.3425 39.1915C18.1787 39.3334 18.0023 39.46 17.8154 39.5696C16.4864 40.338 15.4079 39.602 15.4089 37.9284C15.4089 36.6644 16.0242 35.2249 16.897 34.266C16.9001 34.2642 16.9029 34.2618 16.9051 34.2589C17.1691 33.9637 17.4767 33.7107 17.8174 33.5088C19.1392 32.7465 20.2168 33.4804 20.2168 35.154Z" fill="#37474F"/>
<path d="M20.2168 35.154C20.2168 36.5975 19.415 38.267 18.3425 39.1915C19.0854 38.3476 19.6085 37.3333 19.865 36.2386C20.0678 35.2736 19.9918 33.8889 19.1636 33.5392C18.3354 33.1894 17.2426 33.9264 16.897 34.2629C17.1609 33.9677 17.4686 33.7148 17.8093 33.5128C19.1392 32.7465 20.2168 33.4804 20.2168 35.154Z" fill="#455A64"/>
<path d="M17.8104 34.5022C18.6568 34.0146 19.342 34.5326 19.342 35.6598C19.342 36.787 18.6568 38.0927 17.8104 38.5853C16.9639 39.078 16.2797 38.5549 16.2797 37.4277C16.2797 36.3005 16.9649 34.9908 17.8104 34.5022ZM17.8104 38.2325C18.5108 37.8271 19.0775 36.7455 19.0775 35.8129C19.0775 34.8803 18.5108 34.4515 17.8104 34.8549C17.1099 35.2584 16.5443 36.342 16.5443 37.2746C16.5443 38.2072 17.1109 38.637 17.8104 38.2325Z" fill="#F5F5F5"/>
<path d="M16.5444 37.2756C16.5297 37.568 16.6078 37.8575 16.7674 38.1028C16.9955 38.413 17.3757 38.4819 17.8105 38.2325C18.511 37.8271 19.0776 36.7455 19.0776 35.8129C19.0776 35.1611 18.8009 34.7556 18.3954 34.7079C18.1899 34.6927 17.9848 34.7439 17.8105 34.8539C17.1111 35.2584 16.5444 36.34 16.5444 37.2756Z" fill="#E0E0E0"/>
<path opacity="0.4" d="M16.5444 37.2756C16.5297 37.568 16.6078 37.8575 16.7674 38.1028C16.9955 38.413 17.3757 38.4819 17.8105 38.2325C18.511 37.8271 19.0776 36.7455 19.0776 35.8129C19.0776 35.1611 18.8009 34.7556 18.3954 34.7079C18.1899 34.6927 17.9848 34.7439 17.8105 34.8539C17.1111 35.2584 16.5444 36.34 16.5444 37.2756Z" fill="black"/>
<path d="M16.5445 37.2756C16.5298 37.568 16.6079 37.8575 16.7675 38.1028C16.9735 38.1195 17.1794 38.0683 17.3534 37.9568C18.0529 37.5513 18.6206 36.4697 18.6206 35.5371C18.6354 35.2439 18.5565 34.9535 18.3955 34.7079C18.1899 34.6927 17.9849 34.7439 17.8106 34.8539C17.1112 35.2584 16.5445 36.34 16.5445 37.2756Z" fill="#263238"/>
<path d="M17.9831 35.9609L18.2112 36.6249L18.7505 35.4338C18.74 35.2921 18.7007 35.1542 18.6349 35.0283L17.9831 35.9609Z" fill="#E0E0E0"/>
<path d="M18.2089 36.4849L17.8034 37.0627L18.2089 37.527C18.3104 37.4435 18.3892 37.3358 18.438 37.2138L18.2089 36.4849Z" fill="#E0E0E0"/>
<path d="M17.3432 36.9553L17.4587 37.004L17.4871 36.8712L17.9392 36.9959L17.0147 38.3137C16.9174 38.2639 16.833 38.192 16.7684 38.1038C16.7542 38.0846 16.741 38.0633 16.7278 38.042L17.3432 36.9553Z" fill="#E0E0E0"/>
<path d="M16.5918 36.787L17.343 36.9553L17.4129 36.8418L17.4869 36.8712L17.6106 36.2934L17.5194 36.3461L17.5254 36.196L16.7662 36.191C16.6893 36.3837 16.6309 36.5833 16.5918 36.787Z" fill="#E0E0E0"/>
<path d="M17.5255 36.196L17.639 36.1595L17.6107 36.2933L18.1023 36.0075L17.6695 34.9451C17.5346 35.0455 17.4115 35.1608 17.3025 35.2888L17.5255 36.196Z" fill="#E0E0E0"/>
<path d="M17.3306 36.8204C17.3306 37.1732 17.5445 37.3354 17.8101 37.1823C18.0757 37.0293 18.2886 36.6197 18.2886 36.27C18.2886 35.9203 18.0747 35.755 17.8101 35.9081C17.5455 36.0612 17.3306 36.4677 17.3306 36.8204Z" fill="#F5F5F5"/>
<path d="M3.59967 35.9102C7.60779 38.2254 8.79584 38.8215 11.1831 38.9877C13.4406 39.1459 14.1806 38.636 14.1806 38.636L15.101 38.1018C15.101 38.046 15.101 37.9892 15.101 37.9325C15.101 37.0201 15.4051 36.0004 15.9119 35.1114V34.4849C15.9119 34.4849 16.0914 32.9208 14.4928 32.1534L14.29 32.0744L0.742076 26.7687C0.155149 28.2152 0.110545 29.531 0.0558062 30.8123C0.014245 31.8655 -0.275669 33.6729 3.59967 35.9102Z" fill="#3EC492"/>
<path d="M35.9281 15.3211L37.1992 16.9319C37.1992 16.9319 36.6295 17.2664 35.926 16.8558C35.5218 16.6319 35.1925 16.2937 34.9792 15.8837L35.9281 15.3211Z" fill="#37474F"/>
<path d="M14.2898 32.0825C14.2898 32.0825 14.9872 32.3521 15.3095 32.8428C15.8164 33.6071 15.8164 33.9254 15.9177 34.4819V35.1083C16.1321 34.7313 16.3871 34.3788 16.678 34.0572L16.6841 34.0501C16.9675 33.7336 17.2977 33.4625 17.6633 33.2462C18.0106 33.0323 18.4082 32.9138 18.8159 32.9026C19.8083 32.9026 20.4652 33.7084 20.5209 34.9735L31.2701 28.7677C31.2701 28.7677 31.6664 28.5407 32.2452 28.2061C32.2452 28.1524 32.2452 28.0967 32.2452 28.0409C32.2452 26.7373 32.8636 25.2137 33.8205 24.1635C34.1046 23.8447 34.4359 23.5712 34.8028 23.3526C35.1502 23.138 35.5482 23.0191 35.9564 23.0079C36.8971 23.0079 37.5357 23.7348 37.6472 24.8883C37.8074 24.7261 38.0354 24.7839 38.2128 24.5406C38.5615 24.0672 38.6426 22.9056 38.7146 22.0601C38.8302 20.7129 38.5615 19.2725 38.1844 18.2304C37.8205 17.2218 37.5955 17.1022 37.2356 16.9471C36.9315 16.8173 36.4318 16.9157 36.2148 16.8062C35.9107 16.6521 34.9771 15.8837 34.9771 15.8837C34.9771 15.8837 34.4024 15.9932 33.8854 16.1463L33.0308 20.5913L20.157 28.0216C20.157 28.0216 18.0181 29.3313 17.0247 30.0054C16.0774 30.6495 15.1645 31.3428 14.2898 32.0825Z" fill="#3EC492"/>
<path opacity="0.15" d="M14.2898 32.0825C14.2898 32.0825 14.9872 32.3521 15.3095 32.8428C15.8164 33.6071 15.8164 33.9254 15.9177 34.4819V35.1083C16.1321 34.7313 16.3871 34.3788 16.678 34.0572L16.6841 34.0501C16.9675 33.7336 17.2977 33.4625 17.6633 33.2462C18.0106 33.0323 18.4082 32.9138 18.8159 32.9026C19.8083 32.9026 20.4652 33.7084 20.5209 34.9735L31.2701 28.7677C31.2701 28.7677 31.6664 28.5407 32.2452 28.2061C32.2452 28.1524 32.2452 28.0967 32.2452 28.0409C32.2452 26.7373 32.8636 25.2137 33.8205 24.1635C34.1046 23.8447 34.4359 23.5712 34.8028 23.3526C35.1502 23.138 35.5482 23.0191 35.9564 23.0079C36.8971 23.0079 37.5357 23.7348 37.6472 24.8883C37.8074 24.7261 38.0354 24.7839 38.2128 24.5406C38.5615 24.0672 38.6426 22.9056 38.7146 22.0601C38.8302 20.7129 38.5615 19.2725 38.1844 18.2304C37.8205 17.2218 37.5955 17.1022 37.2356 16.9471C36.9315 16.8173 36.4318 16.9157 36.2148 16.8062C35.9107 16.6521 34.9771 15.8837 34.9771 15.8837C34.9771 15.8837 34.4024 15.9932 33.8854 16.1463L33.0308 20.5913L20.157 28.0216C20.157 28.0216 18.0181 29.3313 17.0247 30.0054C16.0774 30.6495 15.1645 31.3428 14.2898 32.0825Z" fill="black"/>
<path d="M17.8114 31.7783C19.2894 31.2472 19.8195 31.8615 20.151 31.8959C20.4825 31.9304 20.0364 31.1863 20.3456 30.0135C20.6548 28.8407 20.8606 28.8407 22.6122 27.8442C24.3639 26.8478 26.0203 25.8462 29.5408 23.8239C31.3898 22.7616 32.7907 22.1098 33.9402 21.3262C35.406 20.3287 36.3416 19.3637 36.8607 19.4002C37.7882 19.4661 38.2342 19.6029 38.4055 20.6663C38.146 18.1209 37.7466 17.5005 37.2013 17.2988C36.6559 17.0971 36.1876 17.1711 35.7385 16.7778C35.5165 16.5821 34.8089 16.0104 34.8089 16.0104C34.8089 16.0104 34.1855 16.1736 34.0588 16.1959C34.5147 16.7517 34.9039 17.359 35.2185 18.0053C35.3198 18.2355 35.2611 18.4828 34.8262 19.0373C34.3913 19.5918 33.483 20.5882 33.1982 20.8183C32.6275 21.2806 28.9032 23.2826 27.4597 24.197C26.0162 25.1113 20.8798 28.1503 19.5458 28.9988C18.2118 29.8473 16.1723 31.1407 15.263 32.0703C15.4921 32.43 15.6811 32.8138 15.8266 33.2147C16.3061 32.6907 17.1393 32.0145 17.8114 31.7783Z" fill="#3EC492"/>
<path d="M26.7732 25.2786C26.7608 25.2849 26.7466 25.2868 26.733 25.284C26.7194 25.2813 26.7071 25.274 26.6981 25.2634L26.6343 25.1397C26.5856 25.0465 26.7275 24.8661 26.9516 24.7343L27.281 24.5437C27.504 24.415 27.725 24.3856 27.7726 24.4788L27.8254 24.5802C27.8306 24.5902 27.8336 24.6012 27.8343 24.6125C27.835 24.6238 27.8334 24.635 27.8294 24.6456C27.8255 24.6562 27.8195 24.6659 27.8116 24.674C27.8037 24.6821 27.7943 24.6885 27.7838 24.6927L26.7732 25.2786Z" fill="#37474F"/>
<path d="M32.3588 22.1554C32.3463 22.1616 32.3321 22.1633 32.3185 22.1604C32.3049 22.1574 32.2927 22.15 32.2838 22.1392L32.22 22.0155C32.1713 21.9223 32.3132 21.7429 32.5373 21.6101L32.8667 21.4205C33.0907 21.2908 33.3107 21.2624 33.3594 21.3556L33.4111 21.457C33.4163 21.467 33.4193 21.478 33.42 21.4893C33.4207 21.5006 33.4191 21.5119 33.4151 21.5225C33.4112 21.533 33.4051 21.5427 33.3973 21.5508C33.3894 21.5589 33.38 21.5653 33.3695 21.5695L32.3588 22.1554Z" fill="#37474F"/>
<path d="M9.17696 18.7596L9.08472 19.1448C8.87286 19.5432 8.40251 20.0459 8.23322 20.0044C8.08319 19.9669 7.99095 19.7479 7.94331 19.4763C7.92111 19.3466 7.90789 19.2155 7.90377 19.084C7.88958 18.6572 8.07914 17.6648 8.67113 17.3982C8.73041 17.3724 8.79637 17.3661 8.85944 17.3803C8.92251 17.3946 8.97941 17.4285 9.02187 17.4773C9.10095 17.5563 9.15972 17.6534 9.19318 17.7601C9.29253 18.0561 9.19116 18.7444 9.17696 18.7596Z" fill="#3EC492"/>
<path opacity="0.3" d="M9.17696 18.7596C9.14655 18.9187 9.08472 19.1448 9.08472 19.1448C8.87286 19.5432 8.40251 20.0459 8.23322 20.0044C8.08319 19.9669 7.99095 19.7479 7.94331 19.4763C7.92111 19.3466 7.90789 19.2155 7.90377 19.084C7.88958 18.6572 8.07914 17.6648 8.67113 17.3982C8.73041 17.3724 8.79637 17.3661 8.85944 17.3803C8.92251 17.3946 8.97941 17.4285 9.02187 17.4773C9.10095 17.5563 9.15972 17.6534 9.19318 17.7601C9.29253 18.0561 9.19116 18.7444 9.17696 18.7596Z" fill="white"/>
<path d="M9.08447 19.1448C8.87261 19.5432 8.40226 20.0459 8.23297 20.0044C8.08295 19.9669 7.9907 19.7479 7.94306 19.4763C7.92086 19.3466 7.90765 19.2155 7.90352 19.084C7.88933 18.6572 8.07889 17.6648 8.67089 17.3982C8.73016 17.3724 8.79612 17.3661 8.85919 17.3803C8.92226 17.3946 8.97916 17.4285 9.02162 17.4773L8.94053 17.6607C8.52695 17.8371 8.41544 18.4717 8.45396 18.9623C8.49248 19.4529 8.84727 19.3962 9.08447 19.1448Z" fill="#3EC492"/>
<path d="M9.19189 17.757C9.04187 17.5978 8.67086 17.5907 8.35864 18.0205C8.04643 18.4503 7.94303 19.1873 7.94202 19.4731C7.91977 19.3431 7.90655 19.2117 7.90248 19.0798C7.88829 18.6541 8.07785 17.6607 8.66984 17.3951C8.91719 17.2826 9.11992 17.538 9.19189 17.757Z" fill="#37474F"/>
<path d="M20.1693 28.0216C20.1136 27.6384 20.2352 27.1154 20.3721 26.7646C20.8364 25.6161 21.9504 23.091 22.4137 22.1858C22.5699 21.8573 22.7897 21.5631 23.0604 21.3201C23.1759 21.2088 23.3004 21.1071 23.4324 21.016C23.991 20.5994 26.3326 19.2269 27.3108 18.8356C28.9895 18.1625 31.6747 16.87 33.8896 16.1493C34.2558 16.7253 34.5853 17.3239 34.876 17.9415C34.9275 18.0569 34.946 18.1843 34.9294 18.3096C34.9127 18.4349 34.8616 18.5531 34.7817 18.6511L33.5815 20.1209C33.4294 20.3084 33.2442 20.4665 33.0351 20.5872L20.1693 28.0216Z" fill="#263238"/>
<path d="M21.3189 25.9334C21.3193 25.6893 21.3697 25.4478 21.4669 25.2238C21.9484 24.1209 22.4927 22.9228 22.7745 22.3723C22.8952 22.1122 23.0649 21.8779 23.2743 21.682L23.3493 21.607C23.4464 21.5131 23.5508 21.427 23.6615 21.3495L23.6757 21.3394C24.2302 20.9248 26.5414 19.5634 27.4568 19.2106C27.6879 19.1214 27.921 19.0079 28.1917 18.8883C29.1101 18.4605 31.841 17.2542 33.7061 16.6125C33.9988 17.0964 34.2661 17.5951 34.507 18.1067C34.5271 18.1533 34.5339 18.2046 34.5268 18.2549C34.5196 18.3051 34.4987 18.3524 34.4664 18.3916L33.2672 19.8695C33.1461 20.0184 32.9987 20.1438 32.8323 20.2395L21.6818 26.6683C21.6446 26.6897 21.6025 26.7009 21.5597 26.7008C21.5168 26.7007 21.4748 26.6894 21.4377 26.6679C21.4006 26.6464 21.3699 26.6156 21.3485 26.5785C21.3271 26.5414 21.3158 26.4993 21.3158 26.4565L21.3189 25.9334Z" fill="#37474F"/>
<path d="M27.5246 19.4194C27.0096 19.6597 26.5007 19.9161 26.0111 20.204C25.8783 20.2811 24.6619 20.9927 25.2357 21.0707C25.3241 21.0755 25.4124 21.0603 25.4941 21.0261C26.7106 20.6206 27.8976 20.1209 29.1221 19.7306C30.2098 19.3829 31.6067 18.8599 32.7096 19.3383C32.8281 19.4051 32.9618 19.44 33.0978 19.4397C33.2752 19.4194 33.4019 19.2694 33.5165 19.1305C33.7283 18.866 34.0233 18.6237 34.0396 18.2658C34.0371 17.954 33.9479 17.649 33.7821 17.385C33.556 16.9937 33.0867 17.1011 32.739 17.2187C31.781 17.5431 30.8637 17.9607 29.9371 18.3662C29.1404 18.7139 28.3223 19.0484 27.5246 19.4194Z" fill="#455A64"/>
<path d="M32.1581 16.9674C32.1581 16.9674 32.9995 19.4388 33.1799 20.2862L32.8495 20.4768C32.6711 19.6658 31.8104 17.0373 31.8104 17.0373L32.1581 16.9674Z" fill="#263238"/>
<path d="M26.9605 19.2725C27.2352 19.9111 27.7582 22.8285 27.8464 23.4611L27.516 23.6517C27.4349 22.9532 26.9128 20.0024 26.6128 19.3425L26.9605 19.2725Z" fill="#263238"/>
<path d="M8.60311 21.3435C8.54736 20.9603 8.66799 20.4383 8.80585 20.0875C9.27012 18.938 11.2205 16.8924 11.6837 15.9871C11.8405 15.6593 12.0603 15.3655 12.3304 15.1225C12.4466 15.0114 12.5713 14.9098 12.7035 14.8184C13.261 14.4017 15.184 13.1184 16.2514 12.4473C18.7684 10.864 20.1642 10.1159 22.3802 9.39208C22.8961 9.23901 23.4719 9.12852 23.4719 9.12852C23.7872 9.12852 24.587 8.54261 24.4917 8.42705C24.3964 8.31149 23.2327 8.2456 21.4384 8.95924C19.4065 9.76232 17.4478 10.7398 15.5844 11.8807C12.7663 13.5857 12.3234 14.1828 11.0907 15.828C9.85806 17.4732 8.73692 19.1022 8.151 20.0105C7.88841 20.4247 7.60066 20.8225 7.28937 21.2016C7.48425 21.3208 7.70315 21.3954 7.93031 21.42C8.15747 21.4445 8.38725 21.4184 8.60311 21.3435Z" fill="#3EC492"/>
<path d="M13.0015 32.9593C12.152 33.6405 11.7658 33.7977 10.4733 33.6821C9.54681 33.598 6.90108 33.2462 3.71607 31.007C0.284729 28.5934 0.684122 27.155 0.728724 26.8508C0.773327 26.5467 1.09974 26.0815 1.09974 26.0815L13.0015 32.9593Z" fill="#3EC492"/>
<path opacity="0.2" d="M13.0015 32.9593C12.152 33.6405 11.7658 33.7977 10.4733 33.6821C9.54681 33.598 6.90108 33.2462 3.71607 31.007C0.284729 28.5934 0.684122 27.155 0.728724 26.8508C0.773327 26.5467 1.09974 26.0815 1.09974 26.0815L13.0015 32.9593Z" fill="white"/>
<path d="M20.1694 28.0216C20.1694 28.0216 18.1623 29.31 17.0493 30.0389C15.6707 30.9421 15.0442 31.5097 14.29 32.0855C13.5358 32.6613 12.8394 33.2959 11.6098 33.1681C8.81915 32.8782 6.18255 31.8676 4.14807 30.4879C2.34573 29.2654 0.506895 27.0039 1.18505 25.9608C1.86321 24.9177 3.10093 23.9111 7.29456 21.1965L7.93521 21.4306L20.1694 28.0216Z" fill="#3EC492"/>
<path opacity="0.4" d="M20.1694 28.0216C20.1694 28.0216 18.1623 29.31 17.0493 30.0389C15.6707 30.9421 15.0442 31.5097 14.29 32.0855C13.5358 32.6613 12.8394 33.2959 11.6098 33.1681C8.81915 32.8782 6.18255 31.8676 4.14807 30.4879C2.34573 29.2654 0.506895 27.0039 1.18505 25.9608C1.86321 24.9177 3.10093 23.9111 7.29456 21.1965L7.93521 21.4306L20.1694 28.0216Z" fill="white"/>
<path opacity="0.5" d="M7.8591 21.9456C5.79219 24.0165 4.44702 26.2598 2.77342 28.7261C4.55244 24.57 7.8591 21.9456 7.8591 21.9456ZM17.7253 28.0682C14.2709 29.0386 10.876 30.2097 7.55803 31.5756C7.55803 31.5756 11.8936 28.8315 17.7253 28.0672V28.0682Z" fill="#3EC492"/>
<path opacity="0.2" d="M1.75651 25.7276C3.16453 24.1321 7.28619 21.3819 7.51731 21.4316C7.91063 21.5178 5.86804 23.2644 4.78643 24.6926C3.2659 26.7068 3.04593 27.1914 2.65059 27.979C2.33026 28.6176 1.87309 27.9182 1.5923 27.4205C1.44567 27.1547 1.38289 26.8508 1.4122 26.5486C1.44151 26.2465 1.56154 25.9603 1.75651 25.7276ZM8.46917 31.6912C10.1316 30.8326 14.236 29.533 16.4418 28.8478C18.6476 28.1625 19.5123 28.2213 18.5473 28.6359C17.6907 29.0039 13.5883 31.976 12.9213 32.4139C12.3891 32.7647 11.5873 32.9208 10.3719 32.6491C8.99527 32.3399 7.74742 32.0642 8.46917 31.6912Z" fill="white"/>
<path d="M7.93107 21.4317C8.96605 23.9659 17.9666 28.3318 18.8536 27.8747C19.2302 27.5271 19.5395 27.113 19.7659 26.6532C20.1825 25.8422 20.9256 23.8635 21.8166 22.0237C21.978 21.678 22.1823 21.3541 22.4248 21.0596C21.776 21.3201 21.1455 21.2228 20.2504 20.94C18.588 20.417 14.6153 18.273 13.1445 17.0079C12.0173 16.0388 11.9078 15.6029 12.4197 14.7362C12.0091 14.9734 11.8824 15.1295 11.3452 15.7986C10.7795 16.5021 9.81147 18.0034 8.74811 19.458C7.9554 20.5497 7.84085 20.7971 7.93107 21.4317Z" fill="#37474F"/>
<path d="M18.6597 27.5027C18.9631 27.1995 19.216 26.8497 19.4088 26.4667C19.5883 26.118 19.8417 25.5178 20.1357 24.8225C20.5026 23.9527 20.9588 22.8721 21.4535 21.8463C21.492 21.7662 21.5305 21.6902 21.571 21.6151C21.1787 21.607 20.7429 21.5138 20.1306 21.3252C18.4479 20.7961 14.4144 18.6319 12.8827 17.3141C12.2917 16.8072 11.9015 16.3815 11.7737 15.9142L11.6643 16.052C11.3693 16.419 10.9547 17.0241 10.4671 17.7246C10.0484 18.3328 9.57301 19.0201 9.07833 19.6962C8.30894 20.7505 8.26738 20.9035 8.32314 21.3181C8.74889 22.269 10.5918 23.7206 13.276 25.2158C15.8001 26.6248 18.0302 27.4966 18.6597 27.5027Z" fill="#455A64"/>
<path opacity="0.2" d="M8.57792 21.7429C9.38887 20.3886 10.8141 18.1949 12.2657 16.7302C12.4602 16.9387 12.667 17.1354 12.8851 17.3191C13.4596 17.789 14.067 18.2172 14.7026 18.6004C13.9839 19.6577 12.4158 22.1605 11.3321 24.0531C10.0163 23.1864 9.0574 22.3835 8.57792 21.7429Z" fill="white"/>
<path opacity="0.2" d="M12.5381 24.7961C12.2847 24.6471 12.0414 24.5001 11.8073 24.3531C13.1869 21.8422 14.5189 19.8159 15.1656 18.8792C15.3826 19.009 15.6046 19.1387 15.8296 19.2675C14.5605 21.2685 13.2852 23.4662 12.5381 24.7961Z" fill="white"/>
<path d="M22.9833 20.7555C22.1105 21.3637 21.3999 21.2999 20.2544 20.939C18.593 20.4159 14.6203 18.272 13.1495 17.0069C12.0212 16.0378 11.9128 15.6019 12.4247 14.7352C13.8084 13.386 16.2716 11.9851 18.3852 10.8447C20.4987 9.70429 22.4186 8.74737 24.4957 8.42299C25.9493 8.32162 28.224 9.08695 30.1876 10.1179C34.5302 12.3987 36.6752 14.5923 36.0578 15.1012C35.7182 15.3789 34.2332 15.6638 31.8105 16.6035C29.3878 17.5432 24.8809 19.6597 22.9833 20.7555Z" fill="#3EC492"/>
<path opacity="0.4" d="M22.9833 20.7555C22.1105 21.3637 21.3999 21.2999 20.2544 20.939C18.593 20.4159 14.6203 18.272 13.1495 17.0069C12.0212 16.0378 11.9128 15.6019 12.4247 14.7352C13.8084 13.386 16.2716 11.9851 18.3852 10.8447C20.4987 9.70429 22.4186 8.74737 24.4957 8.42299C25.9493 8.32162 28.224 9.08695 30.1876 10.1179C34.5302 12.3987 36.6752 14.5923 36.0578 15.1012C35.7182 15.3789 34.2332 15.6638 31.8105 16.6035C29.3878 17.5432 24.8809 19.6597 22.9833 20.7555Z" fill="white"/>
<path opacity="0.3" d="M33.8887 13.312C33.9155 13.307 33.9433 13.3129 33.9658 13.3284C33.9884 13.3439 34.0038 13.3677 34.0088 13.3946C34.0138 13.4215 34.0078 13.4492 33.9923 13.4718C33.9769 13.4943 33.953 13.5098 33.9262 13.5147C30.3336 14.1807 22.9469 17.6273 20.8161 19.9628C20.8066 19.9733 20.7951 19.9817 20.7821 19.9875C20.7692 19.9932 20.7552 19.9962 20.7411 19.9963C20.7213 19.9964 20.7019 19.9907 20.6853 19.98C20.6687 19.9692 20.6556 19.9539 20.6476 19.9358C20.6397 19.9176 20.6372 19.8976 20.6404 19.8781C20.6437 19.8586 20.6526 19.8405 20.6661 19.826C22.8192 17.4641 30.2688 13.9831 33.8887 13.312ZM30.3063 11.2461C30.3332 11.2411 30.3609 11.247 30.3834 11.2625C30.406 11.278 30.4214 11.3018 30.4264 11.3287C30.4314 11.3556 30.4255 11.3833 30.41 11.4059C30.3945 11.4284 30.3707 11.4439 30.3438 11.4488C26.7492 12.1128 19.3584 15.5593 17.2297 17.8908C17.2202 17.9013 17.2086 17.9097 17.1957 17.9155C17.1828 17.9212 17.1688 17.9242 17.1547 17.9243C17.1293 17.924 17.1048 17.9146 17.0857 17.8979C17.066 17.8797 17.0543 17.8545 17.0532 17.8277C17.052 17.8009 17.0616 17.7748 17.0797 17.755C19.2348 15.3971 26.6844 11.9172 30.3063 11.2461ZM32.0995 12.279C32.1258 12.2743 32.153 12.2802 32.175 12.2954C32.197 12.3105 32.2122 12.3338 32.2171 12.3601C32.2196 12.3732 32.2195 12.3867 32.2167 12.3998C32.214 12.4129 32.2087 12.4253 32.2012 12.4363C32.1936 12.4473 32.184 12.4567 32.1728 12.464C32.1616 12.4713 32.1491 12.4763 32.136 12.4787C28.5435 13.1437 21.1567 16.5913 19.0259 18.9268C19.0164 18.9371 19.0048 18.9453 18.9918 18.9509C18.9789 18.9565 18.965 18.9593 18.9509 18.9593C18.9313 18.9592 18.9122 18.9535 18.8958 18.9428C18.8794 18.9321 18.8664 18.9169 18.8585 18.899C18.8505 18.881 18.848 18.8612 18.8511 18.8419C18.8542 18.8225 18.8628 18.8045 18.8759 18.79C21.027 16.4301 28.4766 12.9501 32.0975 12.279H32.0995ZM28.5141 10.2121C28.5274 10.2097 28.5411 10.2098 28.5543 10.2127C28.5675 10.2155 28.5801 10.2209 28.5912 10.2286C28.6024 10.2362 28.6119 10.246 28.6193 10.2574C28.6267 10.2687 28.6317 10.2814 28.6342 10.2947C28.6367 10.3081 28.6365 10.3217 28.6337 10.335C28.6308 10.3482 28.6254 10.3608 28.6178 10.3719C28.6101 10.3831 28.6003 10.3926 28.5889 10.4C28.5776 10.4073 28.5649 10.4124 28.5516 10.4149C24.9591 11.0809 17.5723 14.5284 15.4405 16.8629C15.4312 16.8733 15.4198 16.8816 15.407 16.8874C15.3943 16.8932 15.3805 16.8962 15.3665 16.8964C15.341 16.8966 15.3164 16.8872 15.2976 16.87C15.2877 16.861 15.2797 16.8501 15.274 16.838C15.2683 16.8259 15.2651 16.8127 15.2645 16.7993C15.264 16.7859 15.2661 16.7726 15.2707 16.76C15.2753 16.7474 15.2824 16.7359 15.2915 16.7261C17.4426 14.3642 24.8922 10.8832 28.512 10.2121H28.5141ZM13.4993 15.686C15.6524 13.3272 23.102 9.84618 26.7219 9.17512C26.7352 9.17266 26.7488 9.17284 26.7621 9.17566C26.7753 9.17848 26.7879 9.18388 26.799 9.19155C26.8102 9.19922 26.8197 9.20902 26.8271 9.22037C26.8345 9.23173 26.8395 9.24442 26.842 9.25774C26.8445 9.27105 26.8443 9.28472 26.8415 9.29796C26.8386 9.3112 26.8332 9.32375 26.8256 9.33491C26.8179 9.34606 26.8081 9.3556 26.7967 9.36297C26.7854 9.37034 26.7727 9.3754 26.7594 9.37786C23.1669 10.0439 15.7791 13.4904 13.6493 15.8259C13.6312 15.8458 13.6059 15.8577 13.579 15.8589C13.5521 15.8602 13.5258 15.8507 13.5059 15.8325C13.486 15.8144 13.4741 15.7891 13.4729 15.7622C13.4717 15.7353 13.4812 15.709 13.4993 15.6891V15.686Z" fill="#3EC492"/>
<path d="M20.1692 28.0216C20.1135 27.6385 20.2351 27.1154 20.3719 26.7647C20.8362 25.6161 21.9503 23.091 22.4135 22.1858C22.5698 21.8574 22.7896 21.5631 23.0603 21.3201C23.1758 21.2088 23.3002 21.1071 23.4323 21.016C23.9908 20.5994 26.3324 19.2269 27.3107 18.8356C28.9893 18.1625 31.6746 16.87 33.8895 16.1493C34.4065 15.9962 34.9812 15.8868 34.9812 15.8868C35.2975 15.8868 36.1551 15.2197 36.0578 15.1042C35.9605 14.9886 34.9052 15.0687 33.109 15.7763C30.5879 16.7697 28.1834 17.683 26.6132 18.5082C23.6969 20.0398 22.6497 20.3145 21.8205 22.0257C20.9285 23.8655 20.1864 25.8462 19.7698 26.6552C19.5437 27.1155 19.2344 27.53 18.8575 27.8777C19.0519 27.9971 19.2704 28.0719 19.4972 28.0968C19.724 28.1216 19.9535 28.096 20.1692 28.0216Z" fill="#3EC492"/>
<path opacity="0.3" d="M20.1692 28.0216C20.1135 27.6385 20.2351 27.1154 20.3719 26.7647C20.8362 25.6161 21.9503 23.091 22.4135 22.1858C22.5698 21.8574 22.7896 21.5631 23.0603 21.3201C23.1758 21.2088 23.3002 21.1071 23.4323 21.016C23.9908 20.5994 26.3324 19.2269 27.3107 18.8356C28.9893 18.1625 31.6746 16.87 33.8895 16.1493C34.4065 15.9962 34.9812 15.8868 34.9812 15.8868C35.2975 15.8868 36.1551 15.2197 36.0578 15.1042C35.9605 14.9886 34.9052 15.0687 33.109 15.7763C30.5879 16.7697 28.1834 17.683 26.6132 18.5082C23.6969 20.0398 22.6497 20.3145 21.8205 22.0257C20.9285 23.8655 20.1864 25.8462 19.7698 26.6552C19.5437 27.1155 19.2344 27.53 18.8575 27.8777C19.0519 27.9971 19.2704 28.0719 19.4972 28.0968C19.724 28.1216 19.9535 28.096 20.1692 28.0216Z" fill="black"/>
<path opacity="0.5" d="M24.0061 19.4732C23.5631 19.7185 23.1424 20.0246 22.6477 20.1361C22.4784 20.1747 22.1135 20.1838 22.1186 20.0105C22.1267 19.9686 22.1435 19.9289 22.168 19.894C22.1924 19.8591 22.2239 19.8297 22.2605 19.8077C23.0289 19.1995 24.0385 18.7058 24.9214 18.275C27.6584 16.938 30.4176 15.5948 33.335 14.7078C33.7223 14.5903 34.3376 14.4149 34.742 14.5274C34.9762 14.5933 35.0766 14.7656 34.7076 14.87C33.7953 15.1285 33.0279 15.3232 32.1348 15.6587C30.2382 16.3683 28.7522 17.0647 26.818 17.9821C25.8591 18.4332 25.0268 18.9045 24.0061 19.4732Z" fill="#3EC492"/>
<path d="M34.2859 14.8315C34.1619 14.8348 34.0391 14.8066 33.9291 14.7494C33.3563 14.4645 32.7127 14.6227 31.4161 15.1549C30.0031 15.7306 27.3269 16.7889 25.558 17.7043C23.7891 18.6197 23.8398 18.7666 23.8348 18.9633C23.8338 19.0865 23.859 19.2084 23.9088 19.3211C23.5974 19.5461 23.2694 19.7471 22.9275 19.9223C22.522 20.1088 21.7618 20.2588 22.151 19.604C22.5403 18.9491 23.5256 18.2091 25.0775 17.384C26.6295 16.5588 29.8946 15.1782 31.2104 14.6855C32.5261 14.1929 33.406 13.908 34.5302 14.3814C35.3898 14.7423 34.6731 14.8163 34.2859 14.8315Z" fill="#455A64"/>
<path d="M22.9295 19.9182C22.5626 20.0865 21.9158 20.2223 22.0699 19.7712C22.0893 19.8047 22.1192 19.8307 22.1551 19.8452C22.297 19.899 22.4531 19.8219 22.5859 19.7439C22.9042 19.5644 23.2418 19.3637 23.3969 19.0343C23.4475 18.9238 23.4759 18.8032 23.5367 18.6987C23.6544 18.5318 23.8128 18.3978 23.997 18.3095C25.3969 17.4985 26.7694 16.8751 28.2545 16.2395C29.2833 15.7996 30.4308 15.3475 31.4597 14.9076C32.1876 14.5963 32.9732 14.2791 33.7466 14.4453C33.9402 14.4869 34.1521 14.5568 34.3265 14.4615C34.3113 14.3937 34.2827 14.3295 34.2423 14.273C34.3366 14.3024 34.4329 14.3368 34.5302 14.3743C35.3898 14.7352 34.6731 14.8092 34.2859 14.8244C34.1619 14.8277 34.0391 14.7995 33.9291 14.7423C33.3564 14.4575 32.7127 14.6156 31.4161 15.1478C30.0031 15.7236 27.3269 16.7819 25.558 17.6972C23.7891 18.6126 23.8398 18.7596 23.8348 18.9562C23.8338 19.0794 23.859 19.2014 23.9088 19.3141C23.5982 19.54 23.2708 19.742 22.9295 19.9182Z" fill="#37474F"/>
<path opacity="0.5" d="M14.7967 14.0682C14.3659 14.3348 13.9604 14.6622 13.4718 14.7981C13.3046 14.8447 12.9407 14.8721 12.9366 14.6967C12.9422 14.6536 12.9569 14.6123 12.9798 14.5754C13.0027 14.5385 13.0333 14.5069 13.0694 14.4828C13.8063 13.833 14.7927 13.2948 15.6503 12.8204C18.3213 11.3495 21.0066 9.87154 23.8774 8.84164C24.2585 8.70479 24.8637 8.49901 25.2732 8.59125C25.5104 8.64498 25.6959 8.87407 25.332 8.99673C24.4298 9.30084 23.6695 9.5127 22.7978 9.89283C20.9387 10.6977 19.3512 11.459 17.4658 12.4706C16.52 12.9744 15.7841 13.4539 14.7967 14.0682Z" fill="#3EC492"/>
<path d="M24.8462 8.94097C24.722 8.95054 24.5975 8.9282 24.4843 8.8761C23.8984 8.62065 23.2679 8.81122 21.9957 9.40524C20.6131 10.052 17.9937 11.242 16.2724 12.2436C14.5512 13.2451 14.61 13.3911 14.6161 13.5877C14.622 13.7106 14.6538 13.8308 14.7093 13.9405C14.4097 14.1809 14.0922 14.3982 13.7595 14.5903C13.3611 14.793 12.612 14.9856 12.9668 14.3115C13.3216 13.6374 14.2684 12.8518 15.7767 11.9516C17.2851 11.0515 20.4732 9.50762 21.7666 8.9501C23.0601 8.39257 23.9197 8.06312 25.0672 8.47873C25.9471 8.79601 25.2314 8.90651 24.8462 8.94097Z" fill="#455A64"/>
<path d="M13.0612 14.5862C13.1412 14.5893 13.2201 14.5677 13.2873 14.5243C13.553 14.4049 13.7937 14.2364 13.9969 14.0276C14.0883 13.9232 14.1573 13.801 14.1996 13.6688C14.2283 13.5287 14.2736 13.3926 14.3344 13.2633C14.4057 13.1557 14.4977 13.0633 14.6051 12.9916C14.9648 12.7389 15.3388 12.507 15.7252 12.2973C16.1185 12.0709 16.5135 11.8479 16.9102 11.6282C17.8023 11.1325 18.7034 10.6531 19.6168 10.1979C20.5301 9.74276 21.4516 9.31397 22.3902 8.91863C22.9528 8.68244 23.557 8.44017 24.1571 8.55674C24.4754 8.61858 24.8332 8.77165 25.0998 8.58614C25.1007 8.55126 25.0938 8.51663 25.0795 8.48477C25.926 8.79699 25.2225 8.90545 24.8403 8.93992C24.7161 8.94948 24.5916 8.92715 24.4784 8.87504C23.8925 8.61959 23.262 8.81017 21.9898 9.40419C20.6072 10.0509 17.9878 11.241 16.2665 12.2425C14.5453 13.244 14.6041 13.39 14.6102 13.5867C14.6161 13.7095 14.6479 13.8297 14.7034 13.9394C14.4038 14.1799 14.0863 14.3971 13.7536 14.5892C13.3856 14.7808 12.7186 14.9552 12.8991 14.4493C12.9108 14.4849 12.9322 14.5165 12.9608 14.5407C12.9894 14.5648 13.0242 14.5806 13.0612 14.5862Z" fill="#37474F"/>
<path d="M8.76241 33.9821L8.00721 34.9684C7.94109 35.0547 7.85097 35.1194 7.74817 35.1546C7.64538 35.1897 7.53448 35.1938 7.42941 35.1661C6.6438 34.9634 5.4071 34.3602 4.18561 33.6527C3.0817 33.0151 2.24844 32.3673 1.90886 32.0156C1.78366 31.8984 1.68326 31.7572 1.61361 31.6005C1.54396 31.4438 1.50647 31.2747 1.50338 31.1033L1.43547 29.7713C1.4347 29.7599 1.43757 29.7486 1.44367 29.7389C1.44977 29.7293 1.45878 29.7218 1.46939 29.7177C1.48 29.7135 1.49167 29.7128 1.5027 29.7157C1.51373 29.7186 1.52356 29.7249 1.53075 29.7338C2.06395 30.3734 3.06649 31.2543 4.31941 31.9801C5.85414 32.8661 7.48719 33.6628 8.73302 33.8939C8.74224 33.8958 8.7508 33.9001 8.75784 33.9064C8.76487 33.9126 8.77015 33.9206 8.77312 33.9296C8.7761 33.9385 8.77668 33.9481 8.7748 33.9573C8.77292 33.9665 8.76865 33.9751 8.76241 33.9821Z" fill="#455A64"/>
<path d="M1.75551 31.4347C2.80873 32.9046 6.61513 34.6481 7.64301 34.8965C7.65603 34.8996 7.66728 34.9078 7.67431 34.9192C7.68133 34.9306 7.68357 34.9443 7.68052 34.9573C7.67778 34.9684 7.67139 34.9782 7.66238 34.9852C7.65337 34.9922 7.64226 34.9959 7.63085 34.9958H7.61869C6.58574 34.7444 2.73372 32.9816 1.6734 31.4946C1.66547 31.4837 1.66218 31.4701 1.66427 31.4568C1.66637 31.4435 1.67366 31.4315 1.68455 31.4236C1.69543 31.4157 1.70903 31.4124 1.72234 31.4145C1.73564 31.4166 1.74757 31.4239 1.75551 31.4347ZM1.70989 30.9725C2.84319 32.5711 6.78847 34.344 7.90353 34.5985C7.91655 34.6016 7.9278 34.6098 7.93483 34.6212C7.94185 34.6325 7.94409 34.6463 7.94104 34.6593C7.93871 34.6705 7.9326 34.6805 7.92374 34.6877C7.91487 34.6949 7.9038 34.6988 7.89238 34.6988H7.88022C6.75908 34.4414 2.77629 32.6502 1.62981 31.0323C1.62592 31.0269 1.62315 31.0207 1.62165 31.0142C1.62016 31.0077 1.61997 31.0009 1.6211 30.9943C1.62223 30.9877 1.62466 30.9814 1.62824 30.9757C1.63182 30.9701 1.63649 30.9652 1.64197 30.9614C1.65269 30.9546 1.66553 30.9519 1.67806 30.954C1.69058 30.956 1.70191 30.9626 1.70989 30.9725ZM1.66427 30.5103C2.8655 32.2193 6.81483 34.0055 8.16 34.3015C8.16665 34.3022 8.1731 34.3042 8.17897 34.3075C8.18484 34.3107 8.19001 34.315 8.1942 34.3203C8.20266 34.3308 8.20658 34.3443 8.20511 34.3577C8.20363 34.3712 8.19687 34.3835 8.18632 34.3919C8.17577 34.4004 8.16229 34.4043 8.14885 34.4028H8.13769C6.78138 34.1038 2.79657 32.2994 1.58217 30.5711C1.57828 30.5656 1.5755 30.5595 1.57401 30.5529C1.57251 30.5464 1.57233 30.5397 1.57346 30.5331C1.57459 30.5265 1.57701 30.5202 1.5806 30.5145C1.58418 30.5089 1.58885 30.504 1.59433 30.5001C1.59957 30.4962 1.60555 30.4933 1.61192 30.4916C1.61828 30.49 1.62491 30.4896 1.63142 30.4906C1.63792 30.4915 1.64418 30.4938 1.64982 30.4971C1.65546 30.5005 1.66037 30.505 1.66427 30.5103ZM1.54871 30.0348C1.55976 30.0274 1.5733 30.0246 1.58639 30.0271C1.59948 30.0296 1.61107 30.0371 1.61866 30.048C2.89895 31.8828 6.96992 33.6973 8.41849 34.0014C8.43193 34.0028 8.44429 34.0094 8.45284 34.0198C8.4614 34.0303 8.46545 34.0437 8.4641 34.0572C8.46276 34.0706 8.45613 34.083 8.44567 34.0915C8.43522 34.1001 8.42179 34.1041 8.40835 34.1028H8.3972C6.93647 33.7926 2.83002 31.9598 1.53553 30.1048C1.5281 30.0937 1.52531 30.0802 1.52778 30.0671C1.53025 30.054 1.53777 30.0424 1.54871 30.0348Z" fill="#37474F"/>
<path d="M8.87166 34.2974C8.95592 34.1988 9.06287 34.1222 9.18331 34.0742C9.30374 34.0262 9.43405 34.0081 9.563 34.0217C10.4682 34.1149 11.9594 34.1129 12.9254 33.8311C14.0506 33.5016 14.2584 33.4743 14.0506 34.0764C13.8428 34.6785 13.2984 35.4773 12.3192 35.6466C10.5655 35.9507 9.15753 35.7713 8.45402 35.4439C8.10126 35.2746 8.53715 34.6907 8.87166 34.2974Z" fill="#3EC492"/>
<path opacity="0.8" d="M8.87166 34.2974C8.95592 34.1988 9.06287 34.1222 9.18331 34.0742C9.30374 34.0262 9.43405 34.0081 9.563 34.0217C10.4682 34.1149 11.9594 34.1129 12.9254 33.8311C14.0506 33.5016 14.2584 33.4743 14.0506 34.0764C13.8428 34.6785 13.2984 35.4773 12.3192 35.6466C10.5655 35.9507 9.15753 35.7713 8.45402 35.4439C8.10126 35.2746 8.53715 34.6907 8.87166 34.2974Z" fill="white"/>
<path d="M12.3193 35.6466C13.2986 35.4773 13.8399 34.6785 14.0507 34.0764C14.2464 33.5098 14.073 33.5016 13.111 33.7774C12.7289 34.5042 12.218 35.1641 11.5185 35.5817C11.403 35.6507 11.2833 35.7135 11.1678 35.7845C11.5539 35.7597 11.9383 35.7136 12.3193 35.6466Z" fill="#FAFAFA"/>
<path d="M0.110041 29.8118C0.359075 30.2902 0.667293 30.7353 1.02743 31.1367C1.04227 31.154 1.06218 31.1662 1.08435 31.1716C1.10652 31.1769 1.12981 31.1752 1.15091 31.1665C1.17201 31.1579 1.18985 31.1428 1.2019 31.1234C1.21394 31.1041 1.21958 31.0814 1.218 31.0587C1.1957 30.6958 1.16124 30.0693 1.15515 29.6162C1.15135 29.3973 1.09169 29.1831 0.981815 28.9938C0.690023 28.4675 0.546389 27.8719 0.566202 27.2705V27.2624C0.303617 28.0887 0.150262 28.9458 0.110041 29.8118Z" fill="#3EC492"/>
<path opacity="0.8" d="M0.110041 29.8118C0.359075 30.2902 0.667293 30.7353 1.02743 31.1367C1.04227 31.154 1.06218 31.1662 1.08435 31.1716C1.10652 31.1769 1.12981 31.1752 1.15091 31.1665C1.17201 31.1579 1.18985 31.1428 1.2019 31.1234C1.21394 31.1041 1.21958 31.0814 1.218 31.0587C1.1957 30.6958 1.16124 30.0693 1.15515 29.6162C1.15135 29.3973 1.09169 29.1831 0.981815 28.9938C0.690023 28.4675 0.546389 27.8719 0.566202 27.2705V27.2624C0.303617 28.0887 0.150262 28.9458 0.110041 29.8118Z" fill="white"/>
<path d="M0.0596876 30.8164C0.064756 30.7049 0.0688123 30.5933 0.0738807 30.4818C0.244184 30.6712 0.385596 30.8847 0.493547 31.1154C0.606909 31.3491 0.66451 31.6058 0.661819 31.8655C0.665422 31.9357 0.650753 32.0055 0.619246 32.0683C0.541192 32.199 0.387109 32.1453 0.274589 32.0967C0.217201 32.0691 0.16313 32.0351 0.113413 31.9953C0.0992213 31.9851 0.0870587 31.974 0.0738807 31.9639C0.0310834 31.5828 0.026328 31.1984 0.0596876 30.8164Z" fill="#FAFAFA"/>
<path d="M10.4632 36.9249C11.1282 36.7536 12.1672 36.6208 12.5686 36.8894C12.8373 37.0668 12.5332 37.5605 12.3912 37.7216C12.1841 37.9513 11.9106 38.1107 11.6087 38.1778C11.2063 38.2534 10.7915 38.2297 10.4004 38.1089C9.20218 37.8007 9.14643 37.2655 10.4632 36.9249Z" fill="#FAFAFA"/>
<path d="M8.84032 36.0713C6.37199 35.3881 2.76731 33.3516 1.18089 31.6912L0.960917 32.0967C2.95484 33.8666 5.7881 35.6649 9.08057 36.5447L8.84032 36.0713Z" fill="#263238"/>
<path d="M0.48135 33.155C0.623268 33.3891 0.90406 33.5655 1.03685 33.3334C1.17978 33.084 1.2923 32.8458 1.77076 33.2513C2.47135 33.8511 3.22956 34.3801 4.03433 34.8306C5.04802 35.3902 5.78295 35.7612 6.56247 36.1332C7.342 36.5052 7.69578 36.7181 7.81945 37.2908C7.94312 37.8636 8.38002 38.4616 9.21428 38.6775C9.85843 38.8466 10.5179 38.9505 11.1829 38.9877C12.5503 39.084 13.3613 38.934 13.7881 38.8012C13.9012 38.7653 14.0003 38.695 14.0717 38.6002C14.1431 38.5054 14.1832 38.3907 14.1864 38.2721C14.2554 36.414 14.8828 33.9629 17.3289 32.4728C19.5924 31.0962 20.9782 33.0414 21.2366 34.1768C21.2461 34.216 21.2646 34.2524 21.2907 34.2832C21.3168 34.314 21.3498 34.3382 21.3869 34.354C21.4241 34.3698 21.4644 34.3766 21.5047 34.374C21.5449 34.3714 21.584 34.3594 21.6188 34.339L31.3198 28.7373C31.3198 26.8468 31.8591 24.1635 34.4724 22.5741C36.6549 21.2502 38.0102 23.009 38.3467 24.1544C38.517 23.6841 38.5981 23.0961 38.6853 22.4524C38.8353 24.6886 38.8971 25.4215 38.1896 26.0226C38.1429 26.0627 38.0857 26.0886 38.0247 26.0971C37.9638 26.1057 37.9017 26.0967 37.8457 26.0711C37.7898 26.0455 37.7423 26.0045 37.7089 25.9528C37.6756 25.9011 37.6577 25.8409 37.6574 25.7794V25.086C37.6017 23.8209 36.9478 23.0171 35.9534 23.0171C35.5453 23.0287 35.1474 23.1476 34.7998 23.3617C34.4333 23.5809 34.1022 23.8543 33.8175 24.1727C32.8606 25.2228 32.2413 26.7414 32.2413 28.046C32.2413 28.1027 32.2413 28.1595 32.2413 28.2153V29.0769C32.2411 29.21 32.206 29.3407 32.1395 29.456C32.0729 29.5713 31.9773 29.667 31.8621 29.7338L20.9802 36.0186C20.9328 36.0458 20.8791 36.06 20.8245 36.0599C20.7699 36.0598 20.7163 36.0454 20.669 36.0181C20.6218 35.9908 20.5825 35.9516 20.555 35.9044C20.5276 35.8572 20.5131 35.8036 20.5129 35.749V34.9887C20.4571 33.7236 19.8033 32.9168 18.8078 32.9168C18.4001 32.9279 18.0025 33.0464 17.6553 33.2604C17.29 33.4771 16.9598 33.7482 16.6761 34.0642C16.6742 34.0671 16.6718 34.0695 16.669 34.0713C15.712 35.1215 15.0967 36.639 15.0967 37.9436C15.0967 37.9822 15.0967 38.6421 15.0967 39.0638C15.0967 39.1714 15.0687 39.2772 15.0154 39.3707C14.962 39.4642 14.8853 39.5422 14.7926 39.597C14.6426 39.6872 14.4368 39.8098 14.1692 39.9639C14.1692 39.9639 13.4292 40.4708 11.1717 40.3167C8.78448 40.1494 7.59644 39.5534 3.58831 37.2391C0.635429 35.5341 0.101215 34.0795 0.0343132 33.0191V31.7013C0.0693092 32.2139 0.222305 32.7113 0.48135 33.155Z" fill="#37474F"/>
<path d="M6.71064 36.6157C7.14248 36.8549 7.31277 37.1165 7.41313 37.7308C7.51349 38.3451 7.5145 38.6329 7.12828 38.5336C6.74207 38.4343 4.65894 37.3658 3.37763 36.5528C1.79729 35.5473 1.13028 34.7505 0.980258 34.4829C0.830232 34.2153 0.906257 34.0774 1.16272 33.754C1.35633 33.5067 1.4354 33.4641 1.7537 33.7216C2.072 33.9791 2.53424 34.3967 3.88245 35.1621C5.13942 35.8747 6.49169 36.493 6.71064 36.6157Z" fill="#263238"/>
<path opacity="0.3" d="M21.4142 27.5027C21.915 30.0744 21.9414 32.7262 21.7001 35.3283C21.8045 32.7181 21.7792 30.0936 21.4142 27.5027ZM28.8233 31.3172C28.8294 30.8965 28.8152 30.3197 28.7949 29.898C28.6935 28.1747 28.4857 26.4413 28.0276 24.7728C27.9445 24.4688 27.8429 24.1703 27.7234 23.8787C28.6449 25.8666 28.9754 29.1337 28.8233 31.3172ZM34.2516 23.1114C34.0113 22.2602 33.671 21.4405 33.2379 20.6694C33.8542 21.4894 34.2418 22.4584 34.3611 23.4773C34.3205 23.3546 34.2891 23.232 34.2516 23.1114Z" fill="black"/>
<path d="M23.9027 26.2315C23.7121 27.1367 22.7086 27.3283 21.9574 27.306C21.5591 27.2938 21.2316 27.2208 21.1313 27.1641C20.8414 26.9958 20.9752 26.6481 21.1313 26.4474C21.3948 26.1058 22.5758 25.4225 23.3178 25.3982C23.7506 25.384 24.0355 25.5949 23.9027 26.2315Z" fill="#3EC492"/>
<path opacity="0.3" d="M23.9027 26.2315C23.7121 27.1367 22.7086 27.3283 21.9574 27.306C21.5591 27.2938 21.2316 27.2208 21.1313 27.1641C20.8414 26.9958 20.9752 26.6481 21.1313 26.4474C21.3948 26.1058 22.5758 25.4225 23.3178 25.3982C23.7506 25.384 24.0355 25.5949 23.9027 26.2315Z" fill="white"/>
<path d="M23.9027 26.2315C23.7121 27.1367 22.7086 27.3283 21.9574 27.306C21.5591 27.2938 21.2316 27.2208 21.1313 27.1641C20.8414 26.9958 20.9752 26.6481 21.1313 26.4474C20.9853 26.7241 21.7587 26.8944 22.4491 26.6501C23.1394 26.4058 23.6523 25.8696 23.3178 25.4013C23.7506 25.384 24.0355 25.5949 23.9027 26.2315Z" fill="#3EC492"/>
<path d="M23.9027 26.2315C23.7121 27.1367 22.7086 27.3283 21.9574 27.306C22.7055 27.2837 23.3016 26.8529 23.5266 26.3825C23.7517 25.9122 23.5804 25.458 23.3168 25.3982C23.7507 25.384 24.0355 25.5949 23.9027 26.2315Z" fill="#37474F"/>
</g>
</g>
<defs>
<clipPath id="clip0_147_9994">
<rect width="40" height="41.0409" fill="white" transform="translate(0.288574 0.940796)"/>
</clipPath>
<clipPath id="clip1_147_9994">
<rect width="39.2728" height="32.4537" fill="white" transform="translate(0.288574 8.15509)"/>
</clipPath>
</defs>
</svg>
