<svg width="41" height="42" viewBox="0 0 41 42" fill="none" xmlns="http://www.w3.org/2000/svg">
<g clip-path="url(#clip0_147_8305)">
<rect x="6.53857" y="2.82278" width="33.176" height="31.875" rx="5" fill="#E1FBF1"/>
<g clip-path="url(#clip1_147_8305)">
<path d="M8.69584 19.7091L8.60239 20.0955C8.38898 20.4971 7.9167 21.0022 7.74622 20.9605C7.59469 20.9226 7.50251 20.7079 7.45452 20.4301C7.43223 20.2995 7.41915 20.1674 7.41537 20.0349C7.40022 19.6068 7.59216 18.6067 8.18694 18.3415C8.2464 18.3156 8.31253 18.3093 8.37582 18.3233C8.43912 18.3374 8.49633 18.3712 8.53926 18.4198C8.61828 18.4995 8.67715 18.5969 8.71099 18.7039C8.81076 19.0007 8.70973 19.6939 8.69584 19.7091Z" fill="#3EC492"/>
<path opacity="0.3" d="M8.69584 19.7091C8.66427 19.8695 8.60239 20.0955 8.60239 20.0955C8.38898 20.4971 7.9167 21.0022 7.74622 20.9605C7.59469 20.9226 7.50251 20.7079 7.45452 20.4301C7.43223 20.2995 7.41915 20.1674 7.41537 20.0349C7.40022 19.6068 7.59216 18.6067 8.18694 18.3415C8.2464 18.3156 8.31253 18.3093 8.37582 18.3233C8.43912 18.3374 8.49633 18.3712 8.53926 18.4198C8.61828 18.4995 8.67715 18.5969 8.71099 18.7039C8.81076 19.0007 8.70973 19.6939 8.69584 19.7091Z" fill="black"/>
<path d="M8.6024 20.0955C8.38898 20.4971 7.9167 21.0022 7.74622 20.9605C7.59469 20.9226 7.50251 20.7079 7.45452 20.4301C7.43223 20.2995 7.41915 20.1674 7.41537 20.0349C7.40022 19.6068 7.59216 18.6067 8.18694 18.3415C8.2464 18.3156 8.31253 18.3093 8.37582 18.3233C8.43912 18.3374 8.49633 18.3712 8.53926 18.4198L8.45844 18.6041C8.04172 18.7822 7.93059 19.425 7.96848 19.9136C8.00636 20.4023 8.37004 20.348 8.6024 20.0955Z" fill="#3EC492"/>
<path opacity="0.35" d="M8.6024 20.0955C8.38898 20.4971 7.9167 21.0022 7.74622 20.9605C7.59469 20.9226 7.50251 20.7079 7.45452 20.4301C7.43223 20.2995 7.41915 20.1674 7.41537 20.0349C7.40022 19.6068 7.59216 18.6067 8.18694 18.3415C8.2464 18.3156 8.31253 18.3093 8.37582 18.3233C8.43912 18.3374 8.49633 18.3712 8.53926 18.4198L8.45844 18.6041C8.04172 18.7822 7.93059 19.425 7.96848 19.9136C8.00636 20.4023 8.37004 20.348 8.6024 20.0955Z" fill="black"/>
<path d="M8.71116 18.7014C8.56089 18.541 8.1871 18.5335 7.87267 18.9653C7.55823 19.3972 7.45595 20.1385 7.45468 20.4264C7.43197 20.2957 7.41847 20.1637 7.41427 20.0311C7.40038 19.603 7.59106 18.6029 8.18584 18.3365C8.43461 18.2266 8.63918 18.4804 8.71116 18.7014Z" fill="#37474F"/>
<path d="M22.1349 9.58909C21.8823 10.5236 21.5161 11.953 21.5161 11.953L10.2773 18.4425V18.3162C10.289 18.0348 10.3849 17.7634 10.5525 17.5371C11.1713 16.6999 11.8153 15.8576 12.4707 15.033C13.5067 13.6947 14.7185 12.5024 16.0735 11.4883C18.0118 10.0765 19.4009 9.49059 20.3467 9.16479C21.2926 8.83899 21.7219 8.69882 21.9682 8.67231C22.4695 8.61801 22.3445 8.79985 22.1349 9.58909ZM25.4282 8.20002C24.6289 7.9803 23.5997 7.9121 22.1109 8.19118C20.1611 8.55992 18.3301 9.38831 16.6228 10.3821C15.7401 10.8993 14.9002 11.4863 14.1111 12.1374C13.155 12.9243 12.2797 13.8046 11.4984 14.7653L11.3569 14.9421C11.3481 14.9534 11.3393 14.9635 11.3317 14.9749C10.7091 15.7629 7.56605 19.3429 6.78564 21.4783L9.67744 24.269L9.59662 26.0104L12.2699 24.466L12.6286 24.2589L17.8212 21.2611L23.3295 17.8831L23.683 17.6659L23.9558 17.4992C23.9558 17.4992 24.3637 17.0825 24.4445 16.9019L24.4597 16.8703C24.7248 16.2617 25.3108 14.3031 25.677 12.1033C25.975 10.3405 25.7881 8.89708 25.427 8.20002H25.4282Z" fill="#37474F"/>
<path d="M21.1371 8.53846C18.9083 9.2191 17.749 9.81893 15.8637 11.1903C14.4797 12.2245 13.2416 13.4406 12.1826 14.8057C11.5302 15.6299 10.8883 16.4675 10.2569 17.3186C10.0429 17.6078 9.92216 17.9554 9.91089 18.315V19.0727L21.8228 12.1942C22.1827 10.9883 22.2534 10.8961 22.4984 9.27341C22.631 8.40082 22.2332 8.20382 21.1371 8.53846ZM22.1397 9.22037C21.9124 10.718 21.8531 10.8039 21.5147 11.953L10.2758 18.4425V18.3162C10.2876 18.0348 10.3835 17.7634 10.5511 17.5371C11.1699 16.6999 11.8139 15.8576 12.4693 15.033C13.5056 13.6946 14.7179 12.5023 16.0733 11.4883C18.0117 10.0765 18.3918 10.0185 20.3466 9.16481C21.3707 8.71778 22.0716 8.64833 22.1082 8.64833C22.1291 8.64759 22.1498 8.65206 22.1685 8.66131C22.1873 8.67057 22.2034 8.68433 22.2155 8.70136C22.3001 8.79986 22.1928 8.86552 22.1347 9.22037H22.1397Z" fill="#263238"/>
<path opacity="0.5" d="M10.2758 18.3188C10.2871 18.0375 10.3826 17.7661 10.5498 17.5397C11.1686 16.7024 11.8126 15.8601 12.468 15.0355C13.5046 13.6963 14.7174 12.5031 16.0733 11.4884C18.0104 10.0766 19.1141 9.63964 20.3453 9.16483C21.5765 8.69002 22.0703 8.64835 22.1056 8.64835C22.1267 8.64741 22.1477 8.65177 22.1667 8.66103C22.1856 8.6703 22.202 8.68417 22.2142 8.70139C22.295 8.79483 22.1877 8.86555 22.1334 9.22039C21.9074 10.7168 21.848 10.8027 21.5096 11.9531L10.2708 18.4425L10.2758 18.3188Z" fill="black"/>
<path d="M35.6391 15.5507L25.2842 9.57016C24.9423 9.76727 24.6542 10.0454 24.4452 10.3802C24.2362 10.7149 24.1128 11.0959 24.0858 11.4896L23.8042 14.6958L34.1591 20.6764L35.6391 19.8215V15.5507Z" fill="#37474F"/>
<path d="M35.639 16.7782L24.4495 10.3695C24.6582 10.0397 24.9438 9.76547 25.2816 9.57016L35.6365 15.5507L35.639 16.7782Z" fill="#455A64"/>
<path d="M35.6389 19.8215V15.5508C35.297 15.7479 35.0087 16.026 34.7995 16.3607C34.5903 16.6954 34.4666 17.0764 34.4393 17.4702L34.1589 20.6764L35.6389 19.8215Z" fill="#263238"/>
<path d="M34.4406 17.4689L34.159 20.6764L31.7029 22.0933L23.5642 17.3957L24.0832 11.4896L34.4406 17.4689Z" fill="#37474F"/>
<path d="M23.837 17.2391L13.2573 23.3472L21.396 28.046L31.9757 21.9379L23.837 17.2391Z" fill="black"/>
<path d="M20.6512 21.0489L19.4414 21.0249L17.6003 19.9705C17.4283 19.8848 17.2404 19.8357 17.0485 19.8264C16.8565 19.817 16.6647 19.8476 16.4852 19.9162L14.2526 20.9264L12.7234 20.8961V21.7889C12.7312 21.8517 12.7554 21.9114 12.7935 21.9619C12.8316 22.0124 12.8823 22.0521 12.9406 22.0768L16.9474 24.3902C17.1096 24.4738 17.2919 24.5105 17.4737 24.496C17.6556 24.4815 17.8297 24.4164 17.9766 24.3082L20.4656 22.2877C20.52 22.2482 20.5647 22.1969 20.5964 22.1376C20.6281 22.0784 20.646 22.0127 20.6487 21.9455L20.6512 21.0489Z" fill="#37474F"/>
<path d="M12.9403 21.1752L16.9472 23.4886C17.1093 23.5721 17.2915 23.6088 17.4733 23.5945C17.655 23.5802 17.8293 23.5156 17.9764 23.4078L20.4653 21.3873C20.7343 21.1689 20.7078 20.8519 20.4072 20.6802L17.6 19.0714C17.4281 18.9853 17.2402 18.9361 17.0481 18.927C16.8561 18.9178 16.6643 18.949 16.485 19.0183L12.9681 20.6044C12.6524 20.7509 12.6398 21.006 12.9403 21.1752Z" fill="#455A64"/>
<path d="M20.6509 21.0489V21.9404C20.6485 22.0077 20.6308 22.0735 20.599 22.1328C20.5673 22.1921 20.5224 22.2434 20.4678 22.2826L17.9801 24.3031C17.8394 24.4107 17.6705 24.4752 17.4939 24.4887V23.5959C17.6705 23.5824 17.8394 23.5179 17.9801 23.4103L20.4678 21.3898C20.522 21.3504 20.5665 21.2993 20.5983 21.2403C20.63 21.1812 20.6479 21.1158 20.6509 21.0489Z" fill="#263238"/>
<path d="M21.0371 20.7837C21.0434 20.8234 21.0388 20.8641 21.024 20.9014C21.0091 20.9387 20.9844 20.9714 20.9525 20.9959L19.9322 21.5856C19.9653 21.5621 19.991 21.5297 20.0064 21.4921C20.0219 21.4546 20.0263 21.4134 20.0193 21.3734L19.7971 16.3867C19.7861 16.2731 19.7496 16.1634 19.6904 16.0659C19.6311 15.9684 19.5506 15.8855 19.4548 15.8235L17.0555 14.4344C17.0189 14.4091 16.9763 14.3939 16.932 14.3903C16.8876 14.3868 16.8431 14.395 16.803 14.4142L17.8132 13.8295C17.8538 13.8086 17.8993 13.7991 17.9449 13.802C17.9905 13.8048 18.0345 13.8201 18.0721 13.8459L20.4714 15.235C20.5673 15.2972 20.6479 15.3803 20.7072 15.478C20.7665 15.5758 20.8028 15.6857 20.8136 15.7995L21.0371 20.7837Z" fill="#263238"/>
<path d="M17.0503 14.4332L19.4496 15.8223C19.5454 15.8843 19.6259 15.9672 19.6852 16.0647C19.7444 16.1622 19.7809 16.2719 19.7918 16.3855L20.0141 21.3722C20.0229 21.5793 19.8878 21.6639 19.7047 21.5604L16.2876 19.5841C16.195 19.5248 16.1207 19.441 16.0728 19.3421C16.0249 19.2431 16.0052 19.1328 16.0161 19.0234L16.6702 14.6176C16.6712 14.5739 16.6842 14.5313 16.7078 14.4946C16.7314 14.4579 16.7647 14.4283 16.804 14.4093C16.8433 14.3902 16.887 14.3824 16.9305 14.3866C16.974 14.3908 17.0154 14.4069 17.0503 14.4332Z" fill="#37474F"/>
<path d="M20.7101 15.4787L19.6922 16.0659C19.634 15.9666 19.5526 15.883 19.4548 15.8222L17.0555 14.4331C17.0189 14.4078 16.9763 14.3926 16.932 14.3891C16.8876 14.3855 16.8431 14.3938 16.803 14.4129L17.8132 13.8283C17.8538 13.8073 17.8993 13.7978 17.9449 13.8007C17.9905 13.8036 18.0345 13.8188 18.0721 13.8447L20.4714 15.2338C20.5696 15.2949 20.6515 15.3789 20.7101 15.4787Z" fill="#455A64"/>
<path d="M20.2895 14.7526V13.5126C20.2895 12.6185 19.7199 11.5654 19.0166 11.16C18.6945 10.9731 18.4003 10.9579 18.1755 11.0792L17.3989 11.53L17.7437 12.1892V13.284C17.7495 13.3971 17.7821 13.5073 17.8388 13.6054C17.8954 13.7035 17.9744 13.7868 18.0695 13.8485L18.8436 14.2955L19.427 15.4118L20.1947 14.9648C20.2281 14.9411 20.2544 14.9089 20.2711 14.8716C20.2877 14.8343 20.2941 14.7932 20.2895 14.7526Z" fill="#263238"/>
<path d="M19.0166 12.9279L20.0154 12.3508C19.7818 11.8457 19.4219 11.3936 19.0166 11.16C18.6945 10.9731 18.4003 10.9579 18.1755 11.0792L17.3989 11.53L17.7437 12.1892V12.4038L19.0166 12.9279Z" fill="#455A64"/>
<path d="M19.5253 15.1971V13.9571C19.5253 13.063 18.9558 12.0099 18.2524 11.6045C17.549 11.1992 16.9795 11.5931 16.9795 12.4885V13.7247C16.9857 13.8378 17.0184 13.9478 17.075 14.0459C17.1316 14.1439 17.2105 14.2273 17.3053 14.2892L19.1995 15.3828C19.3801 15.4926 19.5253 15.4055 19.5253 15.1971Z" fill="#37474F"/>
<path d="M17.1239 15.4926C16.8292 16.5922 16.6881 17.7273 16.7047 18.8655C16.7126 18.982 16.7438 19.0957 16.7965 19.1998C16.8492 19.3039 16.9223 19.3964 17.0115 19.4717C17.6054 19.9121 18.2483 20.2825 18.9272 20.5754C18.9662 20.5947 19.0095 20.6037 19.053 20.6014C19.0964 20.5991 19.1386 20.5856 19.1753 20.5623C19.212 20.5389 19.2421 20.5064 19.2625 20.468C19.283 20.4296 19.2932 20.3865 19.2921 20.343C19.3615 19.1234 19.3653 17.9009 19.3035 16.6809C19.2753 16.4454 19.1583 16.2296 18.9764 16.0773C18.5404 15.7584 18.0713 15.4875 17.5773 15.2691C17.5333 15.2487 17.4853 15.2384 17.4368 15.239C17.3883 15.2395 17.3406 15.251 17.2971 15.2724C17.2536 15.2938 17.2155 15.3248 17.1855 15.3629C17.1556 15.401 17.1345 15.4453 17.1239 15.4926Z" fill="#3EC492"/>
<path opacity="0.15" d="M19.2644 20.4579C19.2798 20.4215 19.2883 20.3826 19.2896 20.343C19.3589 19.1234 19.3627 17.9009 19.301 16.6809C19.2897 16.5645 19.254 16.4518 19.1962 16.3501C19.0699 16.1607 19.0168 17.7568 19.0168 18.7304C19.0168 19.704 19.0307 20.6663 19.1898 20.5539L19.2075 20.5387C19.2287 20.5135 19.2478 20.4864 19.2644 20.4579Z" fill="black"/>
<g opacity="0.15">
<path d="M16.9258 18.7835C16.9258 18.7835 16.9548 18.7999 17.0028 18.8327C17.0508 18.8656 17.1215 18.9098 17.2049 18.959C17.3703 19.0676 17.5925 19.2116 17.8198 19.3378C18.0471 19.4641 18.2808 19.5904 18.4512 19.6775C18.5396 19.7217 18.6129 19.7621 18.6659 19.7861L18.748 19.8278C18.748 19.8278 18.7152 19.8278 18.6571 19.8089C18.599 19.7899 18.5194 19.776 18.4235 19.7445C18.3144 19.7079 18.2074 19.6658 18.1027 19.6182C18.0459 19.5917 17.9865 19.5664 17.9284 19.5361C17.8703 19.5058 17.811 19.4742 17.7516 19.4414C17.6367 19.3732 17.5231 19.3012 17.4221 19.2267C17.329 19.1601 17.2396 19.0884 17.1543 19.012C17.0798 18.9451 17.0218 18.8858 16.9813 18.8428C16.9409 18.7999 16.9258 18.7835 16.9258 18.7835Z" fill="black"/>
<path d="M16.9258 18.1534C16.9258 18.1534 16.9548 18.1698 17.0028 18.2026C17.0508 18.2354 17.1215 18.2796 17.2049 18.3289C17.3703 18.4362 17.5925 18.5814 17.8198 18.7077C18.0471 18.834 18.2808 18.9603 18.4512 19.0474C18.5396 19.0916 18.6129 19.132 18.6659 19.156L18.748 19.1977C18.748 19.1977 18.7152 19.1977 18.6571 19.1787C18.599 19.1598 18.5194 19.1459 18.4235 19.1143C18.3144 19.0778 18.2074 19.0357 18.1027 18.9881C18.0459 18.9615 17.9865 18.9363 17.9284 18.906C17.8703 18.8757 17.811 18.8428 17.7516 18.8113C17.6367 18.7431 17.5231 18.6711 17.4221 18.5966C17.3293 18.5296 17.2399 18.4579 17.1543 18.3819C17.0798 18.315 17.0218 18.2556 16.9813 18.2127C16.9409 18.1698 16.9258 18.1534 16.9258 18.1534Z" fill="black"/>
<path d="M17.0562 17.6318C17.0562 17.6318 17.0827 17.647 17.1281 17.6773C17.1736 17.7076 17.238 17.7467 17.315 17.796C17.4678 17.8945 17.6737 18.022 17.8858 18.1357C18.098 18.2493 18.3152 18.3541 18.4806 18.4337L18.6788 18.5322L18.7546 18.5713L18.6713 18.5549C18.6182 18.5423 18.545 18.5271 18.4541 18.5006C18.3631 18.4741 18.2634 18.4413 18.1548 18.3983C18.1017 18.3756 18.0462 18.3554 17.9919 18.3276C17.9376 18.2998 17.8808 18.2733 17.8265 18.2455C17.7722 18.2177 17.7179 18.1849 17.6661 18.1521C17.6143 18.1192 17.5651 18.0851 17.5171 18.0523C17.4291 17.9907 17.3448 17.9241 17.2645 17.8528C17.1963 17.7909 17.1382 17.7341 17.1067 17.6949C17.0751 17.6558 17.0562 17.6318 17.0562 17.6318Z" fill="black"/>
<path d="M17.1089 17.0434L17.1783 17.0863C17.2213 17.1166 17.2857 17.1532 17.3589 17.2012C17.5079 17.2972 17.7062 17.4184 17.9108 17.5258C18.1153 17.6331 18.3287 17.7316 18.4891 17.8086L18.6811 17.9033C18.7278 17.9261 18.7543 17.9412 18.7543 17.9412L18.6735 17.9261C18.623 17.9147 18.5472 17.8995 18.4639 17.8755C18.3654 17.8492 18.2685 17.8176 18.1734 17.7808C18.1216 17.7594 18.0673 17.7404 18.0143 17.7152L17.8527 17.6369C17.8009 17.6078 17.7479 17.5788 17.6973 17.5472C17.6468 17.5156 17.6001 17.4828 17.5534 17.4512C17.47 17.3923 17.3907 17.3277 17.316 17.258C17.2625 17.2097 17.2115 17.1587 17.1632 17.1052C17.1278 17.0674 17.1089 17.0434 17.1089 17.0434Z" fill="black"/>
<path d="M17.1985 16.4827L17.2642 16.5231L17.4346 16.6304C17.6028 16.7398 17.7769 16.8397 17.9562 16.9297C18.1494 17.0282 18.3527 17.1141 18.5042 17.1823C18.6557 17.2505 18.7568 17.3086 18.7568 17.3086C18.6644 17.2944 18.5729 17.275 18.4827 17.2505C18.2821 17.2013 18.0873 17.1306 17.9019 17.0396C17.8526 17.0131 17.8021 16.9866 17.7541 16.9575C17.7061 16.9285 17.6607 16.8969 17.6177 16.8678C17.5389 16.8123 17.4642 16.7511 17.3942 16.6847C17.3237 16.6227 17.2582 16.5552 17.1985 16.4827Z" fill="black"/>
<path d="M17.4072 15.9435C17.4072 15.9435 17.4931 15.9927 17.6156 16.0698C17.7381 16.1468 17.8997 16.2428 18.0689 16.3299C18.2381 16.417 18.4099 16.5004 18.5399 16.5648C18.67 16.6292 18.7546 16.681 18.7546 16.681C18.6733 16.6699 18.5928 16.6539 18.5134 16.633C18.3386 16.5874 18.1692 16.5231 18.0083 16.441C17.9654 16.417 17.9212 16.393 17.882 16.3678C17.8411 16.3433 17.8015 16.3168 17.7633 16.2882C17.6949 16.2389 17.6303 16.1844 17.5701 16.1253C17.5112 16.069 17.4567 16.0082 17.4072 15.9435Z" fill="black"/>
</g>
<path d="M16.0966 20.026C15.4652 20.1397 14.8401 20.4617 14.2188 20.9277C14.1805 20.953 14.1491 20.9874 14.1274 21.0279C14.1056 21.0683 14.0942 21.1135 14.0942 21.1594C14.0942 21.2053 14.1056 21.2505 14.1274 21.2909C14.1491 21.3314 14.1805 21.3658 14.2188 21.3911C14.9685 21.9432 15.778 22.4092 16.632 22.7802C16.8531 22.8649 17.0987 22.8585 17.3152 22.7625C17.8444 22.4931 18.3304 22.1462 18.7573 21.7333C18.7917 21.7 18.8182 21.6594 18.8349 21.6144C18.8516 21.5695 18.858 21.5214 18.8536 21.4737C18.8492 21.426 18.8342 21.3798 18.8097 21.3386C18.7852 21.2975 18.7517 21.2623 18.7118 21.2358C18.1225 20.7986 17.4874 20.4269 16.8176 20.1271C16.5891 20.0353 16.3416 20.0006 16.0966 20.026Z" fill="#3EC492"/>
<g opacity="0.2">
<path d="M14.5581 21.16C14.5581 21.16 14.5973 21.1701 14.6654 21.1915C14.7336 21.213 14.8309 21.2433 14.9445 21.2863C15.2237 21.3924 15.4947 21.519 15.7552 21.6651C16.0154 21.8128 16.2629 21.9817 16.4952 22.1702C16.6009 22.2558 16.7021 22.3469 16.7983 22.443L16.4523 22.2283C16.2465 22.102 15.9712 21.9328 15.6946 21.775C15.4181 21.6171 15.1314 21.4656 14.9167 21.3519L14.6579 21.2143L14.5581 21.16Z" fill="black"/>
<path d="M15.1604 20.8127L15.2677 20.8443C15.3347 20.867 15.4332 20.8961 15.5468 20.9403C15.8259 21.0456 16.0966 21.1723 16.3563 21.3191C16.6167 21.4669 16.8647 21.6359 17.0975 21.8242C17.2857 21.9796 17.3993 22.0957 17.3993 22.0957L17.0558 21.8823C16.85 21.756 16.5747 21.5881 16.2982 21.4302C16.0216 21.2724 15.7337 21.1196 15.5203 21.0072L15.2677 20.8683C15.1958 20.8342 15.1604 20.8127 15.1604 20.8127Z" fill="black"/>
<path d="M15.6782 20.5198L15.7856 20.5501C15.8525 20.5728 15.951 20.6019 16.0646 20.6461C16.344 20.7509 16.6146 20.8776 16.8741 21.0249C17.1346 21.1726 17.3826 21.3415 17.6153 21.53C17.8035 21.6803 17.9172 21.8066 17.9172 21.8066L17.5737 21.5931C17.3678 21.4669 17.0925 21.2989 16.816 21.1411C16.5394 20.9832 16.2528 20.8304 16.0394 20.718L15.7868 20.5791L15.6782 20.5198Z" fill="black"/>
<path d="M16.2422 20.2786L16.3407 20.3063C16.4026 20.3253 16.4922 20.3518 16.5932 20.3922C16.8506 20.4871 17.0998 20.6028 17.3383 20.7382C17.5772 20.873 17.804 21.0281 18.0164 21.2017C18.1129 21.281 18.2052 21.3653 18.293 21.4542L18.2046 21.4012L17.9747 21.2598C17.7866 21.1436 17.5328 20.992 17.2764 20.8468C17.0201 20.7016 16.7599 20.5627 16.5642 20.4566L16.3281 20.3303C16.2738 20.2975 16.2422 20.2786 16.2422 20.2786Z" fill="black"/>
</g>
<path d="M26.1754 24.2868L24.9656 24.2628L23.1245 23.2083C22.9526 23.1223 22.7646 23.0731 22.5725 23.0639C22.3805 23.0548 22.1887 23.0859 22.0094 23.1553L19.7768 24.1655L18.2476 24.1352V25.028C18.2554 25.0906 18.2797 25.1501 18.3178 25.2004C18.3559 25.2507 18.4066 25.2901 18.4648 25.3147L22.4716 27.6281C22.6337 27.7117 22.816 27.7483 22.9979 27.7338C23.1797 27.7193 23.3539 27.6543 23.5008 27.546L25.9897 25.5256C26.044 25.4859 26.0887 25.4346 26.1204 25.3753C26.1521 25.3161 26.17 25.2505 26.1728 25.1833L26.1754 24.2868Z" fill="#37474F"/>
<path d="M18.4645 24.4194L22.4714 26.7315C22.6335 26.8151 22.8158 26.8518 22.9976 26.8373C23.1795 26.8228 23.3537 26.7577 23.5005 26.6495L25.9895 24.629C26.2585 24.4105 26.2319 24.0948 25.9314 23.9231L23.1242 22.3118C22.9525 22.2252 22.7645 22.1756 22.5725 22.1663C22.3804 22.1569 22.1885 22.188 22.0092 22.2575L18.4923 23.8435C18.1766 23.99 18.164 24.2464 18.4645 24.4194Z" fill="#455A64"/>
<path d="M26.1753 24.288V25.1795C26.1729 25.2468 26.1552 25.3126 26.1234 25.3719C26.0917 25.4312 26.0468 25.4825 25.9922 25.5217L23.5045 27.5422C23.3642 27.6508 23.1952 27.7158 23.0183 27.7291V26.8363C23.195 26.8233 23.3641 26.7588 23.5045 26.6507L25.9922 24.6302C26.0466 24.5907 26.0913 24.5394 26.1231 24.4801C26.1548 24.4209 26.1726 24.3552 26.1753 24.288Z" fill="#263238"/>
<path d="M26.5613 24.0228C26.5676 24.0625 26.563 24.1032 26.5481 24.1405C26.5332 24.1778 26.5086 24.2105 26.4767 24.235L25.4563 24.8247C25.4894 24.8012 25.5152 24.7688 25.5306 24.7312C25.546 24.6937 25.5505 24.6525 25.5435 24.6125L25.3212 19.627C25.3105 19.5132 25.2741 19.4033 25.2148 19.3056C25.1556 19.2078 25.0749 19.1247 24.979 19.0626L22.5797 17.6735C22.5431 17.6482 22.5005 17.633 22.4561 17.6294C22.4118 17.6259 22.3673 17.6341 22.3271 17.6533L23.3374 17.0686C23.3782 17.0485 23.4236 17.0394 23.469 17.0423C23.5144 17.0452 23.5583 17.0599 23.5963 17.085L25.9956 18.4741C26.0915 18.5363 26.1721 18.6194 26.2314 18.7171C26.2906 18.8149 26.327 18.9248 26.3378 19.0386L26.5613 24.0228Z" fill="#263238"/>
<path d="M22.5752 17.6735L24.9745 19.0626C25.0702 19.1246 25.1508 19.2075 25.21 19.3051C25.2693 19.4026 25.3057 19.5122 25.3167 19.6258L25.544 24.6113C25.5528 24.8197 25.4177 24.903 25.2346 24.7995L21.8125 22.8232C21.72 22.7641 21.6457 22.6805 21.5978 22.5818C21.5499 22.4831 21.5302 22.373 21.541 22.2638L22.1951 17.8566C22.1963 17.8131 22.2094 17.7707 22.2331 17.7341C22.2568 17.6976 22.2901 17.6682 22.3294 17.6493C22.3686 17.6304 22.4123 17.6227 22.4557 17.6269C22.499 17.6312 22.5404 17.6473 22.5752 17.6735Z" fill="#37474F"/>
<path d="M26.2342 18.7179L25.2164 19.3063C25.1583 19.2067 25.0768 19.1226 24.979 19.0614L22.5797 17.6723C22.5431 17.647 22.5005 17.6318 22.4561 17.6282C22.4118 17.6247 22.3673 17.6329 22.3271 17.6521L23.3374 17.0674C23.3782 17.0473 23.4236 17.0382 23.469 17.041C23.5144 17.0439 23.5583 17.0587 23.5963 17.0838L25.9956 18.4729C26.0935 18.5343 26.1753 18.6183 26.2342 18.7179Z" fill="#455A64"/>
<path d="M25.8136 17.993V16.7554C25.8136 15.8626 25.2441 14.8095 24.5407 14.4029C24.2187 14.2172 23.9245 14.2008 23.6997 14.3233L22.9231 14.7741L23.2678 15.4333V16.5281C23.2737 16.6413 23.3063 16.7514 23.3629 16.8495C23.4196 16.9476 23.4986 17.0309 23.5936 17.0926L24.3677 17.5396L24.9511 18.6559L25.7189 18.2102C25.7533 18.1863 25.7803 18.1533 25.797 18.115C25.8137 18.0766 25.8195 18.0344 25.8136 17.993Z" fill="#263238"/>
<path d="M24.5407 16.167L25.5396 15.5912C25.306 15.0861 24.9461 14.6327 24.5407 14.3991C24.2187 14.2135 23.9245 14.1971 23.6997 14.3196L22.9231 14.7704L23.2678 15.4295V15.6455L24.5407 16.167Z" fill="#455A64"/>
<path d="M25.0504 18.4375V17.1962C25.0504 16.3034 24.4809 15.2503 23.7775 14.8436C23.0742 14.437 22.5046 14.8323 22.5046 15.7276V16.9689C22.5109 17.0818 22.5437 17.1916 22.6003 17.2894C22.6569 17.3873 22.7357 17.4704 22.8304 17.5321L24.7246 18.627C24.9052 18.7292 25.0504 18.6497 25.0504 18.4375Z" fill="#37474F"/>
<path d="M22.6481 18.7292C22.3523 19.8295 22.2104 20.9655 22.2263 22.1047C22.234 22.2212 22.2652 22.3349 22.3179 22.439C22.3707 22.5432 22.4439 22.6356 22.5332 22.7108C23.1271 23.1513 23.7699 23.5216 24.4488 23.8145C24.4877 23.8338 24.5309 23.8428 24.5743 23.8406C24.6176 23.8383 24.6597 23.8249 24.6964 23.8017C24.733 23.7785 24.7631 23.7462 24.7837 23.708C24.8043 23.6697 24.8146 23.6268 24.8138 23.5834C24.883 22.3638 24.8868 21.1413 24.8251 19.9213C24.7969 19.6858 24.6799 19.47 24.4981 19.3177C24.062 18.9992 23.5929 18.7287 23.0989 18.5108C23.0554 18.4908 23.008 18.4807 22.9601 18.4812C22.9122 18.4817 22.865 18.4928 22.8219 18.5137C22.7789 18.5345 22.7409 18.5647 22.7109 18.602C22.6808 18.6392 22.6594 18.6827 22.6481 18.7292Z" fill="#3EC492"/>
<path opacity="0.15" d="M24.7863 23.7008C24.8028 23.6651 24.8118 23.6264 24.8128 23.5872C24.8821 22.3675 24.8859 21.1451 24.8242 19.9251C24.8123 19.8088 24.7766 19.6962 24.7194 19.5942C24.5868 19.4048 24.54 21.001 24.54 21.9746C24.54 22.9482 24.5539 23.9104 24.713 23.798L24.7307 23.7829C24.7522 23.7577 24.7709 23.7301 24.7863 23.7008Z" fill="black"/>
<g opacity="0.15">
<path d="M22.4502 22.0226L22.5272 22.0718C22.5752 22.1059 22.6459 22.1489 22.7293 22.1981C22.8947 22.3067 23.1169 22.4507 23.3442 22.5769C23.5716 22.7032 23.8052 22.8295 23.982 22.9179C24.0704 22.9621 24.1436 23.0012 24.1966 23.0252L24.2787 23.0682L24.1878 23.0492C24.1322 23.0341 24.0502 23.0164 23.9542 22.9836C23.8449 22.9476 23.7379 22.9055 23.6334 22.8573C23.5766 22.8308 23.5173 22.8068 23.4592 22.7752C23.4011 22.7436 23.3417 22.7133 23.2824 22.6805C23.1675 22.6123 23.0538 22.5416 22.9528 22.4671C22.8597 22.4001 22.7703 22.328 22.6851 22.2511C22.6106 22.1855 22.5525 22.1249 22.5121 22.0819C22.4717 22.039 22.4502 22.0226 22.4502 22.0226Z" fill="black"/>
<path d="M22.4502 21.3925L22.5272 21.4417C22.5752 21.4758 22.6459 21.5187 22.7293 21.568C22.8947 21.6766 23.1169 21.8205 23.3442 21.9468C23.5716 22.0731 23.8052 22.1994 23.982 22.2878C24.0704 22.332 24.1436 22.3711 24.1966 22.3951L24.2787 22.438L24.1878 22.4178C24.1322 22.4039 24.0502 22.385 23.9542 22.3534C23.8449 22.3175 23.7379 22.2753 23.6334 22.2272C23.5766 22.2006 23.5173 22.1766 23.4592 22.1451C23.4011 22.1135 23.3417 22.0832 23.2824 22.0504C23.1675 21.9822 23.0538 21.9102 22.9528 21.837C22.8597 21.7699 22.7703 21.6978 22.6851 21.621C22.6106 21.5554 22.5525 21.4947 22.5121 21.4518C22.4717 21.4089 22.4502 21.3925 22.4502 21.3925Z" fill="black"/>
<path d="M22.5803 20.8709L22.6523 20.9164C22.6965 20.9467 22.7622 20.9858 22.8392 21.0351C22.992 21.1348 23.1978 21.2611 23.41 21.3748C23.6221 21.4884 23.8393 21.5932 24.0047 21.6728L24.203 21.7713L24.2788 21.8104C24.2788 21.8104 24.2472 21.8104 24.1954 21.7953C24.1437 21.7801 24.0692 21.7662 23.9782 21.741C23.8873 21.7157 23.7876 21.6804 23.679 21.6387C23.6259 21.616 23.5703 21.5945 23.5148 21.568L23.3494 21.4846C23.2963 21.4543 23.242 21.424 23.1902 21.3912C23.1385 21.3583 23.0892 21.3243 23.0412 21.2914C22.9554 21.2296 22.8732 21.163 22.795 21.0919C22.7268 21.03 22.6687 20.9732 22.6371 20.9353L22.5803 20.8709Z" fill="black"/>
<path d="M22.6392 20.2837C22.6392 20.2837 22.6644 20.2976 22.7086 20.3266C22.7528 20.3557 22.816 20.3936 22.8892 20.4415C23.0382 20.5362 23.2365 20.6575 23.441 20.7661C23.6456 20.8747 23.859 20.9706 24.0194 21.0477L24.2113 21.1424C24.2581 21.1651 24.2846 21.1803 24.2846 21.1803C24.2846 21.1803 24.2543 21.1803 24.2038 21.1651C24.1532 21.15 24.0775 21.1399 23.9941 21.1146C23.8957 21.0883 23.7987 21.0567 23.7037 21.0199C23.6519 20.9997 23.5976 20.9795 23.5446 20.9542C23.4915 20.929 23.4372 20.9037 23.3829 20.8759C23.3286 20.8482 23.2781 20.8179 23.2276 20.7863C23.1771 20.7547 23.1304 20.7219 23.0837 20.6916C23.0005 20.6322 22.9213 20.5677 22.8463 20.4984C22.7793 20.4378 22.7288 20.3822 22.6935 20.3443C22.6581 20.3064 22.6392 20.2837 22.6392 20.2837Z" fill="black"/>
<path d="M22.7231 19.7231L22.7888 19.7622L22.9593 19.8695C23.1277 19.9789 23.3018 20.0792 23.4808 20.1701C23.674 20.2673 23.8773 20.3544 24.0289 20.4226C24.1804 20.4908 24.2814 20.5489 24.2814 20.5489C24.1887 20.5348 24.0968 20.5158 24.0061 20.4921C23.8061 20.4417 23.6118 20.3706 23.4265 20.2799C23.3773 20.2534 23.3268 20.2269 23.2788 20.1979C23.2317 20.1705 23.1862 20.1405 23.1424 20.1082C23.0636 20.0526 22.9889 19.9914 22.9189 19.9251C22.8485 19.8629 22.7831 19.7953 22.7231 19.7231Z" fill="black"/>
<path d="M22.9309 19.1826C22.9309 19.1826 23.0168 19.2318 23.1393 19.3088C23.2618 19.3859 23.4234 19.4831 23.5926 19.5702C23.7618 19.6574 23.9336 19.7394 24.0624 19.8051C24.1912 19.8708 24.2783 19.92 24.2783 19.92C24.1969 19.9098 24.1163 19.8937 24.0371 19.872C23.8621 19.8271 23.6927 19.7627 23.532 19.6801C23.4891 19.6561 23.4449 19.6334 23.4057 19.6069C23.3648 19.5824 23.3252 19.5558 23.287 19.5273C23.2189 19.478 23.1544 19.424 23.0938 19.3657C23.035 19.3088 22.9805 19.2476 22.9309 19.1826Z" fill="black"/>
</g>
<path d="M21.6215 23.2652C20.9901 23.3788 20.365 23.7009 19.7437 24.1668C19.7054 24.1921 19.674 24.2266 19.6523 24.267C19.6305 24.3074 19.6191 24.3526 19.6191 24.3985C19.6191 24.4445 19.6305 24.4896 19.6523 24.5301C19.674 24.5705 19.7054 24.6049 19.7437 24.6303C20.4937 25.1819 21.3032 25.6478 22.1569 26.0193C22.3782 26.1036 22.6238 26.0968 22.8401 26.0004C23.3693 25.7285 23.855 25.3791 24.2809 24.9636C24.3153 24.9304 24.3419 24.8899 24.3585 24.8451C24.3752 24.8002 24.3816 24.7522 24.3772 24.7046C24.3728 24.657 24.3578 24.6109 24.3333 24.5699C24.3088 24.5288 24.2753 24.4938 24.2355 24.4674C23.6464 24.0294 23.0113 23.6572 22.3413 23.3574C22.1123 23.2688 21.8653 23.2372 21.6215 23.2652Z" fill="#3EC492"/>
<g opacity="0.2">
<path d="M20.082 24.3992L20.1894 24.4308C20.2563 24.4535 20.3548 24.4825 20.4684 24.5267C20.7479 24.6323 21.0189 24.7589 21.2792 24.9056C21.5393 25.0533 21.7868 25.2222 22.0192 25.4107C22.125 25.4957 22.2261 25.5863 22.3222 25.6822L21.9775 25.4688C21.7716 25.3425 21.4964 25.1746 21.2198 25.0167C20.9433 24.8589 20.6566 24.7061 20.4419 24.5924L20.1805 24.4586C20.1136 24.4207 20.082 24.3992 20.082 24.3992Z" fill="black"/>
<path d="M20.6846 24.0532C20.6846 24.0532 20.7237 24.0633 20.7919 24.0848C20.8601 24.1062 20.9573 24.1365 21.071 24.1795C21.3501 24.2849 21.6207 24.4115 21.8804 24.5583C22.1412 24.7057 22.3891 24.8747 22.6217 25.0634C22.7268 25.1492 22.8275 25.2402 22.9235 25.3362L22.58 25.1215C22.3742 24.9952 22.0989 24.8273 21.8223 24.6694C21.5458 24.5116 21.2579 24.36 21.0445 24.2464L20.7919 24.1075L20.6846 24.0532Z" fill="black"/>
<path d="M21.2021 23.7589C21.2021 23.7589 21.2413 23.769 21.3095 23.7905C21.3777 23.812 21.4749 23.8423 21.5886 23.8852C21.8674 23.9912 22.138 24.1178 22.398 24.2641C22.6586 24.4118 22.9065 24.5807 23.1393 24.7692C23.2444 24.855 23.3451 24.946 23.4411 25.0419L23.0976 24.8273C22.8918 24.701 22.6165 24.533 22.3399 24.3752C22.0634 24.2173 21.7767 24.0658 21.5633 23.9521L21.3107 23.8145L21.2021 23.7589Z" fill="black"/>
<path d="M21.7666 23.5177L21.8651 23.5455C21.927 23.5657 22.0166 23.5922 22.1177 23.6314C22.3746 23.7273 22.6237 23.8429 22.8627 23.9774C23.1013 24.1126 23.3281 24.2676 23.5408 24.4408C23.6373 24.5201 23.7296 24.6044 23.8174 24.6934L23.729 24.6403L23.4991 24.5002C23.311 24.3827 23.0572 24.2312 22.8008 24.0872C22.5445 23.9433 22.2843 23.8018 22.0886 23.697L21.8525 23.5707L21.7666 23.5177Z" fill="black"/>
</g>
<path d="M15.4873 22.2978C12.4566 20.5299 8.71751 18.6547 8.7112 18.6534L8.21997 19.2242C8.32478 19.8922 8.66574 20.487 8.91198 20.9075C9.54193 21.9652 10.3668 22.8937 11.3428 23.644C12.8216 24.7539 14.1046 25.2856 15.8889 26.0117C18.0356 26.8956 20.7506 26.3766 21.1926 25.8564C21.1888 25.8564 17.8955 23.7008 15.4873 22.2978Z" fill="#455A64"/>
<path d="M21.1887 25.8564C21.0625 25.7793 17.163 23.6187 15.2536 22.4734C13.4415 21.3836 9.1594 18.8592 8.70605 18.6534C9.08489 18.7797 12.4553 20.5312 15.4822 22.2978C17.8954 23.7008 20.1431 25.0785 21.1887 25.8564Z" fill="#37474F"/>
<path d="M36.4345 25.5445L32.2988 23.1566L34.5958 21.8307L36.8322 23.2425L36.4345 25.5445Z" fill="#3EC492"/>
<path opacity="0.35" d="M36.4345 25.5445L32.2988 23.1566L34.5958 21.8307L36.8322 23.2425L36.4345 25.5445Z" fill="black"/>
<path d="M34.6943 24.9775L35.2891 23.7981L33.8786 22.9798C33.429 22.7209 32.8305 22.75 32.1726 23.1288C30.7772 23.9357 29.647 26.013 29.647 27.7708C29.647 28.6914 29.9576 29.3405 30.4539 29.636L30.4741 29.6473L31.9225 30.4833L32.5539 29.2395C33.7334 28.3353 34.6489 26.5459 34.6943 24.9775Z" fill="#37474F"/>
<path d="M34.6943 24.9775L35.2891 23.7981L33.8786 22.9798C33.429 22.7209 32.8305 22.75 32.1726 23.1288C30.7772 23.9357 29.647 26.013 29.647 27.7708C29.647 28.6914 29.9576 29.3405 30.4539 29.636L30.4741 29.6473L31.9225 30.4833L32.5539 29.2395C33.7334 28.3353 34.6489 26.5459 34.6943 24.9775Z" fill="#263238"/>
<path d="M36.168 25.7037C36.168 27.219 35.3257 28.973 34.1993 29.9428C34.0268 30.0913 33.8413 30.2241 33.645 30.3394C32.2496 31.1463 31.1194 30.3735 31.1194 28.6157C31.1194 27.2885 31.7647 25.7756 32.6827 24.7692L32.6903 24.7616C32.9671 24.4523 33.2894 24.187 33.6462 23.9749C35.0366 23.1743 36.168 23.9459 36.168 25.7037Z" fill="#37474F"/>
<path d="M33.6413 25.0406C34.5252 24.5279 35.2488 25.0621 35.2488 26.234C35.2488 27.4058 34.529 28.7709 33.6413 29.2836C32.7535 29.7963 32.0325 29.2621 32.0325 28.0903C32.0325 26.9184 32.7523 25.5533 33.6413 25.0406Z" fill="#455A64"/>
<path d="M34.3676 26.8376C34.307 27.421 33.9319 28.0386 33.5304 28.2166C33.4623 28.2551 33.3842 28.2723 33.3063 28.2657C33.2283 28.2592 33.1542 28.2293 33.0935 28.18C32.952 28.0537 32.88 27.8138 32.9141 27.4867C32.976 26.9033 33.3498 26.2858 33.7514 26.1065C33.8425 26.0613 33.946 26.048 34.0456 26.0686C34.278 26.1254 34.4118 26.4133 34.3676 26.8376Z" fill="#FAFAFA"/>
<path d="M34.2249 26.7631C34.163 27.3453 33.788 27.9628 33.3877 28.1421C33.2966 28.1873 33.193 28.2006 33.0935 28.18C32.952 28.0537 32.88 27.8138 32.9141 27.4867C32.976 26.9033 33.3498 26.2858 33.7514 26.1065C33.8425 26.0613 33.946 26.048 34.0456 26.0686C34.187 26.1898 34.2577 26.4361 34.2249 26.7631Z" fill="#E0E0E0"/>
<path d="M36.1678 25.7036C36.1678 27.2189 35.3256 28.9729 34.1991 29.9428C34.9813 29.0572 35.5319 27.9917 35.8016 26.8414C36.0163 25.8311 35.9355 24.3739 35.0654 24.0064C34.1954 23.6389 33.045 24.4143 32.6851 24.7641C32.9619 24.4548 33.2842 24.1895 33.641 23.9774C35.0364 23.1742 36.1678 23.9458 36.1678 25.7036Z" fill="#455A64"/>
<path d="M38.2415 16.8729C38.1254 16.383 37.8854 16.0509 37.5445 15.6859C36.2312 14.2792 35.5897 13.154 33.8129 14.1377C30.9401 15.7289 27.0658 18.0524 23.8053 22.1779C23.1828 22.9659 20.0409 26.5459 19.2593 28.6813C19.6065 28.6219 21.8947 26.8932 21.8947 26.8932C21.8392 27.1028 22.0778 27.1457 22.0778 27.1457L22.1511 32.3131L22.0753 34.0557C24.64 32.5757 27.7806 30.7624 30.2999 29.3051C30.2999 29.1359 30.31 28.8619 30.3264 28.7129C30.5133 26.7795 31.9301 24.5368 33.4492 23.6617C35.0707 22.726 36.3903 23.5695 36.4345 25.5458C36.4345 25.5458 36.7893 25.3349 37.7048 24.7199C39.056 23.8145 38.9462 19.5475 38.2415 16.8729ZM34.7335 15.6682C34.5745 16.8475 34.3262 18.0131 33.991 19.1548L22.7522 25.6443V25.518C22.7641 25.2363 22.86 24.9645 23.0274 24.7376C23.6462 23.9016 24.2902 23.0594 24.9456 22.2335C25.9841 20.8942 27.1985 19.701 28.5559 18.6863C30.4033 17.332 32.337 16.0994 34.3446 14.9964C34.4018 14.9612 34.4669 14.9408 34.534 14.9371C34.5548 14.9362 34.5754 14.9405 34.5941 14.9495C34.6129 14.9586 34.6291 14.9721 34.6413 14.9889C34.7196 15.0874 34.7865 15.3121 34.7335 15.6682Z" fill="#3EC492"/>
<path opacity="0.4" d="M38.2415 16.8729C38.1254 16.383 37.8854 16.0509 37.5445 15.6859C36.2312 14.2792 35.5897 13.154 33.8129 14.1377C30.9401 15.7289 27.0658 18.0524 23.8053 22.1779C23.1828 22.9659 20.0409 26.5459 19.2593 28.6813C19.6065 28.6219 21.8947 26.8932 21.8947 26.8932C21.8392 27.1028 22.0778 27.1457 22.0778 27.1457L22.1511 32.3131L22.0753 34.0557C24.64 32.5757 27.7806 30.7624 30.2999 29.3051C30.2999 29.1359 30.31 28.8619 30.3264 28.7129C30.5133 26.7795 31.9301 24.5368 33.4492 23.6617C35.0707 22.726 36.3903 23.5695 36.4345 25.5458C36.4345 25.5458 36.7893 25.3349 37.7048 24.7199C39.056 23.8145 38.9462 19.5475 38.2415 16.8729ZM34.7335 15.6682C34.5745 16.8475 34.3262 18.0131 33.991 19.1548L22.7522 25.6443V25.518C22.7641 25.2363 22.86 24.9645 23.0274 24.7376C23.6462 23.9016 24.2902 23.0594 24.9456 22.2335C25.9841 20.8942 27.1985 19.701 28.5559 18.6863C30.4033 17.332 32.337 16.0994 34.3446 14.9964C34.4018 14.9612 34.4669 14.9408 34.534 14.9371C34.5548 14.9362 34.5754 14.9405 34.5941 14.9495C34.6129 14.9586 34.6291 14.9721 34.6413 14.9889C34.7196 15.0874 34.7865 15.3121 34.7335 15.6682Z" fill="white"/>
<path d="M38.4347 17.7215C38.4499 18.1319 38.2794 18.1976 37.3361 18.757C36.3928 19.3164 35.7715 19.6409 35.7715 19.6409L36.567 20.1183C36.567 20.1183 37.2881 19.7394 38.0382 19.3252C38.2521 19.2179 38.4488 19.0791 38.6216 18.9136C38.5724 18.5032 38.5092 18.1029 38.4347 17.7215Z" fill="#3EC492"/>
<path d="M34.1665 14.6807C32.145 15.7913 30.1983 17.0327 28.3387 18.3971C26.9563 19.4317 25.7191 20.6473 24.6602 22.0112C24.0077 22.8371 23.3658 23.6751 22.7344 24.5254C22.5204 24.8146 22.3997 25.1622 22.3884 25.5218V26.2794L34.3003 19.4023C34.6629 18.2001 34.9285 16.9709 35.0946 15.7263C35.226 14.8487 34.7789 14.3461 34.1665 14.6807ZM34.7335 15.6682C34.5744 16.8475 34.3262 18.013 33.9909 19.1548L22.7521 25.6442V25.518C22.7641 25.2362 22.86 24.9645 23.0274 24.7376C23.6462 23.9016 24.2902 23.0593 24.9456 22.2335C25.9841 20.8941 27.1985 19.701 28.5559 18.6863C30.4033 17.3319 32.3369 16.0994 34.3445 14.9964C34.4017 14.9611 34.4668 14.9407 34.5339 14.9371C34.5547 14.9362 34.5754 14.9404 34.5941 14.9495C34.6128 14.9585 34.629 14.972 34.6413 14.9888C34.7196 15.0873 34.7865 15.3121 34.7335 15.6682Z" fill="#37474F"/>
<path opacity="0.3" d="M22.751 25.5218C22.7624 25.2401 22.8579 24.9683 23.025 24.7414C23.645 23.9054 24.2878 23.0631 24.9432 22.2385C25.9807 20.8983 27.1952 19.705 28.5535 18.6913C30.4003 17.3357 32.334 16.1027 34.3421 15.0002C34.399 14.9651 34.4636 14.9447 34.5303 14.9408C34.5514 14.9403 34.5723 14.9447 34.5914 14.9537C34.6104 14.9627 34.6271 14.976 34.6401 14.9926C34.7197 15.0861 34.7866 15.3134 34.7336 15.6682C34.5748 16.8476 34.3261 18.0132 33.9898 19.1548L22.751 25.6442V25.5218Z" fill="black"/>
<path opacity="0.5" d="M29.2126 22.9293C29.2953 23.0556 29.3499 23.1981 29.373 23.3473C29.373 23.3473 33.2132 20.9909 34.0517 20.578C34.4851 20.3603 34.9847 20.3139 35.4508 20.448C35.917 20.5821 36.3155 20.8868 36.5671 21.3015C36.3889 20.8396 36.0455 20.4603 35.6036 20.237C34.7752 19.8582 34.3194 20.0918 32.7548 20.9139C31.1902 21.7359 29.2126 22.9293 29.2126 22.9293Z" fill="white"/>
<path opacity="0.5" d="M22.6865 26.5825L28.1481 23.4559C28.2062 23.4994 28.2522 23.5571 28.2818 23.6233C28.3114 23.6896 28.3236 23.7624 28.3173 23.8347L22.6865 26.5825Z" fill="white"/>
<path d="M27.4082 25.0748C27.4031 25.0779 27.3972 25.0796 27.3911 25.0797C27.3851 25.0798 27.3791 25.0783 27.3739 25.0753C27.3686 25.0724 27.3642 25.0681 27.3611 25.0629C27.3581 25.0577 27.3565 25.0518 27.3564 25.0457V24.8841C27.3564 24.7578 27.5383 24.5595 27.7631 24.4295L28.0939 24.2375C28.3187 24.1113 28.5018 24.1012 28.5018 24.2236V24.3499C28.5016 24.377 28.4944 24.4035 28.4809 24.427C28.4674 24.4505 28.4481 24.47 28.4248 24.4838L27.4082 25.0748Z" fill="#37474F"/>
<path opacity="0.5" d="M22.5752 30.9392C22.4603 29.5223 22.4211 27.2771 22.4211 27.2771C22.3858 27.8188 22.3542 30.8217 22.4527 32.0264C22.5512 33.2311 22.6876 33.1705 22.9288 32.9912L28.3386 29.6637L22.9288 32.4229C22.6813 32.5543 22.6585 31.9797 22.5752 30.9392ZM28.8273 23.053L28.5065 23.2311C28.5065 23.2311 28.8285 23.6099 28.8285 24.4232C28.8285 25.4056 28.8386 29.4844 28.8386 29.4844C28.8386 29.4844 29.0205 25.1417 29.1303 24.3272C29.2402 23.5127 28.8273 23.053 28.8273 23.053Z" fill="#3EC492"/>
<path d="M35.6732 15.1517L34.8713 19.1762C34.8713 19.1762 37.0774 17.9715 37.4588 17.748C37.9639 17.45 37.95 17.0181 37.6937 16.6115C37.2738 15.9962 36.7721 15.4409 36.2023 14.9611C36.1585 14.925 36.1061 14.9009 36.0502 14.8912C35.9943 14.8816 35.9369 14.8866 35.8835 14.9058C35.8301 14.925 35.7827 14.9578 35.7458 15.0009C35.7089 15.0441 35.6839 15.096 35.6732 15.1517Z" fill="#37474F"/>
<path d="M22.0753 34.0569L17.9409 31.669L20.2379 29.3795L22.0753 31.2876V34.0569Z" fill="#3EC492"/>
<path opacity="0.35" d="M22.0753 34.0569L17.9409 31.669L20.2379 29.3795L22.0753 31.2876V34.0569Z" fill="black"/>
<path d="M20.3731 33.3434L20.9666 32.164L19.5548 31.3457C19.1065 31.0868 18.508 30.2736 17.85 30.6537C16.4547 31.4594 15.3245 34.3802 15.3245 36.138C15.3245 37.0586 15.6351 37.7076 16.1314 38.0031L16.1503 38.0145L17.6 38.8543L18.2314 37.6104C19.4121 36.6999 20.3276 34.9106 20.3731 33.3434Z" fill="#37474F"/>
<path d="M20.3731 33.3434L20.9666 32.164L19.5548 31.3457C19.1065 31.0868 18.508 30.2736 17.85 30.6537C16.4547 31.4594 15.3245 34.3802 15.3245 36.138C15.3245 37.0586 15.6351 37.7076 16.1314 38.0031L16.1503 38.0145L17.6 38.8543L18.2314 37.6104C19.4121 36.6999 20.3276 34.9106 20.3731 33.3434Z" fill="#263238"/>
<path d="M21.8454 34.0683C21.8454 35.5836 21.0044 37.3376 19.878 38.3087C19.7058 38.4571 19.5207 38.5898 19.3249 38.7052C17.9283 39.5109 16.7993 38.7393 16.7993 36.9815C16.7993 35.6531 17.4446 34.1415 18.3627 33.1351L18.3702 33.1275C18.6467 32.8174 18.9691 32.5517 19.3262 32.3395C20.7152 31.5402 21.8454 32.3105 21.8454 34.0683Z" fill="#37474F"/>
<path d="M19.3203 33.4053C20.2043 32.8927 20.9279 33.4268 20.9279 34.5987C20.9279 35.7705 20.2081 37.1369 19.3203 37.6496C18.4326 38.1623 17.7153 37.6281 17.7153 36.455C17.7153 35.2818 18.4313 33.918 19.3203 33.4053Z" fill="#455A64"/>
<path d="M20.0463 35.2035C19.9882 35.7856 19.6094 36.4044 19.2091 36.5812C19.141 36.6197 19.0629 36.6369 18.985 36.6303C18.907 36.6238 18.8329 36.5939 18.7722 36.5446C18.6307 36.4183 18.5588 36.1771 18.5929 35.8501C18.6547 35.2679 19.0285 34.6491 19.4301 34.4711C19.521 34.4256 19.6246 34.4118 19.7243 34.4319C19.9554 34.4913 20.0905 34.7792 20.0463 35.2035Z" fill="#FAFAFA"/>
<path d="M19.9024 35.1278C19.8418 35.7112 19.4667 36.3287 19.0664 36.5068C18.9754 36.5523 18.8719 36.566 18.7722 36.5459C18.6307 36.4196 18.5588 36.1784 18.5929 35.8514C18.6547 35.2692 19.0285 34.6505 19.4301 34.4724C19.521 34.4269 19.6246 34.4131 19.7243 34.4333C19.862 34.5608 19.9365 34.802 19.9024 35.1278Z" fill="#E0E0E0"/>
<path d="M21.8455 34.0683C21.8455 35.5836 21.0045 37.3376 19.8781 38.3087C20.6598 37.4228 21.2103 36.3574 21.4806 35.2073C21.694 34.1971 21.6144 32.7398 20.7444 32.3724C19.8743 32.0049 18.7239 32.779 18.364 33.13C18.6404 32.82 18.9628 32.5542 19.3199 32.342C20.7153 31.5402 21.8455 32.3105 21.8455 34.0683Z" fill="#455A64"/>
<path d="M21.8987 26.8931L20.4932 26.46C19.9704 26.6254 17.777 27.0421 15.0114 25.8286C13.3572 25.105 12.0969 24.5052 10.6889 23.2954C8.85281 21.7182 8.20121 19.6801 8.01558 19.2545C7.25791 19.795 5.85495 21.0224 4.69192 22.0933C3.52889 23.1641 2.37217 24.5759 1.72057 26.4171C1.67638 26.5433 1.57535 26.8818 1.54 27.008C0.575225 30.5249 1.47307 32.3257 2.29767 33.4003C2.64873 33.8587 4.29035 35.0621 5.50894 35.7895C6.51074 36.3762 7.54493 36.9057 8.60657 37.3756C9.23071 37.6519 9.87921 37.8697 10.5437 38.0259C13.8951 38.7659 16.1429 37.3579 16.1429 37.3579C16.1234 37.1719 16.1234 36.9844 16.1429 36.7985C16.1718 36.5492 16.2165 36.302 16.2768 36.0585C16.4325 35.4286 16.6702 34.8219 16.9839 34.2539C17.4613 33.3839 18.1002 32.6211 18.8124 32.1274C18.9059 32.0617 19.0006 32.0011 19.0953 31.9468C20.6334 31.0629 21.9012 31.7738 22.0629 33.5379C22.0755 33.6642 22.073 33.9168 22.073 34.0557L22.1538 32.3143L22.0805 27.147C22.0805 27.147 21.8431 27.1028 21.8987 26.8931Z" fill="#3EC492"/>
<path opacity="0.5" d="M21.8987 26.8931L20.4932 26.46C19.9704 26.6254 17.777 27.0421 15.0114 25.8286C13.3572 25.105 12.0969 24.5052 10.6889 23.2954C8.85281 21.7182 8.20121 19.6801 8.01558 19.2545C7.25791 19.795 5.85495 21.0224 4.69192 22.0933C3.52889 23.1641 2.37217 24.5759 1.72057 26.4171C1.67638 26.5433 1.57535 26.8818 1.54 27.008C0.575225 30.5249 1.47307 32.3257 2.29767 33.4003C2.64873 33.8587 4.29035 35.0621 5.50894 35.7895C6.51074 36.3762 7.54493 36.9057 8.60657 37.3756C9.23071 37.6519 9.87921 37.8697 10.5437 38.0259C13.8951 38.7659 16.1429 37.3579 16.1429 37.3579C16.1234 37.1719 16.1234 36.9844 16.1429 36.7985C16.1718 36.5492 16.2165 36.302 16.2768 36.0585C16.4325 35.4286 16.6702 34.8219 16.9839 34.2539C17.4613 33.3839 18.1002 32.6211 18.8124 32.1274C18.9059 32.0617 19.0006 32.0011 19.0953 31.9468C20.6334 31.0629 21.9012 31.7738 22.0629 33.5379C22.0755 33.6642 22.073 33.9168 22.073 34.0557L22.1538 32.3143L22.0805 27.147C22.0805 27.147 21.8431 27.1028 21.8987 26.8931Z" fill="white"/>
<g opacity="0.5">
<path d="M20.224 27.3414C19.4151 28.3433 18.5016 29.256 17.4989 30.064C16.9986 30.47 16.4771 30.8493 15.9369 31.2005C15.6603 31.3672 15.3926 31.5478 15.1072 31.698L14.6842 31.9304L14.2498 32.1438C13.0847 32.7233 11.803 33.0299 10.5018 33.0404C9.2008 33.0541 7.91266 32.7817 6.72861 32.2423L6.50762 32.14C6.43565 32.1034 6.36493 32.063 6.29295 32.0251L6.07954 31.9089C6.00756 31.8698 5.93937 31.8256 5.86865 31.7827C5.59312 31.6098 5.32945 31.4187 5.07941 31.2106C4.57668 30.7939 4.14544 30.2978 3.80273 29.742C3.46124 29.1829 3.23658 28.5605 3.14229 27.9122C3.095 27.5891 3.08104 27.262 3.10062 26.9361C3.12194 26.6111 3.17009 26.2884 3.24458 25.9713C3.32195 25.6563 3.41981 25.3467 3.53754 25.0444C3.66382 24.7439 3.8002 24.4534 3.94416 24.1605C4.23891 23.586 4.58462 23.0391 4.97712 22.5264C5.37329 22.0184 5.80769 21.5413 6.27653 21.0995C6.51141 20.8797 6.75008 20.6651 6.99506 20.4554C7.24004 20.2458 7.48502 20.04 7.72369 19.824C7.25646 20.266 6.76523 20.6815 6.31063 21.1336C5.8529 21.5821 5.4307 22.0655 5.04784 22.5794C4.66588 23.0927 4.33074 23.6391 4.04645 24.2122C3.90754 24.4989 3.77116 24.7893 3.65624 25.0861C3.54449 25.3836 3.45253 25.6882 3.38096 25.9978C3.2386 26.6164 3.21036 27.2557 3.29761 27.8844C3.39225 28.5112 3.61213 29.1124 3.94416 29.6523C4.27943 30.1906 4.70044 30.6705 5.19053 31.073C5.43495 31.2755 5.69319 31.4607 5.96336 31.6273C6.03155 31.6665 6.09848 31.7094 6.16793 31.7473L6.37756 31.8597C6.44827 31.8963 6.51773 31.9355 6.58844 31.9708L6.80438 32.0706C7.96428 32.6063 9.22834 32.8788 10.506 32.8686C11.7836 32.8583 13.0431 32.5655 14.1942 32.0112L14.6274 31.8054L15.0491 31.5781C15.3345 31.4329 15.6022 31.2573 15.8788 31.0957C17.5053 30.0626 18.9708 28.7955 20.2278 27.3351L20.224 27.3414Z" fill="#3EC492"/>
</g>
<path opacity="0.5" d="M16.0732 30.5564C15.4176 30.9699 14.734 31.3375 14.0275 31.6563C13.323 31.9753 12.5887 32.2236 11.8353 32.3976C11.0778 32.567 10.3005 32.6303 9.52563 32.5857C10.302 32.7007 11.0922 32.6841 11.8631 32.5365C12.6338 32.3851 13.3846 32.1457 14.1007 31.823C14.2775 31.7384 14.4568 31.6576 14.6324 31.5705L15.1514 31.2939C15.3231 31.2005 15.4873 31.0944 15.6565 30.9946C15.7398 30.9441 15.8244 30.8949 15.909 30.8431L16.1528 30.6789C16.8015 30.2447 17.4208 29.768 18.0065 29.252C17.3688 29.7003 16.7374 30.1549 16.0732 30.5564Z" fill="white"/>
<path d="M6.98145 29.9326C6.77182 29.8354 6.48643 29.9326 6.32858 30.1852C6.15053 30.4592 6.19473 30.8052 6.45486 30.9277C6.715 31.0502 7.03827 30.8785 7.16708 30.5779C7.28325 30.3052 7.19612 30.0299 6.98145 29.9326Z" fill="#37474F"/>
<path opacity="0.5" d="M11.8115 24.8196C11.8115 24.8196 8.81614 22.9254 7.81728 20.1347C6.71724 20.9428 5.76319 21.9327 4.9962 23.0618C3.84959 24.7969 3.57178 26.2933 3.57178 26.2933C3.57178 26.2933 4.37617 24.0556 5.63013 22.486C6.80705 21.0148 7.65059 20.3898 8.23021 21.4278C8.67597 22.2221 10.281 24.0304 11.8115 24.8196Z" fill="white"/>
<path d="M23.4985 27.2202C23.3078 28.1307 22.2988 28.3226 21.5437 28.2999C21.2603 28.3037 20.9787 28.2553 20.7128 28.1572C20.4211 27.9892 20.5562 27.6394 20.7128 27.4374C20.9767 27.0939 22.165 26.4069 22.91 26.3829C23.347 26.3678 23.6324 26.5812 23.4985 27.2202Z" fill="#3EC492"/>
<path opacity="0.3" d="M23.4985 27.2202C23.3078 28.1307 22.2988 28.3226 21.5437 28.2999C21.2603 28.3037 20.9787 28.2553 20.7128 28.1572C20.4211 27.9892 20.5562 27.6394 20.7128 27.4374C20.9767 27.0939 22.165 26.4069 22.91 26.3829C23.347 26.3678 23.6324 26.5812 23.4985 27.2202Z" fill="black"/>
<path d="M23.4985 27.2202C23.3078 28.1307 22.2988 28.3226 21.5437 28.2999C21.2603 28.3037 20.9787 28.2553 20.7128 28.1572C20.4211 27.9892 20.5562 27.6394 20.7128 27.4374C20.565 27.7152 21.3442 27.8869 22.0362 27.6382C22.7282 27.3894 23.2472 26.854 22.91 26.3829C23.347 26.3678 23.6324 26.5812 23.4985 27.2202Z" fill="#3EC492"/>
<path opacity="0.35" d="M23.4985 27.2202C23.3078 28.1307 22.2988 28.3226 21.5437 28.2999C21.2603 28.3037 20.9787 28.2553 20.7128 28.1572C20.4211 27.9892 20.5562 27.6394 20.7128 27.4374C20.565 27.7152 21.3442 27.8869 22.0362 27.6382C22.7282 27.3894 23.2472 26.854 22.91 26.3829C23.347 26.3678 23.6324 26.5812 23.4985 27.2202Z" fill="black"/>
<path d="M23.4985 27.2201C23.3078 28.1306 22.2988 28.3225 21.5437 28.2998C22.3014 28.2783 22.8949 27.8452 23.1209 27.3729C23.347 26.9006 23.1752 26.4422 22.91 26.3829C23.347 26.3677 23.6324 26.5811 23.4985 27.2201Z" fill="#37474F"/>
<path d="M7.74653 21.4897C9.66218 24.5204 13.5402 26.7239 17.9688 27.6559C18.2378 27.7127 18.3476 27.9552 18.109 28.1016C17.6948 28.3542 17.0003 28.4906 16.1289 28.3062C12.1499 27.0598 9.41215 25.4902 7.56468 23.2828C7.35168 23.0303 7.1892 22.7392 7.08609 22.4254C6.99045 22.0911 7.01411 21.7339 7.15302 21.4152C7.27803 21.1752 7.59878 21.2573 7.74653 21.4897Z" fill="#37474F"/>
<path d="M8.77967 37.4539L8.87943 37.4955L8.92489 37.5132L9.02844 37.5549L9.06758 37.57L9.19386 37.618L9.21154 37.6243C9.3656 37.6812 9.52092 37.7342 9.6712 37.7834L9.82147 37.8314C9.31635 37.6319 9.74317 36.6406 9.36812 36.2731C8.97413 35.888 7.258 35.3311 5.73508 34.4509C4.53419 33.7486 3.41228 32.9193 2.38868 31.9771C2.04015 31.6349 2.07299 32.4343 1.71436 32.4153C1.8678 32.7657 2.06283 33.0964 2.29524 33.4003C2.64629 33.8587 4.28792 35.0621 5.50651 35.7895C6.5083 36.3762 7.5425 36.9057 8.60414 37.3756L8.73926 37.4349L8.77967 37.4539Z" fill="#455A64"/>
<path d="M15.0899 36.0003C14.9422 36.0003 14.7199 36.0875 14.038 36.2655C13.4129 36.4284 13.269 36.5055 13.0568 36.6886C12.8775 36.8426 12.4052 37.32 12.1729 37.4765C11.794 37.7291 12.2145 37.8276 13.3182 37.7089C14.4219 37.5902 14.7641 37.2177 14.9826 36.8502C15.201 36.4827 15.4271 36.0104 15.0899 36.0003Z" fill="#37474F"/>
<path d="M1.49693 31.0894C1.50231 31.0814 1.50696 31.0729 1.51082 31.0641C1.5315 31.0107 1.53717 30.9526 1.52724 30.8962C1.47188 30.3649 1.33782 29.8448 1.12946 29.353C1.09394 29.9151 1.12616 30.4794 1.22543 31.0338C1.32646 31.1336 1.43127 31.1904 1.49693 31.0894Z" fill="#37474F"/>
<path d="M12.1584 33.8928C11.7669 34.0759 11.2126 34.3221 10.7554 34.557C10.4397 34.7199 10.1733 34.9043 10.1834 35.1884C10.2074 35.7945 11.3691 35.8829 11.796 35.8867C12.5081 35.8778 13.2176 35.7974 13.9137 35.6468C15.1651 35.3374 15.775 34.7628 15.8558 33.9433C15.9127 33.375 15.6033 33.0593 15.0679 33.0113C14.0778 32.9558 13.2153 33.4028 12.1584 33.8928Z" fill="#F5F5F5"/>
<path d="M2.88691 24.1403C2.40354 24.8407 2.01144 25.5998 1.72009 26.3994C1.72009 26.4158 1.70873 26.431 1.70368 26.4474C1.65569 26.5888 1.56603 26.8906 1.5332 27.0093C1.38913 27.5282 1.27903 28.0559 1.20361 28.5891C1.21372 28.6269 1.22382 28.6648 1.23518 28.7002C1.31726 28.9527 1.50416 29.2495 1.76934 29.2053C1.84505 29.1925 1.9141 29.1541 1.96508 29.0967C2.07377 28.9521 2.14061 28.7804 2.15828 28.6004L2.75306 24.8916C2.77705 24.7464 2.86545 24.2552 2.88691 24.1403Z" fill="#F5F5F5"/>
<path d="M27.2176 9.02968L27.205 9.0221L26.8931 8.84152C26.4342 8.56521 25.9414 8.34958 25.427 8.20002C24.6276 7.9803 23.5985 7.9121 22.1096 8.19118C20.1599 8.55992 18.3288 9.38831 16.6216 10.3821C15.7389 10.8993 14.899 11.4863 14.1099 12.1374L23.6869 17.6672L26.4738 19.281C29.0335 16.8817 31.6955 15.3146 33.8132 14.1414C34.658 13.673 35.2464 13.6831 35.7718 13.9722L27.2176 9.02968Z" fill="#3EC492"/>
<path opacity="0.6" d="M27.2176 9.02968L27.205 9.0221L26.8931 8.84152C26.4342 8.56521 25.9414 8.34958 25.427 8.20002C24.6276 7.9803 23.5985 7.9121 22.1096 8.19118C20.1599 8.55992 18.3288 9.38831 16.6216 10.3821C15.7389 10.8993 14.899 11.4863 14.1099 12.1374L23.6869 17.6672L26.4738 19.281C29.0335 16.8817 31.6955 15.3146 33.8132 14.1414C34.658 13.673 35.2464 13.6831 35.7718 13.9722L27.2176 9.02968Z" fill="white"/>
<path d="M23.6865 17.6634L17.6529 14.1794L14.7952 12.5289L14.1095 12.1336C13.1534 12.9205 12.2782 13.8008 11.4968 14.7615L11.3554 14.9383C11.3465 14.9497 11.3377 14.9598 11.3301 14.9711C10.8957 15.5217 9.23769 17.426 8.01025 19.2532C8.19715 19.6851 8.84875 21.7195 10.6823 23.2942C11.1811 23.7242 11.7136 24.1136 12.2747 24.4585C13.1195 24.98 13.9883 25.3778 15.0048 25.8235C17.7704 27.0333 20.0345 26.609 20.4866 26.4549C21.7128 24.6277 23.3708 22.7221 23.8052 22.1741C24.6202 21.1401 25.5122 20.1692 26.4735 19.2697L23.6865 17.6634ZM23.5236 21.948C23.434 22.0604 23.2875 22.2372 23.1031 22.4607C22.4427 23.2576 21.2266 24.7224 20.2606 26.1443C19.7947 26.2508 19.3178 26.3009 18.8399 26.2933C17.5699 26.2833 16.3155 26.0116 15.1551 25.4952C14.2295 25.1116 13.332 24.6635 12.4692 24.1541C11.9244 23.8172 11.4075 23.4371 10.9235 23.0176C9.35513 21.669 8.68332 19.9554 8.4295 19.3101C8.4295 19.3101 8.4295 19.3012 8.4295 19.2962C9.36649 17.9248 10.5434 16.5067 11.1862 15.7301C11.3781 15.5002 11.5284 15.3171 11.6244 15.1959L11.6547 15.1568L11.6484 15.1643L11.7797 14.9875C12.4932 14.1115 13.2858 13.3028 14.1474 12.5718L25.8699 19.3416C25.031 20.1576 24.2472 21.0283 23.5236 21.948Z" fill="#37474F"/>
<path opacity="0.3" d="M25.8701 19.3454C25.0313 20.1602 24.2475 21.0296 23.5238 21.9481C23.4342 22.0604 23.2877 22.2372 23.1033 22.4607C22.4429 23.2576 21.2268 24.7224 20.2608 26.1443C19.7949 26.2509 19.3179 26.3009 18.8401 26.2933C17.5701 26.2833 16.3157 26.0117 15.1553 25.4952C14.2297 25.1117 13.3322 24.6635 12.4694 24.1541C11.9246 23.8172 11.4077 23.4372 10.9237 23.0176C9.35531 21.669 8.68351 19.9554 8.42969 19.3101C8.42969 19.3101 8.42969 19.3012 8.42969 19.2962C9.36668 17.9248 10.5436 16.5067 11.1864 15.7301C11.3783 15.5002 11.5286 15.3171 11.6245 15.1959L11.6549 15.1568L11.6485 15.1643L11.7799 14.9876C12.4934 14.1115 13.286 13.3028 14.1476 12.5718L25.8701 19.3454Z" fill="black"/>
<path d="M7.88387 12.9464C7.8138 12.7602 7.67781 12.6062 7.50172 12.5137C7.40017 12.4601 7.28842 12.4287 7.17384 12.4216C7.05927 12.4144 6.94447 12.4316 6.83703 12.472C6.44893 12.6207 6.28834 13.162 6.38053 13.5546C6.19168 13.1992 5.71138 12.8943 5.32328 13.0401C5.21603 13.0802 5.11848 13.1426 5.03699 13.223C4.9555 13.3035 4.89192 13.4003 4.85042 13.507C4.77968 13.6933 4.77968 13.8991 4.85042 14.0854C5.07644 14.6877 5.75897 14.8096 6.37458 15.0297L7.01696 15.2572L7.35599 14.6624C7.6757 14.0914 8.10841 13.5486 7.88387 12.9464Z" fill="#3EC492"/>
<path d="M36.1532 9.8475C36.2393 9.66807 36.2562 9.46318 36.2007 9.27204C36.1688 9.16185 36.1138 9.05969 36.0395 8.97228C35.9652 8.88488 35.8731 8.81423 35.7695 8.76498C35.3963 8.58505 34.8922 8.84676 34.6736 9.18579C34.7985 8.80215 34.6855 8.24602 34.3123 8.06758C34.2086 8.01806 34.0957 7.99101 33.9809 7.98819C33.8661 7.98537 33.752 8.00685 33.6461 8.05122C33.4628 8.12849 33.3141 8.27027 33.2282 8.44973C32.9502 9.02966 33.3353 9.6081 33.6045 10.2044L33.8885 10.8304L34.5546 10.6579C35.1851 10.4899 35.8766 10.4274 36.1532 9.8475Z" fill="#3EC492"/>
</g>
</g>
<defs>
<clipPath id="clip0_147_8305">
<rect width="40" height="41.0409" fill="white" transform="translate(0.288574 0.322815)"/>
</clipPath>
<clipPath id="clip1_147_8305">
<rect width="39.2728" height="32.4537" fill="white" transform="translate(0.288574 7.53708)"/>
</clipPath>
</defs>
</svg>
