<svg width="14" height="15" viewBox="0 0 14 15" fill="none" xmlns="http://www.w3.org/2000/svg">
<path fill-rule="evenodd" clip-rule="evenodd" d="M6.18233 1.63635H7.86233C8.73669 1.63635 9.42233 1.63635 9.96996 1.68817C10.528 1.74163 10.9851 1.85181 11.3881 2.09835C11.8103 2.35702 12.1653 2.71198 12.424 3.13417C12.6705 3.53672 12.7807 3.99435 12.8341 4.55235C12.886 5.09999 12.886 5.78563 12.886 6.66053V7.24253C12.886 7.8649 12.886 8.35308 12.8587 8.74744C12.8314 9.14835 12.7752 9.48217 12.6471 9.7909C12.4894 10.1714 12.2584 10.5172 11.9672 10.8085C11.6759 11.0997 11.3301 11.3307 10.9496 11.4884C10.5105 11.6705 10.0109 11.7109 9.32578 11.7229C9.15667 11.7222 8.9876 11.7287 8.81906 11.7425C8.71106 11.7545 8.66906 11.772 8.64451 11.7862C8.61887 11.8014 8.58342 11.8287 8.52233 11.9127C8.45633 12.0033 8.3816 12.1287 8.26269 12.3294L7.96706 12.8291C7.54542 13.542 6.49978 13.542 6.0776 12.8291L5.78196 12.3294C5.70136 12.1869 5.61473 12.0479 5.52233 11.9127C5.46124 11.8287 5.42578 11.8014 5.40015 11.7862C5.3756 11.772 5.3336 11.7545 5.2256 11.7425C5.10996 11.73 4.95833 11.7262 4.71833 11.7224C4.03378 11.7109 3.53415 11.6705 3.09506 11.4884C2.71452 11.3307 2.36875 11.0997 2.0775 10.8085C1.78625 10.5172 1.55522 10.1714 1.3976 9.7909C1.26942 9.48217 1.21324 9.14835 1.18542 8.74744C1.15869 8.35308 1.15869 7.8649 1.15869 7.24199V6.66053C1.15869 5.78563 1.15869 5.10053 1.21051 4.55235C1.26396 3.99435 1.37415 3.53672 1.62069 3.13417C1.87936 2.71198 2.23432 2.35702 2.65651 2.09835C3.05906 1.85181 3.51669 1.74163 4.07469 1.68817C4.62233 1.63635 5.30796 1.63635 6.18287 1.63635M4.15269 2.50308C3.65415 2.55053 3.33724 2.64108 3.08415 2.79599C2.77199 2.98721 2.50955 3.24965 2.31833 3.56181C2.16342 3.8149 2.07287 4.13181 2.02542 4.6309C1.97742 5.1349 1.97687 5.78181 1.97687 6.68235V7.22781C1.97687 7.86872 1.97687 8.32908 2.00196 8.69235C2.02651 9.05181 2.07342 9.28635 2.1536 9.47835C2.38888 10.0463 2.84015 10.4976 3.40815 10.7329C3.68906 10.8496 4.04796 10.8933 4.73306 10.9053H4.74996C4.96706 10.9091 5.15742 10.9124 5.3156 10.9298C5.48524 10.9489 5.6516 10.9865 5.81142 11.0793C5.9696 11.172 6.08415 11.2947 6.18342 11.4311C6.2756 11.5576 6.36996 11.7174 6.47687 11.898L6.78178 12.4129C6.80728 12.4537 6.84273 12.4874 6.88481 12.5107C6.92689 12.534 6.97421 12.5462 7.02233 12.5462C7.07044 12.5462 7.11776 12.534 7.15984 12.5107C7.20192 12.4874 7.23738 12.4537 7.26287 12.4129L7.56778 11.898C7.67469 11.7174 7.7696 11.5576 7.86124 11.4311C7.96051 11.2947 8.07506 11.1714 8.23324 11.0793C8.39306 10.9865 8.55942 10.9484 8.72905 10.9298C8.88724 10.9124 9.0776 10.9091 9.29469 10.9053H9.31215C9.99669 10.8933 10.3556 10.8496 10.6365 10.7329C11.2045 10.4976 11.6558 10.0463 11.8911 9.47835C11.9712 9.28635 12.0181 9.05181 12.0427 8.69235C12.0678 8.32908 12.0678 7.86872 12.0678 7.22781V6.68235C12.0678 5.78181 12.0678 5.1349 12.0192 4.63035C11.9718 4.13181 11.8812 3.8149 11.7263 3.56181C11.5352 3.24991 11.273 2.98767 10.9611 2.79653C10.708 2.64163 10.3911 2.55108 9.89196 2.50363C9.38796 2.45563 8.74106 2.45508 7.84051 2.45508H6.20415C5.3036 2.45508 4.65669 2.45508 4.15215 2.50363M4.43142 5.86363C4.43142 5.75513 4.47452 5.65107 4.55124 5.57435C4.62796 5.49764 4.73201 5.45453 4.84051 5.45453H9.20415C9.31264 5.45453 9.4167 5.49764 9.49342 5.57435C9.57014 5.65107 9.61324 5.75513 9.61324 5.86363C9.61324 5.97212 9.57014 6.07618 9.49342 6.1529C9.4167 6.22962 9.31264 6.27272 9.20415 6.27272H4.84051C4.73201 6.27272 4.62796 6.22962 4.55124 6.1529C4.47452 6.07618 4.43142 5.97212 4.43142 5.86363ZM4.43142 7.77272C4.43142 7.66422 4.47452 7.56016 4.55124 7.48345C4.62796 7.40673 4.73201 7.36363 4.84051 7.36363H7.84051C7.94901 7.36363 8.05306 7.40673 8.12978 7.48345C8.2065 7.56016 8.2496 7.66422 8.2496 7.77272C8.2496 7.88121 8.2065 7.98527 8.12978 8.06199C8.05306 8.13871 7.94901 8.18181 7.84051 8.18181H4.84051C4.73201 8.18181 4.62796 8.13871 4.55124 8.06199C4.47452 7.98527 4.43142 7.88121 4.43142 7.77272Z" fill="#3EC492"/>
</svg>
