<svg width="11" height="11" viewBox="0 0 11 11" fill="none" xmlns="http://www.w3.org/2000/svg">
<g clip-path="url(#clip0_147_10396)">
<path fill-rule="evenodd" clip-rule="evenodd" d="M9.32088 5.02046C9.32088 7.32171 7.45547 9.18712 5.15422 9.18712C2.85297 9.18712 0.987549 7.32171 0.987549 5.02046C0.987549 2.71921 2.85297 0.85379 5.15422 0.85379C7.45547 0.85379 9.32088 2.71921 9.32088 5.02046ZM6.83338 3.75796C6.8919 3.81655 6.92477 3.89598 6.92477 3.97879C6.92477 4.0616 6.8919 4.14103 6.83338 4.19962L4.75005 6.28296C4.69145 6.34148 4.61203 6.37435 4.52922 6.37435C4.4464 6.37435 4.36698 6.34148 4.30838 6.28296L3.47505 5.44962C3.44435 5.42101 3.41972 5.38651 3.40264 5.34818C3.38556 5.30985 3.37638 5.26847 3.37564 5.22651C3.3749 5.18455 3.38261 5.14287 3.39833 5.10396C3.41405 5.06505 3.43744 5.0297 3.46712 5.00002C3.49679 4.97035 3.53214 4.94696 3.57105 4.93124C3.60996 4.91552 3.65164 4.9078 3.6936 4.90854C3.73556 4.90928 3.77694 4.91847 3.81527 4.93555C3.85361 4.95263 3.88811 4.97725 3.91672 5.00796L4.52922 5.62046L5.46047 4.68921L6.39172 3.75796C6.45031 3.69944 6.52974 3.66657 6.61255 3.66657C6.69536 3.66657 6.77479 3.69944 6.83338 3.75796Z" fill="#3EC492"/>
</g>
<defs>
<clipPath id="clip0_147_10396">
<rect width="10" height="10" fill="white" transform="translate(0.577148 0.0204468)"/>
</clipPath>
</defs>
</svg>
