<svg width="18" height="19" viewBox="0 0 18 19" fill="none" xmlns="http://www.w3.org/2000/svg">
<circle cx="9" cy="9.5" r="6.75" stroke="#EA5455" stroke-width="1.125" stroke-linecap="round" stroke-linejoin="round"/>
<path d="M7.89775 7.60225C7.67808 7.38258 7.32192 7.38258 7.10225 7.60225C6.88258 7.82192 6.88258 8.17808 7.10225 8.39775L7.89775 7.60225ZM10.1023 11.3977C10.3219 11.6174 10.6781 11.6174 10.8977 11.3977C11.1174 11.1781 11.1174 10.8219 10.8977 10.6023L10.1023 11.3977ZM10.8977 8.39775C11.1174 8.17808 11.1174 7.82192 10.8977 7.60225C10.6781 7.38258 10.3219 7.38258 10.1023 7.60225L10.8977 8.39775ZM7.10225 10.6023C6.88258 10.8219 6.88258 11.1781 7.10225 11.3977C7.32192 11.6174 7.67808 11.6174 7.89775 11.3977L7.10225 10.6023ZM7.10225 8.39775L10.1023 11.3977L10.8977 10.6023L7.89775 7.60225L7.10225 8.39775ZM10.1023 7.60225L7.10225 10.6023L7.89775 11.3977L10.8977 8.39775L10.1023 7.60225Z" fill="#EA5455"/>
</svg>
