<svg width="24" height="24" viewBox="0 0 24 24" fill="none" xmlns="http://www.w3.org/2000/svg">
<path d="M19.8995 0.715027H4.10057C2.23082 0.715027 0.715088 2.23076 0.715088 4.10051V19.8994C0.715088 21.7692 2.23082 23.2849 4.10057 23.2849H19.8995C21.7693 23.2849 23.285 21.7692 23.285 19.8994V4.10051C23.285 2.23076 21.7693 0.715027 19.8995 0.715027Z" fill="#1877F2"/>
<path d="M16.3905 15.2621L16.893 12H13.7632V9.88407C13.7632 8.99362 14.1996 8.1208 15.6014 8.1208H17.0253V5.34364C17.0253 5.34364 15.7337 5.12323 14.4994 5.12323C11.9206 5.12323 10.2367 6.68373 10.2367 9.51378V12H7.37134V15.2621H10.2367V23.2849H13.7632V15.2621H16.3905Z" fill="white"/>
</svg>
