<svg width="10" height="13" viewBox="0 0 10 13" fill="none" xmlns="http://www.w3.org/2000/svg">
<g clip-path="url(#clip0_155_12024)">
<path d="M5.07002 8.36671C4.77467 8.36754 4.49164 8.48521 4.28275 8.694C4.07385 8.9028 3.95606 9.18577 3.95508 9.48112V11.7602C3.95508 12.0559 4.07254 12.3395 4.28164 12.5486C4.49073 12.7577 4.77432 12.8752 5.07002 12.8752C5.36572 12.8752 5.64931 12.7577 5.8584 12.5486C6.06749 12.3395 6.18496 12.0559 6.18496 11.7602V11.7375V11.7385V9.48165C6.18412 9.18639 6.06653 8.90344 5.85785 8.69456C5.64917 8.48568 5.36634 8.36782 5.07108 8.36671H5.07002Z" fill="white"/>
<path d="M9.10982 1.53995H6.96412C6.70418 0.726241 5.95453 0.147064 5.06935 0.147064C4.18418 0.147064 3.43506 0.726241 3.17882 1.52565L3.17512 1.53995H1.05747C0.90962 1.53995 0.767825 1.59868 0.663279 1.70323C0.558733 1.80777 0.5 1.94957 0.5 2.09742C0.5 2.24527 0.558733 2.38706 0.663279 2.49161C0.767825 2.59615 0.90962 2.65489 1.05747 2.65489H3.20318C3.34506 3.13083 3.65318 3.52048 4.05818 3.76453L4.06665 3.7693C2.54671 4.2283 1.45718 5.61165 1.44765 7.25124V10.1778C1.44985 10.4209 1.54738 10.6535 1.71924 10.8254C1.89111 10.9974 2.12359 11.0951 2.36671 11.0974H3.11953V9.50918C3.11953 8.98447 3.32797 8.48126 3.69899 8.11023C4.07002 7.73921 4.57323 7.53077 5.09794 7.53077C5.62265 7.53077 6.12587 7.73921 6.49689 8.11023C6.86791 8.48126 7.07635 8.98447 7.07635 9.50918V11.0974H7.82865C8.07199 11.0955 8.30482 10.998 8.47694 10.826C8.64907 10.6539 8.74669 10.4212 8.74876 10.1778V7.27983C8.74842 6.49832 8.49581 5.73781 8.02851 5.1114C7.56121 4.485 6.90419 4.02618 6.15518 3.80318L6.12976 3.79683C6.54375 3.54982 6.85056 3.15711 6.99006 2.69565L6.99376 2.68189H9.13947C9.28719 2.68147 9.42874 2.6226 9.5332 2.51815C9.63765 2.41369 9.69652 2.27214 9.69694 2.12442C9.69118 1.97119 9.62777 1.8258 9.5194 1.71733C9.41103 1.60886 9.26569 1.54531 9.11247 1.53942H9.11141L9.10982 1.53995ZM5.06935 3.23883C4.84884 3.23883 4.63328 3.17344 4.44992 3.05093C4.26657 2.92842 4.12367 2.75429 4.03928 2.55056C3.95489 2.34683 3.93281 2.12265 3.97583 1.90637C4.01886 1.6901 4.12504 1.49143 4.28097 1.33551C4.4369 1.17958 4.63556 1.07339 4.85184 1.03037C5.06812 0.98735 5.29229 1.00943 5.49602 1.09382C5.69975 1.1782 5.87388 1.32111 5.99639 1.50446C6.1189 1.68781 6.18429 1.90337 6.18429 2.12389L6.18482 2.15565C6.18482 2.75389 5.69988 3.23883 5.10165 3.23883L5.06829 3.2383H5.06988L5.06935 3.23883Z" fill="white"/>
</g>
<defs>
<clipPath id="clip0_155_12024">
<rect width="9" height="12.7059" fill="white" transform="translate(0.5 0.147064)"/>
</clipPath>
</defs>
</svg>
