<svg width="24" height="24" viewBox="0 0 24 24" fill="none" xmlns="http://www.w3.org/2000/svg">
<path d="M23.0655 9.78982H22.1565V9.74299H12V14.257H18.3777C17.4473 16.8847 14.9471 18.7709 12 18.7709C8.26077 18.7709 5.22907 15.7392 5.22907 12C5.22907 8.26071 8.26077 5.22901 12 5.22901C13.7261 5.22901 15.2964 5.88015 16.492 6.94375L19.684 3.75181C17.6685 1.87343 14.9725 0.715027 12 0.715027C5.76792 0.715027 0.715088 5.76786 0.715088 12C0.715088 18.2321 5.76792 23.2849 12 23.2849C18.2322 23.2849 23.285 18.2321 23.285 12C23.285 11.2433 23.2071 10.5047 23.0655 9.78982Z" fill="#FFC107"/>
<path d="M2.01636 6.7474L5.72403 9.46651C6.72726 6.98269 9.15691 5.22901 12.0002 5.22901C13.7262 5.22901 15.2965 5.88015 16.4921 6.94376L19.6841 3.75181C17.6686 1.87343 14.9726 0.715027 12.0002 0.715027C7.6656 0.715027 3.90659 3.16217 2.01636 6.7474Z" fill="#FF3D00"/>
<path d="M12 23.285C14.9149 23.285 17.5635 22.1694 19.566 20.3554L16.0733 17.3999C14.9403 18.2581 13.532 18.771 12 18.771C9.06483 18.771 6.57254 16.8994 5.63364 14.2875L1.95361 17.1228C3.82127 20.7774 7.61414 23.285 12 23.285Z" fill="#4CAF50"/>
<path d="M23.0655 9.78981H22.1565V9.74298H12V14.257H18.3777C17.9308 15.5192 17.1189 16.6076 16.0716 17.4004C16.0722 17.3998 16.0727 17.3998 16.0733 17.3993L19.566 20.3548C19.3189 20.5794 23.285 17.6424 23.285 12C23.285 11.2433 23.2071 10.5047 23.0655 9.78981Z" fill="#1976D2"/>
</svg>
