<svg width="10" height="12" viewBox="0 0 10 12" fill="none" xmlns="http://www.w3.org/2000/svg">
<path fill-rule="evenodd" clip-rule="evenodd" d="M0 5.04951C0 2.47951 2.23857 0.395935 5 0.395935C7.76143 0.395935 10 2.47951 10 5.04951C10 7.59951 8.40429 10.5745 5.91429 11.6388C5.62509 11.7615 5.31415 11.8247 5 11.8247C4.68585 11.8247 4.37491 11.7615 4.08571 11.6388C1.59571 10.5745 0 7.59879 0 5.04951ZM5 6.82451C5.37888 6.82451 5.74224 6.674 6.01015 6.40609C6.27806 6.13818 6.42857 5.77482 6.42857 5.39593C6.42857 5.01705 6.27806 4.65369 6.01015 4.38578C5.74224 4.11787 5.37888 3.96736 5 3.96736C4.62112 3.96736 4.25776 4.11787 3.98985 4.38578C3.72194 4.65369 3.57143 5.01705 3.57143 5.39593C3.57143 5.77482 3.72194 6.13818 3.98985 6.40609C4.25776 6.674 4.62112 6.82451 5 6.82451Z" fill="#28C76F"/>
</svg>
