<svg width="30" height="32" viewBox="0 0 30 32" fill="none" xmlns="http://www.w3.org/2000/svg">
<rect width="30" height="32.0003" rx="15" fill="#FBCDCD" fill-opacity="0.4"/>
<path fill-rule="evenodd" clip-rule="evenodd" d="M8 14.515C8 10.917 11.134 8 15 8C18.866 8 22 10.917 22 14.515C22 18.085 19.766 22.25 16.28 23.74C15.8751 23.9118 15.4398 24.0003 15 24.0003C14.5602 24.0003 14.1249 23.9118 13.72 23.74C10.234 22.25 8 18.084 8 14.515ZM15 17C15.5304 17 16.0391 16.7893 16.4142 16.4142C16.7893 16.0391 17 15.5304 17 15C17 14.4696 16.7893 13.9609 16.4142 13.5858C16.0391 13.2107 15.5304 13 15 13C14.4696 13 13.9609 13.2107 13.5858 13.5858C13.2107 13.9609 13 14.4696 13 15C13 15.5304 13.2107 16.0391 13.5858 16.4142C13.9609 16.7893 14.4696 17 15 17Z" fill="#EA5455"/>
</svg>
