<svg width="32" height="32" viewBox="0 0 32 32" fill="none" xmlns="http://www.w3.org/2000/svg">
<path d="M28.7641 15.8202C28.7641 22.9689 22.969 28.764 15.8203 28.764C8.67161 28.764 2.87646 22.9689 2.87646 15.8202C2.87646 8.67155 8.67161 2.8764 15.8203 2.8764C22.969 2.8764 28.7641 8.67155 28.7641 15.8202ZM8.32172 15.8202C8.32172 19.9616 11.6789 23.3188 15.8203 23.3188C19.9616 23.3188 23.3189 19.9616 23.3189 15.8202C23.3189 11.6789 19.9616 8.32166 15.8203 8.32166C11.6789 8.32166 8.32172 11.6789 8.32172 15.8202Z" fill="#3EC492" fill-opacity="0.4"/>
<path d="M25.1686 15.8202C25.1686 20.9832 20.9832 25.1685 15.8202 25.1685C10.6573 25.1685 6.47192 20.9832 6.47192 15.8202C6.47192 10.6573 10.6573 6.47191 15.8202 6.47191C20.9832 6.47191 25.1686 10.6573 25.1686 15.8202ZM7.80468 15.8202C7.80468 20.2471 11.3934 23.8358 15.8202 23.8358C20.2471 23.8358 23.8358 20.2471 23.8358 15.8202C23.8358 11.3934 20.2471 7.80466 15.8202 7.80466C11.3934 7.80466 7.80468 11.3934 7.80468 15.8202Z" fill="white"/>
<path d="M24.1668 15.8202C24.1668 20.43 20.4299 24.1669 15.8201 24.1669C11.2103 24.1669 7.47339 20.43 7.47339 15.8202C7.47339 11.2105 11.2103 7.47351 15.8201 7.47351C20.4299 7.47351 24.1668 11.2105 24.1668 15.8202ZM12.4299 15.8202C12.4299 17.6926 13.9477 19.2104 15.8201 19.2104C17.6925 19.2104 19.2103 17.6926 19.2103 15.8202C19.2103 13.9479 17.6925 12.43 15.8201 12.43C13.9477 12.43 12.4299 13.9479 12.4299 15.8202Z" fill="#3EC492"/>
<circle cx="15.8203" cy="15.8202" r="3.67255" fill="white"/>
</svg>
