<svg width="52" height="65" viewBox="0 0 52 65" fill="none" xmlns="http://www.w3.org/2000/svg">
<g clip-path="url(#clip0_147_7887)">
<ellipse cx="26" cy="62.8333" rx="4.33333" ry="2.16667" fill="#878787" fill-opacity="0.4"/>
<g filter="url(#filter0_d_147_7887)">
<path d="M26 62.6786C26 62.7427 26.052 62.7946 26.1161 62.7946C26.1802 62.7946 26.2322 62.7427 26.2322 62.6786L26 62.6786ZM26 58.0357L26 62.6786L26.2322 62.6786L26.2322 58.0357L26 58.0357Z" fill="#727272"/>
</g>
<path d="M52 26C52 40.3594 40.3594 52 26 52C11.6406 52 0 40.3594 0 26C0 11.6406 11.6406 0 26 0C40.3594 0 52 11.6406 52 26ZM3.70673 26C3.70673 38.3122 13.6878 48.2933 26 48.2933C38.3122 48.2933 48.2933 38.3122 48.2933 26C48.2933 13.6878 38.3122 3.70673 26 3.70673C13.6878 3.70673 3.70673 13.6878 3.70673 26Z" fill="white"/>
<path d="M27.0294 58.5743C26.5719 59.3667 25.4282 59.3667 24.9707 58.5743L20.596 50.9971C20.1385 50.2048 20.7104 49.2143 21.6254 49.2143L30.3747 49.2143C31.2896 49.2143 31.8615 50.2048 31.404 50.9971L27.0294 58.5743Z" fill="white"/>
<path d="M49.2143 26C49.2143 38.8209 38.8209 49.2143 26.0001 49.2143C13.1792 49.2143 2.78577 38.8209 2.78577 26C2.78577 13.1791 13.1792 2.78571 26.0001 2.78571C38.8209 2.78571 49.2143 13.1791 49.2143 26ZM10.0409 26C10.0409 34.814 17.1861 41.9591 26.0001 41.9591C34.814 41.9591 41.9592 34.814 41.9592 26C41.9592 17.186 34.814 10.0409 26.0001 10.0409C17.1861 10.0409 10.0409 17.186 10.0409 26Z" fill="#3EC492"/>
<ellipse cx="26.0001" cy="26" rx="10.2143" ry="10.2143" fill="white"/>
</g>
<defs>
<filter id="filter0_d_147_7887" x="17.3333" y="58.0357" width="17.5655" height="74.0923" filterUnits="userSpaceOnUse" color-interpolation-filters="sRGB">
<feFlood flood-opacity="0" result="BackgroundImageFix"/>
<feColorMatrix in="SourceAlpha" type="matrix" values="0 0 0 0 0 0 0 0 0 0 0 0 0 0 0 0 0 0 127 0" result="hardAlpha"/>
<feOffset dy="60.6667"/>
<feGaussianBlur stdDeviation="4.33333"/>
<feComposite in2="hardAlpha" operator="out"/>
<feColorMatrix type="matrix" values="0 0 0 0 0 0 0 0 0 0 0 0 0 0 0 0 0 0 1 0"/>
<feBlend mode="normal" in2="BackgroundImageFix" result="effect1_dropShadow_147_7887"/>
<feBlend mode="normal" in="SourceGraphic" in2="effect1_dropShadow_147_7887" result="shape"/>
</filter>
<clipPath id="clip0_147_7887">
<rect width="52" height="65" fill="white"/>
</clipPath>
</defs>
</svg>
