<svg width="25" height="24" viewBox="0 0 25 24" fill="none" xmlns="http://www.w3.org/2000/svg">
<path d="M4.33331 8V6C4.33331 4.89543 5.22874 4 6.33331 4H8.33331" stroke="#AAAAAA" stroke-opacity="0.6667" stroke-width="1.5" stroke-linecap="round" stroke-linejoin="round"/>
<path d="M4.33331 16V18C4.33331 19.1046 5.22874 20 6.33331 20H8.33331" stroke="#AAAAAA" stroke-opacity="0.6667" stroke-width="1.5" stroke-linecap="round" stroke-linejoin="round"/>
<path d="M16.3333 4H18.3333C19.4379 4 20.3333 4.89543 20.3333 6V8" stroke="#AAAAAA" stroke-opacity="0.666667" stroke-width="1.5" stroke-linecap="round" stroke-linejoin="round"/>
<path d="M16.3333 20H18.3333C19.4379 20 20.3333 19.1046 20.3333 18V16" stroke="#AAAAAA" stroke-opacity="0.666667" stroke-width="1.5" stroke-linecap="round" stroke-linejoin="round"/>
<path d="M12.3333 11V11.01" stroke="#AAAAAA" stroke-opacity="0.666667" stroke-width="1.5" stroke-linecap="round" stroke-linejoin="round"/>
<path d="M12.3333 18L8.83329 13C7.9024 11.3175 8.30035 9.21072 9.78082 7.98372C11.2613 6.75673 13.4053 6.75673 14.8858 7.98372C16.3662 9.21072 16.7642 11.3175 15.8333 13L12.3333 18" stroke="#AAAAAA" stroke-opacity="0.666667" stroke-width="1.5" stroke-linecap="round" stroke-linejoin="round"/>
</svg>
