<svg width="14" height="14" viewBox="0 0 14 14" fill="none" xmlns="http://www.w3.org/2000/svg">
<path d="M7.00016 7.29169C6.45868 7.29169 5.93937 7.50679 5.55649 7.88968C5.1736 8.27256 4.9585 8.79187 4.9585 9.33335C4.9585 9.87484 5.1736 10.3941 5.55649 10.777C5.93937 11.1599 6.45868 11.375 7.00016 11.375C7.54165 11.375 8.06095 11.1599 8.44384 10.777C8.82673 10.3941 9.04183 9.87484 9.04183 9.33335C9.04183 8.79187 8.82673 8.27256 8.44384 7.88968C8.06095 7.50679 7.54165 7.29169 7.00016 7.29169ZM6.12516 9.33335C6.12516 9.10129 6.21735 8.87873 6.38144 8.71464C6.54554 8.55054 6.7681 8.45835 7.00016 8.45835C7.23223 8.45835 7.45479 8.55054 7.61888 8.71464C7.78298 8.87873 7.87516 9.10129 7.87516 9.33335C7.87516 9.56542 7.78298 9.78798 7.61888 9.95207C7.45479 10.1162 7.23223 10.2084 7.00016 10.2084C6.7681 10.2084 6.54554 10.1162 6.38144 9.95207C6.21735 9.78798 6.12516 9.56542 6.12516 9.33335Z" fill="#3EC492"/>
<path d="M10.2235 2.98432L8.36908 0.384399L1.5505 5.83157L1.1725 5.82748V5.83332H0.875V12.8333H13.125V5.83332H12.5638L11.4473 2.56723L10.2235 2.98432ZM11.3312 5.83332H5.48158L9.8385 4.34815L10.7263 4.06407L11.3312 5.83332ZM9.07083 3.37748L4.57333 4.91048L8.13517 2.06498L9.07083 3.37748ZM2.04167 10.5986V8.0669C2.28794 7.97998 2.51163 7.83905 2.69635 7.65444C2.88106 7.46982 3.02212 7.2462 3.10917 6.99998H10.8908C10.9778 7.24631 11.1188 7.47004 11.3036 7.65476C11.4883 7.83948 11.712 7.98051 11.9583 8.06748V10.5991C11.712 10.6861 11.4883 10.8271 11.3036 11.0119C11.1188 11.1966 10.9778 11.4203 10.8908 11.6666H3.11033C3.02294 11.4203 2.88165 11.1966 2.69676 11.0118C2.51188 10.827 2.28807 10.6858 2.04167 10.5986Z" fill="#3EC492"/>
</svg>
