<svg width="13" height="8" viewBox="0 0 13 8" fill="none" xmlns="http://www.w3.org/2000/svg">
<path fill-rule="evenodd" clip-rule="evenodd" d="M8.43439 2.14014C8.25713 2.03104 8.11353 1.87499 8.01949 1.6893C7.92545 1.50361 7.88464 1.29551 7.90158 1.08805L6.77026 0.889298L6.86781 0.33393L8.09074 0.548747C8.19401 0.395768 8.33325 0.270476 8.49624 0.183869C8.65923 0.0972611 8.84099 0.0519859 9.02557 0.0520172H9.97984C10.0757 0.0520172 10.1532 0.129543 10.1532 0.225393V2.13394C10.1532 2.22979 10.0754 2.30732 9.97984 2.30732H9.8713V4.6331C9.93238 4.61562 9.9945 4.60124 10.0576 4.58997C10.4796 4.51559 10.9144 4.59145 11.2862 4.80437C11.6581 5.01729 11.9436 5.3538 12.0931 5.75539C12.1813 5.9922 12.0874 6.20843 11.9256 6.33726C11.9395 6.71153 11.8175 7.0782 11.5822 7.36953C11.3468 7.66087 11.0139 7.85717 10.6451 7.92219C10.2762 7.98721 9.89633 7.91655 9.57553 7.72326C9.25473 7.52997 9.01472 7.22712 8.89983 6.87064C8.74732 6.81933 8.61482 6.70431 8.56464 6.53601H5.35478C5.32018 6.9217 5.14251 7.28048 4.85672 7.54178C4.57093 7.80308 4.1977 7.94798 3.81046 7.94798C3.42322 7.94798 3.05 7.80308 2.76421 7.54178C2.47842 7.28048 2.30075 6.9217 2.26614 6.53601H0.982597C0.965676 6.5365 0.948825 6.53365 0.933007 6.52762C0.917189 6.52159 0.902714 6.51251 0.890409 6.50088C0.878104 6.48926 0.86821 6.47532 0.861293 6.45987C0.854377 6.44442 0.850572 6.42776 0.850098 6.41084C0.850098 5.414 1.42153 4.54373 2.27094 4.07773C2.26346 4.05209 2.25966 4.02551 2.25966 3.99879V3.15306C2.25966 2.92875 2.34877 2.71364 2.50737 2.55503C2.66598 2.39642 2.8811 2.30732 3.1054 2.30732H5.64261C5.86692 2.30732 6.08203 2.39642 6.24064 2.55503C6.39925 2.71364 6.48835 2.92875 6.48835 3.15306V3.99879C6.48835 4.07356 6.45865 4.14527 6.40578 4.19814C6.35291 4.25101 6.28121 4.28071 6.20644 4.28071V4.56262H7.96557L8.43439 2.14014ZM8.46174 1.17967C8.46174 1.03013 8.52114 0.886721 8.62688 0.780983C8.73262 0.675246 8.87603 0.615843 9.02557 0.615843H9.58939V1.74349H9.02557C8.87603 1.74349 8.73262 1.68409 8.62688 1.57835C8.52114 1.47261 8.46174 1.3292 8.46174 1.17967ZM7.85619 5.12645H6.20644V5.97218H7.69268L7.85619 5.12645ZM8.26694 5.97218H8.59283C8.69471 5.54225 8.94851 5.16361 9.30748 4.90599V2.30732H8.97623L8.26694 5.97218ZM9.49326 6.83653C9.58838 7.02668 9.74236 7.18102 9.93228 7.2766C10.1222 7.37217 10.3379 7.40386 10.5473 7.36695C10.7567 7.33004 10.9485 7.22651 11.0943 7.07176C11.2401 6.917 11.332 6.71931 11.3564 6.5081L9.49326 6.83653ZM2.82349 3.15306C2.82349 3.07829 2.85319 3.00658 2.90606 2.95371C2.95893 2.90085 3.03063 2.87114 3.1054 2.87114H5.64261C5.71738 2.87114 5.78909 2.90085 5.84196 2.95371C5.89482 3.00658 5.92453 3.07829 5.92453 3.15306V3.71688H2.82349V3.15306ZM1.46298 5.97218C1.67723 5.02355 2.57343 4.28071 3.69347 4.28071H5.64261V5.96316C5.6333 5.96918 5.62241 5.97232 5.61132 5.97218H1.46298ZM4.68947 6.54249C4.72499 6.54362 4.75694 6.54484 4.78532 6.54616C4.74936 6.77899 4.63129 6.99127 4.45244 7.14462C4.27359 7.29797 4.04577 7.38227 3.81018 7.38227C3.57459 7.38227 3.34677 7.29797 3.16792 7.14462C2.98908 6.99127 2.871 6.77899 2.83504 6.54616C2.86342 6.54465 2.89537 6.54343 2.9309 6.54249C3.13838 6.53601 3.41832 6.53601 3.81018 6.53601C4.20204 6.53601 4.48198 6.53601 4.68975 6.54249M11.1038 5.35564C10.9181 5.22556 10.7009 5.14763 10.4748 5.12998C10.2487 5.11233 10.0221 5.15559 9.81841 5.25527C9.61473 5.35495 9.4415 5.5074 9.31674 5.69675C9.19197 5.8861 9.12024 6.10543 9.10901 6.3319L11.5453 5.90227C11.4526 5.68202 11.2996 5.49273 11.1038 5.35564Z" fill="#3EC492"/>
</svg>
