<svg width="24" height="25" viewBox="0 0 24 25" fill="none" xmlns="http://www.w3.org/2000/svg">
<path d="M12 22.6103C17.523 22.6103 22 20.5963 22 18.1103C22 16.8443 20.837 15.7003 18.965 14.8813C17.823 16.9773 16.082 18.7843 13.87 19.7293C13.2787 19.981 12.6426 20.1107 12 20.1107C11.3574 20.1107 10.7213 19.981 10.13 19.7293C7.918 18.7843 6.177 16.9773 5.035 14.8823C3.163 15.6993 2 16.8443 2 18.1103C2 20.5963 6.477 22.6103 12 22.6103Z" fill="#FF9F43"/>
<path fill-rule="evenodd" clip-rule="evenodd" d="M5 9.12535C5 5.52735 8.134 2.61035 12 2.61035C15.866 2.61035 19 5.52735 19 9.12535C19 12.6954 16.766 16.8604 13.28 18.3504C12.8751 18.5221 12.4398 18.6107 12 18.6107C11.5602 18.6107 11.1249 18.5221 10.72 18.3504C7.234 16.8604 5 12.6944 5 9.12535ZM12 11.6104C12.5304 11.6104 13.0391 11.3996 13.4142 11.0246C13.7893 10.6495 14 10.1408 14 9.61035C14 9.07992 13.7893 8.57121 13.4142 8.19614C13.0391 7.82106 12.5304 7.61035 12 7.61035C11.4696 7.61035 10.9609 7.82106 10.5858 8.19614C10.2107 8.57121 10 9.07992 10 9.61035C10 10.1408 10.2107 10.6495 10.5858 11.0246C10.9609 11.3996 11.4696 11.6104 12 11.6104Z" fill="#FF9F43"/>
</svg>
