<svg width="15" height="16" viewBox="0 0 15 16" fill="none" xmlns="http://www.w3.org/2000/svg">
<path fill-rule="evenodd" clip-rule="evenodd" d="M4.99988 8.11035C4.99988 7.44731 5.26327 6.81143 5.73211 6.34258C6.20095 5.87374 6.83684 5.61035 7.49988 5.61035C8.16292 5.61035 8.7988 5.87374 9.26764 6.34258C9.73649 6.81143 9.99988 7.44731 9.99988 8.11035C9.99988 8.77339 9.73649 9.40928 9.26764 9.87812C8.7988 10.347 8.16292 10.6104 7.49988 10.6104C6.83684 10.6104 6.20095 10.347 5.73211 9.87812C5.26327 9.40928 4.99988 8.77339 4.99988 8.11035ZM7.49988 8.73535C7.33412 8.73535 7.17515 8.6695 7.05794 8.55229C6.94073 8.43508 6.87488 8.27611 6.87488 8.11035C6.87488 7.94459 6.94073 7.78562 7.05794 7.66841C7.17515 7.5512 7.33412 7.48535 7.49988 7.48535C7.66564 7.48535 7.82461 7.5512 7.94182 7.66841C8.05903 7.78562 8.12488 7.94459 8.12488 8.11035C8.12488 8.27611 8.05903 8.43508 7.94182 8.55229C7.82461 8.6695 7.66564 8.73535 7.49988 8.73535Z" fill="#FF9F43"/>
<path fill-rule="evenodd" clip-rule="evenodd" d="M1.87488 8.11032C1.87488 7.37164 2.02037 6.64018 2.30306 5.95773C2.58574 5.27527 3.00007 4.65517 3.5224 4.13285C4.04473 3.61052 4.66483 3.19618 5.34728 2.9135C6.02974 2.63082 6.76119 2.48532 7.49988 2.48532C8.23856 2.48532 8.97002 2.63082 9.65247 2.9135C10.3349 3.19618 10.955 3.61052 11.4774 4.13285C11.9997 4.65517 12.414 5.27527 12.6967 5.95773C12.9794 6.64018 13.1249 7.37164 13.1249 8.11032C13.1249 9.60216 12.5322 11.0329 11.4774 12.0878C10.4225 13.1427 8.99172 13.7353 7.49988 13.7353C6.00804 13.7353 4.57729 13.1427 3.5224 12.0878C2.46751 11.0329 1.87488 9.60216 1.87488 8.11032ZM7.49988 12.4853C6.92534 12.4853 6.35644 12.3722 5.82564 12.1523C5.29484 11.9324 4.81254 11.6102 4.40629 11.2039C4.00003 10.7977 3.67777 10.3154 3.4579 9.78456C3.23804 9.25376 3.12488 8.68485 3.12488 8.11032C3.12488 7.53579 3.23804 6.96688 3.4579 6.43608C3.67777 5.90528 4.00003 5.42299 4.40629 5.01673C4.81254 4.61047 5.29484 4.28821 5.82564 4.06835C6.35644 3.84848 6.92534 3.73532 7.49988 3.73532C8.6602 3.73532 9.773 4.19626 10.5935 5.01673C11.4139 5.8372 11.8749 6.95 11.8749 8.11032C11.8749 9.27064 11.4139 10.3834 10.5935 11.2039C9.773 12.0244 8.6602 12.4853 7.49988 12.4853Z" fill="#FF9F43"/>
</svg>
