<svg width="9" height="9" viewBox="0 0 9 9" fill="none" xmlns="http://www.w3.org/2000/svg">
<rect x="0.577148" y="0.520447" width="8" height="8" rx="4" fill="white"/>
<path d="M4.57715 2.3941C4.32049 2.3941 4.07434 2.49606 3.89285 2.67755C3.71136 2.85904 3.60941 3.10518 3.60941 3.36185C3.60941 3.61851 3.71136 3.86466 3.89285 4.04614C4.07434 4.22763 4.32049 4.32959 4.57715 4.32959C4.83381 4.32959 5.07996 4.22763 5.26145 4.04614C5.44293 3.86466 5.54489 3.61851 5.54489 3.36185C5.54489 3.10518 5.44293 2.85904 5.26145 2.67755C5.07996 2.49606 4.83381 2.3941 4.57715 2.3941ZM3.54489 4.84572C3.28823 4.84572 3.04208 4.94768 2.86059 5.12916C2.67911 5.31065 2.57715 5.5568 2.57715 5.81346V6.12004C2.57715 6.31462 2.71805 6.4803 2.91005 6.51152C4.01405 6.69191 5.14024 6.69191 6.24424 6.51152C6.33717 6.49639 6.42168 6.44871 6.48267 6.37698C6.54366 6.30526 6.57715 6.21419 6.57715 6.12004V5.81346C6.57715 5.5568 6.47519 5.31065 6.2937 5.12916C6.11222 4.94768 5.86607 4.84572 5.60941 4.84572H5.52166C5.47392 4.84572 5.42644 4.85346 5.38128 4.86791L5.15779 4.94094C4.78049 5.0641 4.3738 5.0641 3.9965 4.94094L3.77302 4.86791C3.72777 4.85318 3.68048 4.84569 3.63289 4.84572H3.54489Z" fill="#B6B8C2"/>
</svg>
