<svg width="24" height="95" viewBox="0 0 24 95" fill="none" xmlns="http://www.w3.org/2000/svg">
<path fill-rule="evenodd" clip-rule="evenodd" d="M12 10.6103C7.582 10.6103 4 14.2563 4 18.7533C4 23.2153 6.553 28.4233 10.537 30.2843C10.9949 30.4987 11.4944 30.6099 12 30.6099C12.5056 30.6099 13.0051 30.4987 13.463 30.2843C17.447 28.4223 20 23.2163 20 18.7543C20 14.2553 16.418 10.6103 12 10.6103ZM8.25 18.6103C8.24995 18.0257 8.38661 17.4491 8.64906 16.9266C8.91152 16.4042 9.2925 15.9503 9.76158 15.6013C10.2307 15.2523 10.7748 15.0179 11.3507 14.9166C11.9265 14.8154 12.518 14.8502 13.078 15.0183C13.638 15.1864 14.1509 15.483 14.5759 15.8847C15.0008 16.2863 15.3259 16.7817 15.5253 17.3313C15.7246 17.8809 15.7927 18.4695 15.7241 19.0502C15.6554 19.6308 15.452 20.1873 15.13 20.6753L16.032 21.5823C16.1682 21.7242 16.2433 21.9139 16.2409 22.1106C16.2386 22.3073 16.1591 22.4952 16.0196 22.6338C15.88 22.7724 15.6916 22.8507 15.4949 22.8517C15.2982 22.8528 15.109 22.7765 14.968 22.6393L14.071 21.7373C13.5059 22.1117 12.8498 22.3259 12.1727 22.3571C11.4955 22.3883 10.8225 22.2354 10.2254 21.9146C9.6282 21.5938 9.12916 21.1171 8.78132 20.5353C8.43348 19.9534 8.24987 19.2882 8.25 18.6103ZM9.75 18.6103C9.75 18.0136 9.98705 17.4413 10.409 17.0193C10.831 16.5974 11.4033 16.3603 12 16.3603C12.5967 16.3603 13.169 16.5974 13.591 17.0193C14.0129 17.4413 14.25 18.0136 14.25 18.6103C14.25 19.2071 14.0129 19.7794 13.591 20.2013C13.169 20.6233 12.5967 20.8603 12 20.8603C11.4033 20.8603 10.831 20.6233 10.409 20.2013C9.98705 19.7794 9.75 19.2071 9.75 18.6103Z" fill="#3EC492"/>
<circle cx="1" cy="1" r="1" transform="matrix(-1 0 0 1 13 38.6103)" fill="#D9D9D9"/>
<circle cx="1" cy="1" r="1" transform="matrix(-1 0 0 1 13 46.6103)" fill="#D9D9D9"/>
<circle cx="1" cy="1" r="1" transform="matrix(-1 0 0 1 13 54.6103)" fill="#D9D9D9"/>
<path fill-rule="evenodd" clip-rule="evenodd" d="M8 74.6103C8 73.5495 8.42143 72.532 9.17157 71.7819C9.92172 71.0317 10.9391 70.6103 12 70.6103C13.0609 70.6103 14.0783 71.0317 14.8284 71.7819C15.5786 72.532 16 73.5495 16 74.6103C16 75.6712 15.5786 76.6886 14.8284 77.4387C14.0783 78.1889 13.0609 78.6103 12 78.6103C10.9391 78.6103 9.92172 78.1889 9.17157 77.4387C8.42143 76.6886 8 75.6712 8 74.6103ZM12 75.6103C11.7348 75.6103 11.4804 75.505 11.2929 75.3174C11.1054 75.1299 11 74.8755 11 74.6103C11 74.3451 11.1054 74.0908 11.2929 73.9032C11.4804 73.7157 11.7348 73.6103 12 73.6103C12.2652 73.6103 12.5196 73.7157 12.7071 73.9032C12.8946 74.0908 13 74.3451 13 74.6103C13 74.8755 12.8946 75.1299 12.7071 75.3174C12.5196 75.505 12.2652 75.6103 12 75.6103Z" fill="#FF9F43"/>
<path fill-rule="evenodd" clip-rule="evenodd" d="M3 74.6103C3 73.4284 3.23279 72.2581 3.68508 71.1662C4.13738 70.0742 4.80031 69.0821 5.63604 68.2464C6.47177 67.4106 7.46392 66.7477 8.55585 66.2954C9.64778 65.8431 10.8181 65.6103 12 65.6103C13.1819 65.6103 14.3522 65.8431 15.4442 66.2954C16.5361 66.7477 17.5282 67.4106 18.364 68.2464C19.1997 69.0821 19.8626 70.0742 20.3149 71.1662C20.7672 72.2581 21 73.4284 21 74.6103C21 76.9973 20.0518 79.2865 18.364 80.9743C16.6761 82.6621 14.3869 83.6103 12 83.6103C9.61305 83.6103 7.32387 82.6621 5.63604 80.9743C3.94821 79.2865 3 76.9973 3 74.6103ZM12 81.6103C11.0807 81.6103 10.1705 81.4293 9.32122 81.0775C8.47194 80.7257 7.70026 80.2101 7.05025 79.5601C6.40024 78.9101 5.88463 78.1384 5.53284 77.2891C5.18106 76.4398 5 75.5296 5 74.6103C5 73.6911 5.18106 72.7808 5.53284 71.9315C5.88463 71.0823 6.40024 70.3106 7.05025 69.6606C7.70026 69.0106 8.47194 68.4949 9.32122 68.1432C10.1705 67.7914 11.0807 67.6103 12 67.6103C13.8565 67.6103 15.637 68.3478 16.9497 69.6606C18.2625 70.9733 19 72.7538 19 74.6103C19 76.4668 18.2625 78.2473 16.9497 79.5601C15.637 80.8728 13.8565 81.6103 12 81.6103Z" fill="#FF9F43"/>
</svg>
