<svg width="89" height="92" viewBox="0 0 89 92" fill="none" xmlns="http://www.w3.org/2000/svg">
<rect x="13.8613" y="5.54456" width="73.5785" height="70.6931" rx="11.0891" fill="#E1FBF1"/>
<path d="M9.15393 13.9651C8.99852 13.5522 8.69692 13.2107 8.30637 13.0054C8.08115 12.8867 7.83331 12.817 7.5792 12.8011C7.3251 12.7852 7.0705 12.8234 6.83222 12.9131C5.97147 13.2429 5.6153 14.4433 5.81977 15.3139C5.40094 14.5257 4.33573 13.8497 3.47498 14.1729C3.23713 14.2619 3.02077 14.4002 2.84005 14.5786C2.65932 14.7571 2.51831 14.9717 2.42626 15.2084C2.26937 15.6216 2.26937 16.078 2.42626 16.4913C2.92753 17.8269 4.44126 18.0973 5.80658 18.5854L7.23126 19.09L7.98318 17.7708C8.69222 16.5045 9.65191 15.3007 9.15393 13.9651Z" fill="#3EC492"/>
<path d="M71.8499 7.09231C72.0409 6.69435 72.0785 6.23995 71.9555 5.81603C71.8846 5.57165 71.7627 5.34507 71.5978 5.15123C71.433 4.95739 71.2289 4.80068 70.9991 4.69145C70.1713 4.29241 69.0533 4.87284 68.5685 5.62475C68.8456 4.7739 68.5949 3.5405 67.7672 3.14475C67.5373 3.03494 67.2869 2.97494 67.0323 2.96868C66.7777 2.96243 66.5246 3.01007 66.2897 3.10848C65.8831 3.27984 65.5534 3.59428 65.363 3.99231C64.7463 5.27848 65.6004 6.56135 66.1974 7.8838L66.8273 9.27221L68.3047 8.88965C69.703 8.51699 71.2365 8.37848 71.8499 7.09231Z" fill="#3EC492"/>
<path d="M78.5224 37.3552C77.3352 33.4802 72.4906 30.2746 67.9692 31.541C67.2541 31.7405 66.5679 32.0321 65.9278 32.4083C61.535 34.9444 57.9766 41.1114 57.9766 46.1869C57.9648 47.0387 58.0838 47.8874 58.3295 48.7032C59.5167 52.5782 64.3613 55.7672 68.8827 54.5008C69.5962 54.3009 70.2803 54.0082 70.9175 53.6302C75.3103 51.0941 78.872 44.9271 78.872 39.855C78.8811 39.0089 78.7633 38.1662 78.5224 37.3552Z" fill="#455A64"/>
<path d="M70.9044 53.6301C75.2972 51.094 78.8589 44.927 78.8589 39.8548C78.8589 34.7827 75.2972 32.7248 70.9044 35.2609C66.5117 37.797 62.95 43.9607 62.95 49.0361C62.95 54.1116 66.5248 56.1661 70.9044 53.6301Z" fill="#37474F"/>
<path d="M67.3657 53.185C64.678 53.185 64.4702 49.9893 64.4702 49.0098C64.4702 44.4983 67.7681 38.7864 71.6695 36.5373C72.5108 36.0085 73.4737 35.7042 74.4661 35.6534C77.1571 35.6534 77.3649 38.8491 77.3649 39.8286C77.3649 44.3335 74.067 50.052 70.1657 52.3011C69.3231 52.83 68.3592 53.1343 67.3657 53.185Z" fill="#F5F5F5"/>
<path d="M68.3418 50.9424C66.2378 50.9424 66.0762 48.4954 66.0762 47.7467C66.0762 44.4258 68.5034 40.2177 71.3792 38.5589C72.016 38.1622 72.7437 37.9352 73.4931 37.8993C75.5938 37.8993 75.7587 40.343 75.7587 41.0916C75.7587 44.4126 73.3282 48.6207 70.4525 50.2795C69.8177 50.6784 69.0907 50.9067 68.3418 50.9424ZM73.4931 38.2258C72.801 38.2621 72.1299 38.4756 71.5441 38.8458C68.7606 40.4518 66.406 44.528 66.406 47.75C66.406 48.4096 66.5445 50.6159 68.3418 50.6159C69.0329 50.5796 69.7029 50.3661 70.2876 49.9959C73.0743 48.3865 75.429 44.3104 75.429 41.0916C75.429 40.4189 75.2871 38.2258 73.4931 38.2258Z" fill="#E0E0E0"/>
<path d="M70.9044 40.8937C72.5929 39.9043 73.9616 40.709 73.9616 42.6581C73.9616 44.6071 72.5929 46.9816 70.9044 47.9577C69.2159 48.9339 67.844 48.1424 67.844 46.1901C67.844 44.2377 69.2291 41.8633 70.9044 40.8937Z" fill="#455A64"/>
<path d="M70.9044 43.2022C71.4816 42.8724 71.9532 43.1395 71.9532 43.8057C71.9343 44.1699 71.8294 44.5244 71.6472 44.8403C71.4649 45.1561 71.2103 45.4243 70.9044 45.6228C70.324 45.9526 69.8557 45.6855 69.8557 45.016C69.8751 44.6524 69.9802 44.2985 70.1624 43.9833C70.3447 43.668 70.599 43.4004 70.9044 43.2022Z" fill="#37474F"/>
<path d="M61.977 52.4363L48.5184 44.6665C48.5184 44.6665 36.7582 56.153 31.165 54.415C31.165 54.415 29.7436 69.3181 36.3525 70.601C42.9615 71.8839 51.6118 63.7942 54.781 60.526C57.9503 57.2578 61.977 52.4363 61.977 52.4363Z" fill="#3EC492"/>
<path opacity="0.4" d="M61.977 52.4363L48.5184 44.6665C48.5184 44.6665 36.7582 56.153 31.165 54.415C31.165 54.415 29.7436 69.3181 36.3525 70.601C42.9615 71.8839 51.6118 63.7942 54.781 60.526C57.9503 57.2578 61.977 52.4363 61.977 52.4363Z" fill="black"/>
<path d="M75.8973 28.5102C74.6177 27.7583 69.7632 24.9683 68.4969 24.2229C67.135 23.4285 65.5867 23.0099 64.0101 23.0099C62.4335 23.0099 60.8851 23.4285 59.5233 24.2229L52.0339 28.4772C48.8085 30.3405 42.4337 33.9682 42.0116 37.6717C41.4609 42.4899 45.6063 49.7518 41.1772 54.5403L48.5183 58.7781L80.3329 38.9908V36.2569C80.3408 34.6895 79.9348 33.1478 79.156 31.7875C78.3772 30.4273 77.2531 29.2968 75.8973 28.5102Z" fill="#3EC492"/>
<path opacity="0.2" d="M49.6463 46.1011C49.2473 43.7925 47.7171 40.9663 45.6889 39.8021L45.6526 39.779C43.6343 38.6149 41.8963 39.568 42.2954 41.8633C43.0308 46.1175 44.439 51.005 41.1675 54.5403L48.5085 58.7781C51.7767 55.2428 50.3817 50.3586 49.6463 46.1011Z" fill="black"/>
<path opacity="0.1" d="M66.8578 28.4805L59.3617 32.7282C56.1364 34.5882 49.7616 38.2126 49.3395 41.9095C48.7887 46.7277 52.9342 53.9929 48.5051 58.7781L80.3197 38.9909V36.2569C80.3164 29.3512 72.8402 25.0244 66.8578 28.4805Z" fill="black"/>
<path d="M75.983 29.2555C73.8097 28.0254 70.8317 27.6956 66.8578 29.7964C66.7688 29.8426 66.6731 29.8887 66.5841 29.9415L66.2807 30.1097C60.8557 33.2394 56.4563 40.8542 56.4563 47.1234C56.4563 47.2389 56.4563 47.3576 56.4563 47.4796C56.4829 48.1477 56.6784 48.7981 57.0244 49.3702C57.3704 49.9422 57.8557 50.4173 58.435 50.7511C59.0386 51.1015 59.7241 51.2861 60.422 51.2861C61.1199 51.2861 61.8054 51.1015 62.409 50.7511L66.7655 48.2381L79.4788 40.8937L84.6399 37.9257C84.6399 37.9257 83.2812 33.4867 79.7426 31.4288C79.149 31.0826 76.6624 29.6381 75.983 29.2555Z" fill="#3EC492"/>
<path d="M60.3082 51.2721C60.8721 51.2917 61.4338 51.1928 61.9572 50.9819C61.3671 51.2245 60.7273 51.3219 60.0918 51.2658C59.4562 51.2097 58.8434 51.0017 58.305 50.6595C57.7665 50.3172 57.3181 49.8506 56.9976 49.299C56.677 48.7473 56.4936 48.1267 56.4629 47.4894C56.4629 47.3674 56.4629 47.2487 56.4629 47.13C56.4629 43.6408 57.8315 39.7262 59.9784 36.4086L63.649 38.5192C61.4988 41.8402 60.1367 45.7515 60.1367 49.2406C60.1334 49.9215 60.1908 50.6014 60.3082 51.2721Z" fill="#3EC492"/>
<path opacity="0.1" d="M84.6367 37.9256V37.8992C84.6367 37.8992 84.6367 37.8696 84.6202 37.8531C84.6037 37.8036 84.5806 37.7442 84.5543 37.6717C84.5543 37.6387 84.5246 37.5991 84.5114 37.5596V37.5431L84.4619 37.4177C84.4026 37.2693 84.33 37.088 84.2476 36.9C84.2179 36.8373 84.1915 36.7714 84.1618 36.7087C84.0662 36.4976 83.9573 36.2701 83.832 36.0293L83.7001 35.7853C83.5187 35.4555 83.3077 35.1026 83.0702 34.7465C82.8224 34.373 82.5549 34.0131 82.2688 33.6681C81.9626 33.3012 81.632 32.9552 81.2795 32.6325C80.9151 32.2972 80.5235 31.9928 80.1087 31.7223C80.0065 31.6531 79.901 31.5904 79.7954 31.5277L79.7558 31.5047L79.6701 31.4552C77.5001 30.2416 74.532 29.925 70.5779 32.0158C70.4855 32.0587 70.3932 32.1082 70.3008 32.1576L69.9974 32.3291C64.5724 35.4588 60.1764 43.0736 60.1764 49.3396C60.1737 50.0207 60.2333 50.7007 60.3544 51.3711C61.0943 51.3974 61.8267 51.2158 62.4684 50.8467L66.8249 48.3337L79.4788 40.8937L84.64 37.9256H84.6367Z" fill="black"/>
<path opacity="0.4" d="M79.591 31.3299C77.4243 30.1328 74.4661 29.8261 70.535 31.907C70.4427 31.9499 70.3503 31.9994 70.258 32.0488L69.9546 32.2203C67.5504 33.6054 65.3376 35.8711 63.6458 38.5094L59.9719 36.3889C61.6736 33.7506 63.8766 31.4849 66.2808 30.0998L66.5842 29.9283C66.6732 29.8788 66.7688 29.8294 66.8579 29.7865C70.8153 27.6858 73.8098 28.0155 75.9831 29.2456C76.613 29.615 78.8193 30.8847 79.591 31.3299Z" fill="white"/>
<path d="M39.9539 34.7135V34.1825C39.9662 33.9532 40.028 33.7292 40.135 33.526C40.2421 33.3228 40.3917 33.1451 40.5739 33.0052L52.776 24.6714C52.9671 24.5558 53.1845 24.4906 53.4078 24.4819C53.631 24.4733 53.8528 24.5215 54.0523 24.622L62.5344 29.5226C62.726 29.6448 62.8857 29.8108 63.0004 30.0069C63.1151 30.203 63.1815 30.4236 63.194 30.6505V32.5929C63.1814 32.8202 63.1151 33.0413 63.0004 33.238C62.8858 33.4346 62.7261 33.6012 62.5344 33.7241L50.3817 40.742C50.1777 40.8467 49.9516 40.9014 49.7222 40.9014C49.4928 40.9014 49.2667 40.8467 49.0626 40.742L40.5772 35.8413C40.3927 35.7148 40.2403 35.5469 40.1321 35.3511C40.0239 35.1553 39.9629 34.937 39.9539 34.7135Z" fill="#3EC492"/>
<path opacity="0.55" d="M39.9539 34.7135V34.1825C39.9662 33.9532 40.028 33.7292 40.135 33.526C40.2421 33.3228 40.3917 33.1451 40.5739 33.0052L52.776 24.6714C52.9671 24.5558 53.1845 24.4906 53.4078 24.4819C53.631 24.4733 53.8528 24.5215 54.0523 24.622L62.5344 29.5226C62.726 29.6448 62.8857 29.8108 63.0004 30.0069C63.1151 30.203 63.1815 30.4236 63.194 30.6505V32.5929C63.1814 32.8202 63.1151 33.0413 63.0004 33.238C62.8858 33.4346 62.7261 33.6012 62.5344 33.7241L50.3817 40.742C50.1777 40.8467 49.9516 40.9014 49.7222 40.9014C49.4928 40.9014 49.2667 40.8467 49.0626 40.742L40.5772 35.8413C40.3927 35.7148 40.2403 35.5469 40.1321 35.3511C40.0239 35.1553 39.9629 34.937 39.9539 34.7135Z" fill="black"/>
<path d="M40.6035 33.8066L49.089 38.7072C49.2881 38.8071 49.5092 38.855 49.7318 38.8463C49.9544 38.8377 50.1712 38.7728 50.362 38.6577L62.5641 30.324C62.6416 30.2878 62.7068 30.2295 62.7514 30.1565C62.796 30.0835 62.8181 29.999 62.8149 29.9135C62.8117 29.828 62.7834 29.7453 62.7336 29.6758C62.6837 29.6063 62.6144 29.553 62.5344 29.5226L54.0523 24.622C53.8528 24.5215 53.631 24.4733 53.4078 24.4819C53.1845 24.4906 52.9671 24.5558 52.776 24.6714L40.5739 33.0052C40.4963 33.0414 40.4312 33.0996 40.3866 33.1726C40.342 33.2457 40.3199 33.3302 40.3231 33.4157C40.3262 33.5012 40.3545 33.5839 40.4044 33.6534C40.4543 33.7229 40.5235 33.7762 40.6035 33.8066Z" fill="#3EC492"/>
<path opacity="0.45" d="M40.6035 33.8066L49.089 38.7072C49.2881 38.8071 49.5092 38.855 49.7318 38.8463C49.9544 38.8377 50.1712 38.7728 50.362 38.6577L62.5641 30.324C62.6416 30.2878 62.7068 30.2295 62.7514 30.1565C62.796 30.0835 62.8181 29.999 62.8149 29.9135C62.8117 29.828 62.7834 29.7453 62.7336 29.6758C62.6837 29.6063 62.6144 29.553 62.5344 29.5226L54.0523 24.622C53.8528 24.5215 53.631 24.4733 53.4078 24.4819C53.1845 24.4906 52.9671 24.5558 52.776 24.6714L40.5739 33.0052C40.4963 33.0414 40.4312 33.0996 40.3866 33.1726C40.342 33.2457 40.3199 33.3302 40.3231 33.4157C40.3262 33.5012 40.3545 33.5839 40.4044 33.6534C40.4543 33.7229 40.5235 33.7762 40.6035 33.8066Z" fill="black"/>
<path opacity="0.2" d="M49.7418 38.8425V40.8937C49.5122 40.9004 49.2849 40.847 49.0823 40.7387L40.5968 35.8414C40.4057 35.7179 40.2464 35.5512 40.1318 35.3546C40.0173 35.1581 39.9506 34.9373 39.9373 34.7102V34.1793C39.9501 33.9632 40.0063 33.752 40.1027 33.5582C40.199 33.3644 40.3334 33.192 40.4979 33.0514C40.433 33.0953 40.3815 33.1563 40.349 33.2276C40.3166 33.2989 40.3045 33.3778 40.314 33.4556C40.3236 33.5334 40.3544 33.607 40.4032 33.6683C40.4519 33.7297 40.5166 33.7764 40.5902 33.8033L49.0757 38.7007C49.2792 38.8118 49.5107 38.8611 49.7418 38.8425Z" fill="black"/>
<path d="M57.083 24.8232V24.2956C57.0961 24.0653 57.1593 23.8407 57.268 23.6374C57.3768 23.4341 57.5286 23.2569 57.7129 23.1182L65.0309 17.6141C65.222 17.4984 65.4394 17.4332 65.6626 17.4246C65.8859 17.4159 66.1076 17.4641 66.3072 17.5646L74.7926 22.4652C74.9838 22.5878 75.1433 22.7539 75.2579 22.9499C75.3725 23.146 75.4391 23.3664 75.4522 23.5931V25.5356C75.4388 25.7627 75.3722 25.9835 75.2576 26.18C75.143 26.3765 74.9837 26.5433 74.7926 26.6667L67.5373 30.8517C67.3355 30.9543 67.1123 31.0077 66.8859 31.0077C66.6596 31.0077 66.4364 30.9543 66.2346 30.8517L57.736 25.9544C57.5461 25.8302 57.3881 25.6631 57.2747 25.4666C57.1613 25.2701 57.0956 25.0498 57.083 24.8232Z" fill="#3EC492"/>
<path opacity="0.55" d="M57.083 24.8232V24.2956C57.0961 24.0653 57.1593 23.8407 57.268 23.6374C57.3768 23.4341 57.5286 23.2569 57.7129 23.1182L65.0309 17.6141C65.222 17.4984 65.4394 17.4332 65.6626 17.4246C65.8859 17.4159 66.1076 17.4641 66.3072 17.5646L74.7926 22.4652C74.9838 22.5878 75.1433 22.7539 75.2579 22.9499C75.3725 23.146 75.4391 23.3664 75.4522 23.5931V25.5356C75.4388 25.7627 75.3722 25.9835 75.2576 26.18C75.143 26.3765 74.9837 26.5433 74.7926 26.6667L67.5373 30.8517C67.3355 30.9543 67.1123 31.0077 66.8859 31.0077C66.6596 31.0077 66.4364 30.9543 66.2346 30.8517L57.736 25.9544C57.5461 25.8302 57.3881 25.6631 57.2747 25.4666C57.1613 25.2701 57.0956 25.0498 57.083 24.8232Z" fill="black"/>
<path d="M57.7359 23.9196L66.2213 28.817C66.4199 28.9187 66.6414 28.9676 66.8643 28.9589C67.0873 28.9503 67.3043 28.8843 67.4943 28.7675L74.8156 23.2633C74.8921 23.2267 74.9563 23.1685 75.0002 23.0958C75.044 23.0232 75.0657 22.9393 75.0626 22.8546C75.0594 22.7698 75.0316 22.6877 74.9824 22.6186C74.9333 22.5494 74.865 22.4961 74.7859 22.4652L66.2873 17.5646C66.0878 17.4641 65.866 17.4159 65.6428 17.4246C65.4195 17.4332 65.2022 17.4984 65.011 17.6141L57.7128 23.1182C57.6351 23.1538 57.5695 23.2115 57.5244 23.2842C57.4792 23.3568 57.4565 23.4411 57.4589 23.5266C57.4614 23.612 57.489 23.6949 57.5382 23.7648C57.5875 23.8347 57.6562 23.8885 57.7359 23.9196Z" fill="#3EC492"/>
<path opacity="0.45" d="M57.7359 23.9196L66.2213 28.817C66.4199 28.9187 66.6414 28.9676 66.8643 28.9589C67.0873 28.9503 67.3043 28.8843 67.4943 28.7675L74.8156 23.2633C74.8921 23.2267 74.9563 23.1685 75.0002 23.0958C75.044 23.0232 75.0657 22.9393 75.0626 22.8546C75.0594 22.7698 75.0316 22.6877 74.9824 22.6186C74.9333 22.5494 74.865 22.4961 74.7859 22.4652L66.2873 17.5646C66.0878 17.4641 65.866 17.4159 65.6428 17.4246C65.4195 17.4332 65.2022 17.4984 65.011 17.6141L57.7128 23.1182C57.6351 23.1538 57.5695 23.2115 57.5244 23.2842C57.4792 23.3568 57.4565 23.4411 57.4589 23.5266C57.4614 23.612 57.489 23.6949 57.5382 23.7648C57.5875 23.8347 57.6562 23.8885 57.7359 23.9196Z" fill="black"/>
<path opacity="0.2" d="M66.8711 28.9554V31.0001C66.6412 31.0057 66.4138 30.9511 66.2115 30.8418L57.736 25.9543C57.5444 25.8314 57.3846 25.6648 57.27 25.4682C57.1553 25.2715 57.089 25.0504 57.0764 24.8231V24.2955C57.0895 24.079 57.1459 23.8674 57.2422 23.6731C57.3385 23.4788 57.4728 23.3058 57.637 23.1643C57.5722 23.2082 57.5206 23.2692 57.4882 23.3405C57.4558 23.4118 57.4437 23.4907 57.4532 23.5685C57.4628 23.6463 57.4936 23.7199 57.5423 23.7813C57.5911 23.8426 57.6558 23.8893 57.7294 23.9162L66.2115 28.8169C66.4141 28.9237 66.6426 28.9717 66.8711 28.9554Z" fill="black"/>
<path d="M61.9771 52.4363C61.9771 52.4363 50.8698 63.2401 43.1792 67.8769V70.7395C51.6119 66.2082 61.9771 53.8511 61.9771 53.8511V52.4363Z" fill="#3EC492"/>
<path d="M43.1725 67.8604C42.1629 68.4908 41.0826 69 39.9538 69.3775C37.4012 70.169 32.6094 67.5669 32.6094 56.3113C32.6436 50.9508 33.4013 45.6195 34.8619 40.4617C35.5412 38.0575 34.5321 35.162 32.3687 33.9121L26.7326 30.6703C24.5725 29.4237 21.6473 30.0701 20.5425 32.3192C17.4661 38.6893 15.9298 45.6932 16.0574 52.7661C16.1497 60.4864 18.6462 63.4611 20.3743 65.1463C22.4091 67.125 30.291 72.6259 38.4796 72.2103C40.1369 72.0701 41.7427 71.5656 43.1824 70.7329" fill="#3EC492"/>
<path opacity="0.2" d="M30.8088 65.1364C28.8532 61.1426 27.7154 58.0723 22.8214 55.2427C19.0651 53.076 16.9314 54.3391 16.5554 57.8382C17.3865 61.9209 19.0915 63.8832 20.3744 65.1331C22.4092 67.1118 30.2911 72.6127 38.4797 72.1971C35.0565 72.2004 32.7645 69.1301 30.8088 65.1364Z" fill="black"/>
<path opacity="0.2" d="M26.8942 49.7419C26.8598 49.9697 26.778 50.1877 26.6542 50.382C26.5304 50.5762 26.3672 50.7424 26.1753 50.8698L25.0309 51.5293C24.858 51.6288 24.6528 51.6559 24.46 51.6046C24.2672 51.5533 24.1025 51.4279 24.002 51.2556L22.3101 48.3205C22.0841 47.8893 21.9792 47.4049 22.0067 46.9189C22.2838 44.4257 23.4149 36.2569 26.8282 30.723L31.7223 33.5394C31.7223 33.5394 27.7483 41.1707 26.8942 49.7419Z" fill="black"/>
<path d="M26.5579 49.5506C26.5251 49.7789 26.444 49.9976 26.32 50.1921C26.1961 50.3865 26.0321 50.5524 25.8389 50.6785L24.6979 51.338C24.6122 51.3876 24.5175 51.4198 24.4194 51.4327C24.3212 51.4456 24.2215 51.439 24.1259 51.4133C24.0303 51.3875 23.9407 51.3431 23.8623 51.2827C23.7839 51.2223 23.7182 51.1469 23.6689 51.061L21.9738 48.1292C21.7492 47.6976 21.6455 47.2133 21.6737 46.7276C21.9474 44.2344 23.0786 36.0656 26.4919 30.5317L31.386 33.3481C31.386 33.3481 27.4153 40.9761 26.5579 49.5506Z" fill="#3EC492"/>
<path opacity="0.2" d="M26.5579 49.5506C26.5251 49.7789 26.444 49.9976 26.32 50.1921C26.1961 50.3865 26.0321 50.5524 25.8389 50.6785L24.6979 51.338C24.6122 51.3876 24.5175 51.4198 24.4194 51.4327C24.3212 51.4456 24.2215 51.439 24.1259 51.4133C24.0303 51.3875 23.9407 51.3431 23.8623 51.2827C23.7839 51.2223 23.7182 51.1469 23.6689 51.061L21.9738 48.1292C21.7492 47.6976 21.6455 47.2133 21.6737 46.7276C21.9474 44.2344 23.0786 36.0656 26.4919 30.5317L31.386 33.3481C31.386 33.3481 27.4153 40.9761 26.5579 49.5506Z" fill="white"/>
<path d="M25.8586 47.2751C25.8295 47.2753 25.801 47.2673 25.7762 47.252L22.7553 45.5107C22.7177 45.4881 22.6904 45.4516 22.6793 45.4091C22.6682 45.3665 22.6742 45.3214 22.696 45.2832C22.7066 45.2643 22.7208 45.2478 22.7379 45.2345C22.755 45.2213 22.7746 45.2116 22.7955 45.2061C22.8165 45.2005 22.8383 45.1992 22.8597 45.2023C22.8811 45.2054 22.9017 45.2127 22.9202 45.2238L25.9576 46.9783C25.9949 47.0004 26.0223 47.036 26.034 47.0778C26.0457 47.1196 26.0407 47.1643 26.0202 47.2026C26.0024 47.2282 25.978 47.2485 25.9495 47.2613C25.9211 47.2741 25.8896 47.2789 25.8586 47.2751Z" fill="#455A64"/>
<path d="M25.6543 48.2184C25.6256 48.2181 25.5974 48.2114 25.5718 48.1986L22.8379 46.6189C22.819 46.6083 22.8025 46.594 22.7892 46.5769C22.776 46.5598 22.7663 46.5402 22.7608 46.5193C22.7552 46.4984 22.7539 46.4766 22.757 46.4552C22.76 46.4338 22.7674 46.4132 22.7785 46.3946C22.8006 46.3573 22.8363 46.3299 22.8781 46.3182C22.9198 46.3065 22.9645 46.3115 23.0028 46.332L25.7367 47.9117C25.7677 47.93 25.7918 47.958 25.8053 47.9913C25.8189 48.0247 25.8212 48.0615 25.8118 48.0963C25.8025 48.131 25.782 48.1618 25.7536 48.1838C25.7251 48.2059 25.6902 48.218 25.6543 48.2184Z" fill="#455A64"/>
<path d="M25.4498 49.1648C25.4209 49.1638 25.3926 49.1559 25.3673 49.1417L22.9368 47.7368C22.9038 47.7128 22.8809 47.6774 22.8724 47.6375C22.864 47.5975 22.8707 47.5559 22.8912 47.5206C22.9118 47.4853 22.9446 47.4589 22.9835 47.4465C23.0224 47.434 23.0645 47.4364 23.1017 47.4532L25.5322 48.8548C25.5699 48.8775 25.5972 48.914 25.6083 48.9565C25.6194 48.999 25.6134 49.0442 25.5916 49.0824C25.5772 49.1073 25.5565 49.128 25.5317 49.1425C25.5068 49.157 25.4786 49.1646 25.4498 49.1648Z" fill="#455A64"/>
<path d="M25.2452 50.108C25.2161 50.1086 25.1874 50.1006 25.1628 50.0849L23.0357 48.8581C22.9976 48.8362 22.9698 48.8002 22.9584 48.7578C22.9469 48.7154 22.9528 48.6703 22.9746 48.6322C22.9965 48.5942 23.0326 48.5664 23.075 48.5549C23.1173 48.5435 23.1625 48.5493 23.2005 48.5712L25.3277 49.798C25.3586 49.8164 25.3827 49.8444 25.3963 49.8777C25.4098 49.911 25.4121 49.9479 25.4028 49.9826C25.3934 50.0174 25.373 50.0481 25.3445 50.0702C25.3161 50.0922 25.2812 50.1043 25.2452 50.1047V50.108Z" fill="#455A64"/>
<path d="M29.384 50.5598L30.5184 51.2194C30.712 51.3402 30.8732 51.5063 30.9881 51.7034C31.103 51.9005 31.1682 52.1226 31.178 52.3505C31.1605 52.973 31.1077 53.594 31.0197 54.2105C30.9197 54.8479 30.6074 55.4328 30.1333 55.8704C29.6592 56.308 29.0511 56.5726 28.4078 56.6213H28.3616C28.2814 56.6301 28.2002 56.6204 28.1242 56.5931C28.0483 56.5658 27.9796 56.5215 27.9233 56.4637C27.867 56.4058 27.8247 56.3359 27.7995 56.2592C27.7743 56.1825 27.7669 56.101 27.7779 56.0211C28.1753 54.3465 28.4704 52.6494 28.6617 50.939C28.6571 50.8532 28.6771 50.7679 28.7195 50.6931C28.762 50.6184 28.825 50.5574 28.9011 50.5175C28.9772 50.4775 29.0631 50.4603 29.1487 50.4678C29.2343 50.4753 29.316 50.5072 29.384 50.5598Z" fill="#FAFAFA"/>
<path d="M19.7147 44.9699L18.9001 44.4983C18.8254 44.4466 18.7389 44.4145 18.6485 44.405C18.5581 44.3956 18.4667 44.4091 18.3829 44.4442C18.2991 44.4794 18.2255 44.5351 18.1689 44.6062C18.1123 44.6774 18.0746 44.7616 18.0592 44.8512C17.8447 45.7153 17.722 46.5996 17.6931 47.4895C17.6931 49.3 18.2999 50.5103 18.7023 50.9391C19.1046 51.3678 19.7972 51.6712 19.7873 51.1402C19.7551 49.4488 19.901 47.7587 20.2226 46.0978C20.2562 45.8808 20.226 45.6587 20.1359 45.4585C20.0457 45.2583 19.8994 45.0886 19.7147 44.9699Z" fill="#FAFAFA"/>
<path d="M40.7221 68.9421C41.5737 68.665 42.3975 68.3084 43.1823 67.8769C42.1637 68.4949 41.0798 68.9982 39.9504 69.3775C37.4044 70.169 32.6093 67.5669 32.6093 56.3113C32.6427 50.9505 33.4015 45.6189 34.865 40.4617C35.5411 38.0608 34.5353 35.162 32.3686 33.9121L26.7325 30.6703C26.1046 30.3089 25.4017 30.0974 24.6787 30.0523C23.9557 30.0071 23.232 30.1294 22.564 30.4098C23.2882 29.9174 24.1369 29.6398 25.0122 29.6089C25.8874 29.5779 26.7536 29.795 27.5108 30.235L33.1436 33.4867C35.307 34.7366 36.3194 37.6321 35.64 40.0363C34.1792 45.1951 33.4216 50.5276 33.3876 55.8892C33.381 67.1316 38.1695 69.7303 40.7221 68.9421Z" fill="#3EC492"/>
<path opacity="0.1" d="M40.7221 68.9421C38.1696 69.7303 33.3811 67.1316 33.3811 55.8792C33.415 50.5176 34.1727 45.1852 35.6335 40.0263C35.9339 38.91 35.9064 37.7307 35.5544 36.6295L34.786 37.078C35.1347 38.1752 35.1622 39.3493 34.8651 40.4616C33.4016 45.6189 32.6428 50.9505 32.6094 56.3112C32.6094 67.5669 37.4045 70.1623 39.9504 69.3774C41.0799 68.9981 42.1638 68.4949 43.1824 67.8769C42.3975 68.3084 41.5738 68.665 40.7221 68.9421Z" fill="black"/>
<path opacity="0.4" d="M33.137 33.4768L27.5042 30.2251C26.747 29.7851 25.8808 29.568 25.0056 29.599C24.1303 29.6299 23.2817 29.9075 22.5574 30.3999C23.2254 30.1195 23.9491 29.9972 24.6721 30.0424C25.3952 30.0876 26.098 30.2991 26.7259 30.6604L32.362 33.9121C33.5352 34.6281 34.3976 35.7577 34.7793 37.0781L35.5477 36.6296C35.1636 35.3157 34.3042 34.1918 33.137 33.4768Z" fill="white"/>
<path d="M27.3723 66.8942C26.1883 63.0192 21.3437 59.8104 16.819 61.08C16.1043 61.2821 15.4183 61.5747 14.7777 61.9507C10.3849 64.4835 6.82318 70.6538 6.82318 75.7259C6.81233 76.579 6.93245 77.4288 7.17935 78.2455C8.36329 82.1238 13.2079 85.3128 17.7326 84.0432C18.446 83.8404 19.1309 83.5479 19.7706 83.1725C24.1568 80.6332 27.702 74.4661 27.702 69.394C27.7195 68.5488 27.6083 67.7059 27.3723 66.8942Z" fill="#455A64"/>
<path d="M19.7641 83.1692C24.1568 80.6331 27.702 74.4661 27.702 69.394C27.702 64.3219 24.1403 62.264 19.7509 64.7968C15.3614 67.3295 11.7964 73.4998 11.7964 78.572C11.7964 83.6441 15.3713 85.7053 19.7641 83.1692Z" fill="#37474F"/>
<path d="M16.2124 82.7207C13.5247 82.7207 13.3169 79.5251 13.3169 78.5456C13.3169 74.0374 16.6148 68.3222 20.5162 66.0763C21.3566 65.5457 22.32 65.2412 23.3128 65.1925C26.0005 65.1925 26.2116 68.3881 26.2116 69.3676C26.2116 73.8725 22.9137 79.591 19.009 81.8369C18.1684 82.3671 17.2051 82.6715 16.2124 82.7207Z" fill="#F5F5F5"/>
<path d="M17.1885 80.4683C15.0844 80.4683 14.9229 78.0245 14.9229 77.2759C14.9229 73.955 17.3501 69.7469 20.2258 68.088C20.8608 67.69 21.5879 67.4628 22.3365 67.4285C24.4405 67.4285 24.6054 69.8722 24.6054 70.6208C24.6054 73.9418 22.1749 78.1499 19.2991 79.8087C18.6641 80.2067 17.9371 80.4339 17.1885 80.4683ZM22.3365 67.755C21.6461 67.792 20.9765 68.0043 20.3907 68.3717C17.604 69.981 15.2526 74.0572 15.2526 77.2759C15.2526 77.9355 15.3911 80.1385 17.1885 80.1385C17.8794 80.1016 18.5493 79.8881 19.1342 79.5185C21.9209 77.9124 24.2756 73.8362 24.2756 70.6142C24.2756 69.9546 24.1338 67.7649 22.3365 67.7649V67.755Z" fill="#E0E0E0"/>
<path d="M19.764 70.4229C21.4526 69.4335 22.8212 70.2382 22.8212 72.1906C22.8212 74.1429 21.4526 76.5108 19.764 77.5001C18.0755 78.4895 16.7036 77.6848 16.7036 75.7325C16.7036 73.7801 18.0722 71.3991 19.764 70.4229Z" fill="#455A64"/>
<path d="M19.7641 72.7479C20.3412 72.4181 20.8095 72.682 20.8095 73.3514C20.7905 73.7148 20.6859 74.0685 20.5042 74.3837C20.3225 74.6989 20.0689 74.9667 19.7641 75.1653C19.1836 75.4951 18.7153 75.2312 18.7153 74.5618C18.7347 74.1981 18.8398 73.8443 19.0221 73.529C19.2043 73.2138 19.4586 72.9461 19.7641 72.7479Z" fill="#37474F"/>
<path d="M26.1719 61.7726C25.0869 61.146 21.0536 58.8903 20.0643 58.2505C18.3395 57.1424 15.9057 57.238 13.1981 58.8012C10.5598 60.3116 8.2117 62.9236 6.5034 65.9048C6.43944 66.0148 6.39798 66.1364 6.38144 66.2626C6.36489 66.3887 6.3736 66.5169 6.40705 66.6397C6.4405 66.7624 6.49803 66.8773 6.57628 66.9776C6.65453 67.0779 6.75195 67.1617 6.86287 67.224C8.2216 68.0023 10.883 69.5325 12.3242 70.3834C13.9731 71.3727 17.9305 68.9026 21.7924 69.272C22.4442 69.3252 23.0851 69.4718 23.6952 69.7073C26.3039 70.723 27.2042 71.0693 28.1836 70.7132C28.3408 70.6548 28.4792 70.555 28.5843 70.4243C28.6894 70.2937 28.7572 70.1371 28.7806 69.9711C28.8847 69.2824 28.9376 68.5868 28.9389 67.8902C28.9389 64.8759 27.8835 62.7587 26.1719 61.7726Z" fill="#3EC492"/>
<path opacity="0.3" d="M26.1718 61.7726C25.0868 61.146 21.0535 58.8903 20.0642 58.2505C18.3394 57.1424 15.9055 57.238 13.198 58.8012C11.8529 59.5959 10.6308 60.5825 9.57031 61.7297L23.0026 69.4864C23.2354 69.5449 23.4645 69.6176 23.6885 69.704C26.2971 70.7197 27.1975 71.066 28.1769 70.7099C28.3341 70.6515 28.4725 70.5517 28.5776 70.421C28.6826 70.2904 28.7505 70.1338 28.7738 69.9678C28.878 69.2791 28.9309 68.5835 28.9321 67.8869C28.9387 64.8759 27.8834 62.7587 26.1718 61.7726Z" fill="white"/>
<path d="M28.9389 67.8868C28.935 68.7517 28.8555 69.6146 28.7015 70.4657C27.4582 71.1649 26.7491 70.8912 23.6953 69.7039C23.0851 69.4685 22.4443 69.3219 21.7924 69.2686C17.9207 68.8993 13.9765 71.3595 12.3242 70.38C13.2176 68.6665 14.3258 67.074 15.6221 65.6409C16.7453 64.3798 18.0555 63.2987 19.507 62.4354C20.3606 61.9301 21.284 61.5534 22.2475 61.3174C23.7547 60.9876 25.1002 61.1459 26.1852 61.7725C27.8836 62.7586 28.9389 64.8758 28.9389 67.8868Z" fill="#3EC492"/>
<path opacity="0.1" d="M28.9389 67.8868C28.935 68.7517 28.8555 69.6146 28.7015 70.4657C27.4582 71.1649 26.7491 70.8912 23.6953 69.7039C23.0851 69.4685 22.4443 69.3219 21.7924 69.2686C17.9207 68.8993 13.9765 71.3595 12.3242 70.38C13.2176 68.6665 14.3258 67.074 15.6221 65.6409C16.7453 64.3798 18.0555 63.2987 19.507 62.4354C20.3606 61.9301 21.284 61.5534 22.2475 61.3174C23.7547 60.9876 25.1002 61.1459 26.1852 61.7725C27.8836 62.7586 28.9389 64.8758 28.9389 67.8868Z" fill="black"/>
<path d="M18.6132 19.3455L19.6883 17.4789L15.1339 14.8406C15.0476 14.7979 14.9513 14.7796 14.8554 14.7878C14.7595 14.7959 14.6676 14.8301 14.5898 14.8867C14.3685 15.0315 14.1846 15.2264 14.0528 15.4556C13.921 15.6848 13.8451 15.9419 13.8312 16.2059C13.8217 16.298 13.8361 16.3911 13.8731 16.476C13.91 16.561 13.9683 16.6349 14.0423 16.6907L18.6132 19.3455Z" fill="#455A64"/>
<path d="M18.3923 18.8541C18.3923 19.3388 18.7221 19.5334 19.1508 19.2927C19.3725 19.1481 19.557 18.9533 19.6893 18.7241C19.8217 18.4949 19.8982 18.2378 19.9127 17.9735C19.9127 17.4887 19.5829 17.2909 19.1508 17.5349C18.9294 17.6795 18.7453 17.8744 18.6135 18.1036C18.4817 18.3328 18.4059 18.59 18.3923 18.8541Z" fill="#37474F"/>
<path d="M21.9242 20.3083L22.2177 19.8005L19.3288 18.1383C19.3064 18.125 19.2807 18.1179 19.2546 18.1179C19.2285 18.1179 19.2028 18.125 19.1804 18.1383C19.1199 18.1777 19.0696 18.2307 19.0335 18.2932C18.9974 18.3557 18.9765 18.4258 18.9726 18.4978C18.9701 18.5231 18.9743 18.5485 18.9847 18.5717C18.9951 18.5948 19.0114 18.6148 19.032 18.6297L21.9242 20.3083Z" fill="#F0F0F0"/>
<path d="M21.865 20.1732C21.865 20.3051 21.9573 20.3579 22.0728 20.2919C22.1324 20.2527 22.1819 20.2001 22.2174 20.1382C22.253 20.0763 22.2734 20.007 22.2772 19.9357C22.2772 19.8005 22.1849 19.7478 22.0728 19.8137C22.0123 19.8531 21.9619 19.9061 21.9258 19.9686C21.8897 20.031 21.8689 20.1011 21.865 20.1732Z" fill="#E0E0E0"/>
<path d="M36.7384 31.6597C35.7985 31.6234 33.8033 32.1346 33.1371 33.4669L27.5044 30.2152C27.5044 30.2152 28.1046 27.6857 24.2725 24.7275L36.7384 31.6597Z" fill="#3EC492"/>
<path opacity="0.2" d="M36.7384 31.6597C35.7985 31.6234 33.8033 32.1346 33.1371 33.4669L27.5044 30.2152C27.5044 30.2152 28.1046 27.6857 24.2725 24.7275L36.7384 31.6597Z" fill="black"/>
<path d="M32.7478 30.2911L41.5762 33.3482V31.3365L34.6111 27.3164L32.7478 30.2911Z" fill="#3EC492"/>
<path d="M36.3526 26.3105L43.3177 30.3307L41.5764 31.3365L34.6113 27.3164L36.3526 26.3105Z" fill="#3EC492"/>
<path opacity="0.4" d="M36.3526 26.3105L43.3177 30.3307L41.5764 31.3365L34.6113 27.3164L36.3526 26.3105Z" fill="white"/>
<path d="M41.5764 33.3481L43.3177 32.3423V30.3306L41.5764 31.3364V33.3481Z" fill="#3EC492"/>
<path opacity="0.1" d="M41.5764 33.3481L43.3177 32.3423V30.3306L41.5764 31.3364V33.3481Z" fill="black"/>
<path d="M27.1975 23.0489L20.2324 19.0288L21.9737 18.0229L28.9388 22.0431L27.1975 23.0489Z" fill="#3EC492"/>
<path opacity="0.4" d="M27.1975 23.0489L20.2324 19.0288L21.9737 18.0229L28.9388 22.0431L27.1975 23.0489Z" fill="white"/>
<path d="M20.2324 21.0372L25.4563 26.0632L27.1975 23.0489L20.2324 19.0288V21.0372Z" fill="#3EC492"/>
<path d="M35.1026 24.8693C34.7679 24.5012 34.3826 24.1826 33.9583 23.9228L28.2991 20.6546C28.1135 20.5553 27.9003 20.5202 27.6927 20.5548C27.4851 20.5894 27.2948 20.6918 27.1514 20.8459L26.383 21.7199C26.0705 22.1045 25.8211 22.5364 25.6443 22.9994L24.4043 26.604C24.3408 26.8047 24.3462 27.0208 24.4197 27.218C24.4933 27.4152 24.6306 27.5822 24.8099 27.6923L30.4691 30.9605C30.6732 31.0653 30.8993 31.1199 31.1287 31.1199C31.3581 31.1199 31.5842 31.0653 31.7883 30.9605L32.2236 30.7066C32.6389 30.4445 32.9904 30.0929 33.2525 29.6776L34.2419 27.966C34.504 27.5507 34.8555 27.1992 35.2708 26.9371L36.3591 26.3105L35.1026 24.8693Z" fill="#3EC492"/>
<path opacity="0.1" d="M35.1026 24.8693C34.7679 24.5012 34.3826 24.1826 33.9583 23.9228L28.2991 20.6546C28.1135 20.5553 27.9003 20.5202 27.6927 20.5548C27.4851 20.5894 27.2948 20.6918 27.1514 20.8459L26.383 21.7199C26.0705 22.1045 25.8211 22.5364 25.6443 22.9994L24.4043 26.604C24.3408 26.8047 24.3462 27.0208 24.4197 27.218C24.4933 27.4152 24.6306 27.5822 24.8099 27.6923L30.4691 30.9605C30.6732 31.0653 30.8993 31.1199 31.1287 31.1199C31.3581 31.1199 31.5842 31.0653 31.7883 30.9605L32.2236 30.7066C32.6389 30.4445 32.9904 30.0929 33.2525 29.6776L34.2419 27.966C34.504 27.5507 34.8555 27.1992 35.2708 26.9371L36.3591 26.3105L35.1026 24.8693Z" fill="black"/>
<path d="M33.3614 25.74L34.1166 24.8693C34.1814 24.8022 34.2296 24.7208 34.2573 24.6317C34.285 24.5426 34.2914 24.4482 34.276 24.3562C34.2606 24.2642 34.2238 24.177 34.1686 24.1018C34.1135 24.0265 34.0414 23.9652 33.9583 23.9228L28.2991 20.6546C28.1136 20.5553 27.9003 20.5202 27.6927 20.5548C27.4851 20.5894 27.2948 20.6918 27.1515 20.8459L26.3831 21.7199C26.319 21.7875 26.2716 21.8691 26.2446 21.9583C26.2175 22.0474 26.2116 22.1417 26.2273 22.2335C26.243 22.3253 26.2798 22.4122 26.3349 22.4874C26.39 22.5625 26.4618 22.6238 26.5447 22.6663L32.2038 25.9345C32.3907 26.0365 32.6063 26.0728 32.8163 26.0375C33.0262 26.0022 33.2181 25.8974 33.3614 25.74Z" fill="#3EC492"/>
<path d="M32.6226 27.0229L31.376 30.6242C31.349 30.7131 31.3017 30.7946 31.2379 30.8622C31.174 30.9298 31.0954 30.9816 31.0081 31.0136C30.9208 31.0455 30.8273 31.0568 30.7349 31.0464C30.6425 31.0361 30.5538 31.0044 30.4757 30.954L24.8165 27.7023C24.6372 27.5921 24.4998 27.4252 24.4263 27.2279C24.3528 27.0307 24.3474 26.8146 24.4109 26.614L25.6575 23.0094C25.6845 22.9204 25.7318 22.8389 25.7956 22.7714C25.8595 22.7038 25.9381 22.652 26.0254 22.62C26.1127 22.588 26.2062 22.5768 26.2986 22.5871C26.391 22.5974 26.4797 22.6291 26.5578 22.6796L32.217 25.9478C32.3927 26.0581 32.5276 26.2229 32.6008 26.417C32.6741 26.6112 32.6817 26.824 32.6226 27.0229Z" fill="#455A64"/>
<path d="M30.7757 30.4394L25.1166 27.1712C25.06 27.1299 25.0167 27.0729 24.9921 27.0072C24.9675 26.9416 24.9626 26.8702 24.9781 26.8019L26.228 23.1973C26.229 23.1896 26.229 23.1819 26.228 23.1742L31.9102 26.4556C31.9675 26.4962 32.0112 26.5532 32.0353 26.6192C32.0595 26.6852 32.063 26.7569 32.0454 26.8249L30.7988 30.4262C30.8001 30.4328 30.8001 30.4395 30.7988 30.446L30.7757 30.4394Z" fill="#EBEBEB"/>
<path d="M26.4917 23.7744L25.4463 26.8579L30.5052 29.826L30.7196 29.2522C30.7196 29.2522 27.9659 27.8572 27.1975 26.8217C26.4291 25.7861 26.4917 23.7744 26.4917 23.7744Z" fill="#FAFAFA"/>
<path d="M24.0447 20.2259C23.9802 20.2258 23.9174 20.2049 23.8658 20.1662C23.8141 20.1276 23.7762 20.0734 23.7578 20.0116L22.874 17.149L18.6955 14.7383C18.6293 14.7007 18.5798 14.6394 18.557 14.5668L17.4786 11.0611C17.4634 10.9873 17.4763 10.9104 17.5147 10.8455C17.5531 10.7806 17.6143 10.7324 17.6864 10.7101C17.7584 10.6879 17.8362 10.6933 17.9044 10.7253C17.9727 10.7572 18.0267 10.8135 18.0558 10.8831L19.1078 14.2766L23.2862 16.6873C23.3524 16.7248 23.402 16.7861 23.4247 16.8588L24.3415 19.8269C24.3532 19.8646 24.3574 19.9042 24.3538 19.9435C24.3502 19.9828 24.3389 20.021 24.3205 20.0559C24.3022 20.0908 24.2771 20.1218 24.2467 20.147C24.2164 20.1722 24.1813 20.1912 24.1436 20.2029C24.1124 20.2166 24.0788 20.2244 24.0447 20.2259Z" fill="#E0E0E0"/>
<path d="M19.5926 8.87795L17.4787 7.66433C17.3993 7.60586 17.3055 7.57007 17.2073 7.56077C17.1092 7.55148 17.0103 7.56903 16.9213 7.61156C16.8191 7.67422 16.4036 7.90177 16.2948 7.97433C16.2209 8.03248 16.1629 8.10827 16.126 8.19471C16.0891 8.28115 16.0746 8.37547 16.0837 8.46901V9.48805C16.0991 9.75971 16.1781 10.0239 16.3144 10.2594C16.4508 10.4949 16.6406 10.6949 16.8686 10.8435L18.9726 12.0571C19.0505 12.1145 19.1422 12.1502 19.2383 12.1606C19.3345 12.171 19.4317 12.1558 19.5201 12.1165L20.1368 11.7603C20.217 11.7039 20.2807 11.627 20.3213 11.5377C20.3619 11.4485 20.3779 11.35 20.3676 11.2524V10.2235C20.3521 9.95435 20.274 9.69256 20.1394 9.45896C20.0049 9.22536 19.8176 9.02641 19.5926 8.87795Z" fill="#E0E0E0"/>
<path d="M16.8752 10.8435L18.9793 12.0571C19.4113 12.3077 19.7609 12.1066 19.7609 11.6053V10.5896C19.7469 10.3179 19.6688 10.0535 19.533 9.81791C19.3971 9.58231 19.2074 9.38225 18.9793 9.23412L16.8752 8.01721C16.4432 7.76657 16.0903 7.97104 16.0903 8.46902V9.48806C16.1057 9.75972 16.1847 10.0239 16.3211 10.2594C16.4574 10.4949 16.6473 10.6949 16.8752 10.8435Z" fill="#F0F0F0"/>
<path d="M28.9851 27.0822C28.9683 27.1496 28.9359 27.2121 28.8906 27.2646C28.8452 27.3171 28.788 27.3582 28.7238 27.3846C28.6596 27.4109 28.59 27.4218 28.5208 27.4162C28.4516 27.4106 28.3847 27.3889 28.3255 27.3526C28.1946 27.2683 28.0957 27.1427 28.0443 26.9957C27.9929 26.8488 27.9921 26.6889 28.0419 26.5414C28.0592 26.4744 28.0919 26.4124 28.1374 26.3602C28.1829 26.3081 28.2399 26.2673 28.304 26.241C28.368 26.2148 28.4372 26.2038 28.5062 26.209C28.5752 26.2142 28.6421 26.2354 28.7014 26.2709C28.8323 26.3553 28.9312 26.4809 28.9826 26.6278C29.034 26.7748 29.0348 26.9347 28.9851 27.0822Z" fill="#E0E0E0"/>
<path d="M45.2898 33.777L45.5833 33.2724L42.6944 31.6004C42.6719 31.587 42.6463 31.58 42.6202 31.58C42.594 31.58 42.5684 31.587 42.546 31.6004C42.4855 31.6397 42.4351 31.6928 42.399 31.7552C42.3629 31.8177 42.3421 31.8878 42.3382 31.9598C42.336 31.9851 42.3403 32.0104 42.3507 32.0335C42.3611 32.0566 42.3772 32.0766 42.3976 32.0917L45.2898 33.777Z" fill="#F0F0F0"/>
<path d="M45.2305 33.6384C45.2305 33.7703 45.3228 33.823 45.4382 33.7571C45.4984 33.7174 45.5484 33.6642 45.5845 33.6018C45.6205 33.5394 45.6416 33.4695 45.646 33.3976C45.646 33.2657 45.5504 33.2129 45.4382 33.2789C45.3778 33.3182 45.3274 33.3713 45.2913 33.4337C45.2552 33.4962 45.2344 33.5663 45.2305 33.6384Z" fill="#E0E0E0"/>
<path d="M48.5216 36.5439L49.6 34.6839L45.0457 32.0456C44.9589 32.0026 44.862 31.9842 44.7655 31.9924C44.669 32.0005 44.5766 32.0349 44.4982 32.0918C44.2774 32.2369 44.0937 32.4319 43.9619 32.661C43.8302 32.8902 43.7541 33.147 43.7397 33.4109C43.731 33.5025 43.7459 33.5948 43.7828 33.679C43.8197 33.7633 43.8776 33.8367 43.9508 33.8924L48.5216 36.5439Z" fill="#455A64"/>
<path d="M48.3008 36.0524C48.3008 36.5372 48.6306 36.7351 49.0626 36.491C49.284 36.3464 49.4681 36.1516 49.5999 35.9223C49.7317 35.6931 49.8075 35.436 49.8211 35.1719C49.8211 34.6871 49.4913 34.4892 49.0626 34.7333C48.8402 34.8771 48.6552 35.0717 48.5227 35.301C48.3903 35.5304 48.3142 35.7879 48.3008 36.0524Z" fill="#263238"/>
<path d="M48.2117 31.6597C48.1585 31.6599 48.1063 31.6462 48.06 31.6201L40.9992 27.5439L40.2341 29.1731C40.217 29.2088 40.193 29.2408 40.1636 29.2673C40.1341 29.2937 40.0997 29.3141 40.0623 29.3273C40.025 29.3405 39.9854 29.3462 39.9458 29.344C39.9063 29.3419 39.8675 29.332 39.8318 29.3149C39.7961 29.2978 39.764 29.2738 39.7376 29.2443C39.7111 29.2149 39.6907 29.1804 39.6776 29.1431C39.6644 29.1057 39.6587 29.0661 39.6608 29.0266C39.663 28.987 39.6729 28.9483 39.69 28.9125L40.6068 26.9932C40.6247 26.9556 40.6504 26.9223 40.6823 26.8956C40.7141 26.8689 40.7514 26.8493 40.7915 26.8382C40.8306 26.8253 40.8721 26.8209 40.9131 26.8255C40.954 26.83 40.9936 26.8434 41.0289 26.8646L48.0897 30.9407L48.868 29.3149C48.9025 29.2427 48.9643 29.1873 49.0398 29.1607C49.1152 29.1341 49.1981 29.1385 49.2703 29.1731C49.3425 29.2076 49.3979 29.2694 49.4245 29.3449C49.4511 29.4203 49.4467 29.5033 49.4121 29.5754L48.4788 31.4948C48.4606 31.5315 48.4352 31.5642 48.404 31.5909C48.3728 31.6175 48.3366 31.6376 48.2974 31.6498C48.2695 31.6575 48.2406 31.6609 48.2117 31.6597Z" fill="#E0E0E0"/>
<path d="M50.7872 26.8909L48.6832 25.674C48.6034 25.6165 48.5096 25.5813 48.4117 25.572C48.3137 25.5628 48.2151 25.5798 48.1259 25.6212C48.0203 25.6839 47.6048 25.9114 47.496 25.984C47.4232 26.0429 47.3662 26.1189 47.3299 26.2052C47.2936 26.2915 47.2793 26.3855 47.2882 26.4787V27.4977C47.3029 27.7692 47.3814 28.0333 47.5172 28.2688C47.6529 28.5042 47.8423 28.7044 48.0698 28.8532L50.1738 30.0701C50.2528 30.1266 50.3452 30.1615 50.4418 30.1713C50.5384 30.1811 50.6359 30.1656 50.7246 30.1261C50.8334 30.0668 51.2325 29.8326 51.338 29.77C51.419 29.7151 51.4833 29.639 51.5241 29.55C51.5648 29.461 51.5803 29.3626 51.5688 29.2654V28.2463C51.5549 27.9747 51.4768 27.7103 51.3409 27.4747C51.2051 27.2391 51.0153 27.039 50.7872 26.8909Z" fill="#E0E0E0"/>
<path d="M48.0765 28.8532L50.1806 30.0701C50.6159 30.3174 50.9655 30.1162 50.9655 29.6183V28.5992C50.9506 28.3274 50.8718 28.063 50.7354 27.8275C50.599 27.5919 50.4089 27.3919 50.1806 27.2438L48.0765 26.0269C47.6445 25.7795 47.2949 25.9807 47.2949 26.4787V27.4977C47.3097 27.7691 47.3881 28.0333 47.5239 28.2688C47.6597 28.5042 47.849 28.7044 48.0765 28.8532Z" fill="#F0F0F0"/>
</svg>
