<svg width="41" height="42" viewBox="0 0 41 42" fill="none" xmlns="http://www.w3.org/2000/svg">
<path d="M35.5604 16.8431C35.0251 15.0959 32.8407 13.6506 30.8021 14.2216C30.4796 14.3115 30.1702 14.443 29.8816 14.6127C27.901 15.7562 26.2965 18.5368 26.2965 20.8253C26.2912 21.2094 26.3448 21.5921 26.4556 21.9599C26.9909 23.7071 29.1753 25.145 31.214 24.574C31.5357 24.4839 31.8441 24.3519 32.1315 24.1814C34.1121 23.0379 35.7181 20.2573 35.7181 17.9703C35.7222 17.5888 35.6691 17.2089 35.5604 16.8431Z" fill="#455A64"/>
<path d="M32.1264 24.1815C34.1071 23.038 35.713 20.2573 35.713 17.9703C35.713 15.6833 34.1071 14.7554 32.1264 15.8989C30.1457 17.0424 28.5398 19.8216 28.5398 22.1101C28.5398 24.3986 30.1517 25.325 32.1264 24.1815Z" fill="#37474F"/>
<path d="M30.5295 23.9807C29.3176 23.9807 29.2239 22.5398 29.2239 22.0982C29.2239 20.064 30.7109 17.4885 32.47 16.4744C32.8493 16.236 33.2835 16.0988 33.7309 16.0759C34.9443 16.0759 35.038 17.5168 35.038 17.9584C35.038 19.9896 33.551 22.5681 31.7919 23.5822C31.412 23.8207 30.9774 23.9579 30.5295 23.9807Z" fill="#F5F5F5"/>
<path d="M30.9703 22.9695C30.0216 22.9695 29.9487 21.8662 29.9487 21.5286C29.9487 20.0312 31.0432 18.1338 32.3398 17.3859C32.6269 17.207 32.9551 17.1046 33.293 17.0885C34.2402 17.0885 34.3145 18.1903 34.3145 18.5279C34.3145 20.0253 33.2186 21.9227 31.922 22.6706C31.6357 22.8505 31.308 22.9534 30.9703 22.9695ZM33.293 17.2357C32.9809 17.2521 32.6783 17.3483 32.4142 17.5152C31.1591 18.2394 30.0974 20.0773 30.0974 21.5301C30.0974 21.8275 30.1599 22.8223 30.9703 22.8223C31.2819 22.8059 31.584 22.7096 31.8476 22.5427C33.1041 21.8171 34.1658 19.9792 34.1658 18.5279C34.1658 18.2245 34.1019 17.2357 33.293 17.2357Z" fill="#E0E0E0"/>
<path d="M32.1248 18.4387C32.8861 17.9926 33.5032 18.3554 33.5032 19.2342C33.5032 20.113 32.8861 21.1836 32.1248 21.6238C31.3635 22.0639 30.7449 21.7071 30.7449 20.8268C30.7449 19.9465 31.3694 18.8758 32.1248 18.4387Z" fill="#455A64"/>
<path d="M32.1254 19.4796C32.3857 19.3309 32.5983 19.4514 32.5983 19.7517C32.5898 19.916 32.5425 20.0758 32.4603 20.2182C32.3781 20.3606 32.2634 20.4816 32.1254 20.5711C31.8637 20.7198 31.6526 20.5993 31.6526 20.2975C31.6613 20.1335 31.7087 19.974 31.7909 19.8318C31.8731 19.6897 31.9877 19.569 32.1254 19.4796Z" fill="#37474F"/>
<path d="M28.1011 23.6432L22.0327 20.1399C22.0327 20.1399 16.7301 25.319 14.2081 24.5354C14.2081 24.5354 13.5672 31.2551 16.5472 31.8335C19.5271 32.412 23.4275 28.7644 24.8565 27.2908C26.2854 25.8172 28.1011 23.6432 28.1011 23.6432Z" fill="#3EC492"/>
<path opacity="0.4" d="M28.1011 23.6432L22.0327 20.1399C22.0327 20.1399 16.7301 25.319 14.2081 24.5354C14.2081 24.5354 13.5672 31.2551 16.5472 31.8335C19.5271 32.412 23.4275 28.7644 24.8565 27.2908C26.2854 25.8172 28.1011 23.6432 28.1011 23.6432Z" fill="black"/>
<path d="M34.3769 12.855C33.8 12.5159 31.6111 11.258 31.0401 10.9219C30.4261 10.5637 29.728 10.3749 29.0171 10.3749C28.3062 10.3749 27.6081 10.5637 26.994 10.9219L23.6171 12.8401C22.1628 13.6803 19.2885 15.3159 19.0981 16.9858C18.8498 19.1583 20.7189 22.4327 18.7219 24.5918L22.032 26.5026L36.3769 17.5806V16.3479C36.3805 15.6412 36.1974 14.946 35.8463 14.3327C35.4951 13.7194 34.9882 13.2096 34.3769 12.855Z" fill="#3EC492"/>
<path opacity="0.2" d="M22.5408 20.7866C22.3609 19.7457 21.6709 18.4714 20.7564 17.9464L20.7401 17.936C19.83 17.4111 19.0464 17.8409 19.2263 18.8758C19.5579 20.794 20.1929 22.9977 18.7178 24.5918L22.0278 26.5026C23.5014 24.9085 22.8724 22.7063 22.5408 20.7866Z" fill="black"/>
<path opacity="0.1" d="M30.3012 12.8416L26.9213 14.7569C25.467 15.5955 22.5927 17.2297 22.4023 18.8966C22.154 21.0691 24.0231 24.345 22.0261 26.5026L36.3711 17.5807V16.3479C36.3696 13.2342 32.9986 11.2833 30.3012 12.8416Z" fill="black"/>
<path d="M34.4155 13.1911C33.4356 12.6364 32.0929 12.4877 30.301 13.4349C30.2609 13.4558 30.2178 13.4766 30.1776 13.5004L30.0408 13.5762C27.5947 14.9874 25.6111 18.4208 25.6111 21.2476C25.6111 21.2996 25.6111 21.3531 25.6111 21.4082C25.6231 21.7094 25.7112 22.0027 25.8672 22.2606C26.0232 22.5186 26.2421 22.7328 26.5033 22.8833C26.7754 23.0413 27.0845 23.1245 27.3992 23.1245C27.7139 23.1245 28.023 23.0413 28.2951 22.8833L30.2594 21.7502L35.9918 18.4387L38.3189 17.1004C38.3189 17.1004 37.7063 15.0989 36.1107 14.171C35.8431 14.0149 34.7219 13.3636 34.4155 13.1911Z" fill="#3EC492"/>
<path d="M27.3488 23.1183C27.6031 23.1271 27.8564 23.0825 28.0923 22.9874C27.8262 23.0968 27.5378 23.1407 27.2512 23.1154C26.9647 23.0901 26.6884 22.9964 26.4456 22.842C26.2028 22.6877 26.0006 22.4773 25.8561 22.2286C25.7115 21.9799 25.6289 21.7 25.615 21.4127C25.615 21.3577 25.615 21.3041 25.615 21.2506C25.615 19.6774 26.2321 17.9123 27.2001 16.4164L28.8551 17.3681C27.8856 18.8655 27.2715 20.6291 27.2715 22.2023C27.27 22.5093 27.2959 22.8159 27.3488 23.1183Z" fill="#3EC492"/>
<path opacity="0.1" d="M38.3169 17.1004V17.0885C38.3169 17.0885 38.3169 17.0751 38.3094 17.0677C38.302 17.0454 38.2916 17.0186 38.2797 16.9859C38.2797 16.971 38.2663 16.9532 38.2604 16.9353V16.9279L38.2381 16.8714C38.2113 16.8045 38.1786 16.7227 38.1414 16.6379C38.128 16.6097 38.1161 16.58 38.1028 16.5517C38.0596 16.4565 38.0106 16.3539 37.9541 16.2454L37.8946 16.1353C37.8128 15.9866 37.7176 15.8275 37.6106 15.6669C37.4988 15.4986 37.3782 15.3363 37.2492 15.1807C37.1111 15.0153 36.9621 14.8593 36.8031 14.7138C36.6388 14.5626 36.4623 14.4253 36.2752 14.3034C36.2291 14.2721 36.1816 14.2439 36.134 14.2156L36.1161 14.2052L36.0775 14.1829C35.099 13.6357 33.7607 13.493 31.9778 14.4357C31.9362 14.455 31.8946 14.4773 31.8529 14.4997L31.7161 14.577C29.27 15.9881 27.2879 19.4216 27.2879 22.2469C27.2867 22.554 27.3135 22.8606 27.3682 23.1628C27.7018 23.1747 28.032 23.0928 28.3213 22.9264L30.2857 21.7933L35.9912 18.4387L38.3184 17.1004H38.3169Z" fill="black"/>
<path opacity="0.4" d="M36.0429 14.1264C35.0659 13.5866 33.7321 13.4484 31.9596 14.3866C31.918 14.406 31.8763 14.4283 31.8347 14.4506L31.6979 14.5279C30.6139 15.1524 29.6161 16.174 28.8533 17.3636L27.1968 16.4075C27.9641 15.2179 28.9574 14.1963 30.0414 13.5718L30.1782 13.4945C30.2183 13.4721 30.2615 13.4498 30.3016 13.4305C32.086 12.4833 33.4362 12.632 34.4161 13.1866C34.7001 13.3532 35.6949 13.9257 36.0429 14.1264Z" fill="white"/>
<path d="M18.1702 15.6521V15.4127C18.1757 15.3093 18.2036 15.2083 18.2519 15.1166C18.3001 15.025 18.3676 14.9449 18.4497 14.8818L23.9516 11.1242C24.0378 11.072 24.1358 11.0426 24.2364 11.0387C24.3371 11.0348 24.4371 11.0566 24.527 11.1019L28.3516 13.3115C28.438 13.3666 28.51 13.4415 28.5617 13.5299C28.6134 13.6183 28.6433 13.7178 28.649 13.8201V14.6959C28.6433 14.7984 28.6134 14.8981 28.5617 14.9868C28.51 15.0754 28.438 15.1506 28.3516 15.206L22.872 18.3703C22.78 18.4175 22.6781 18.4422 22.5746 18.4422C22.4712 18.4422 22.3693 18.4175 22.2772 18.3703L18.4512 16.1606C18.368 16.1036 18.2993 16.0279 18.2505 15.9396C18.2017 15.8513 18.1742 15.7529 18.1702 15.6521Z" fill="#3EC492"/>
<path opacity="0.55" d="M18.1702 15.6521V15.4127C18.1757 15.3093 18.2036 15.2083 18.2519 15.1166C18.3001 15.025 18.3676 14.9449 18.4497 14.8818L23.9516 11.1242C24.0378 11.072 24.1358 11.0426 24.2364 11.0387C24.3371 11.0348 24.4371 11.0566 24.527 11.1019L28.3516 13.3115C28.438 13.3666 28.51 13.4415 28.5617 13.5299C28.6134 13.6183 28.6433 13.7178 28.649 13.8201V14.6959C28.6433 14.7984 28.6134 14.8981 28.5617 14.9868C28.51 15.0754 28.438 15.1506 28.3516 15.206L22.872 18.3703C22.78 18.4175 22.6781 18.4422 22.5746 18.4422C22.4712 18.4422 22.3693 18.4175 22.2772 18.3703L18.4512 16.1606C18.368 16.1036 18.2993 16.0279 18.2505 15.9396C18.2017 15.8513 18.1742 15.7529 18.1702 15.6521Z" fill="black"/>
<path d="M18.4635 15.2431L22.2895 17.4528C22.3793 17.4979 22.479 17.5194 22.5794 17.5155C22.6798 17.5116 22.7775 17.4824 22.8635 17.4305L28.3654 13.6729C28.4003 13.6566 28.4297 13.6303 28.4498 13.5974C28.4699 13.5645 28.4799 13.5263 28.4785 13.4878C28.477 13.4492 28.4643 13.412 28.4418 13.3806C28.4193 13.3493 28.3881 13.3252 28.352 13.3116L24.5275 11.1019C24.4375 11.0566 24.3375 11.0348 24.2368 11.0387C24.1362 11.0426 24.0382 11.072 23.952 11.1242L18.4501 14.8818C18.4152 14.8981 18.3858 14.9244 18.3657 14.9573C18.3456 14.9902 18.3356 15.0284 18.337 15.0669C18.3385 15.1055 18.3512 15.1427 18.3737 15.1741C18.3962 15.2054 18.4274 15.2295 18.4635 15.2431Z" fill="#3EC492"/>
<path opacity="0.45" d="M18.4635 15.2431L22.2895 17.4528C22.3793 17.4979 22.479 17.5194 22.5794 17.5155C22.6798 17.5116 22.7775 17.4824 22.8635 17.4305L28.3654 13.6729C28.4003 13.6566 28.4297 13.6303 28.4498 13.5974C28.4699 13.5645 28.4799 13.5263 28.4785 13.4878C28.477 13.4492 28.4643 13.412 28.4418 13.3806C28.4193 13.3493 28.3881 13.3252 28.352 13.3116L24.5275 11.1019C24.4375 11.0566 24.3375 11.0348 24.2368 11.0387C24.1362 11.0426 24.0382 11.072 23.952 11.1242L18.4501 14.8818C18.4152 14.8981 18.3858 14.9244 18.3657 14.9573C18.3456 14.9902 18.3356 15.0284 18.337 15.0669C18.3385 15.1055 18.3512 15.1427 18.3737 15.1741C18.3962 15.2054 18.4274 15.2295 18.4635 15.2431Z" fill="black"/>
<path opacity="0.2" d="M22.5844 17.5138V18.4387C22.4809 18.4417 22.3784 18.4176 22.287 18.3688L18.461 16.1607C18.3748 16.105 18.303 16.0298 18.2513 15.9412C18.1996 15.8526 18.1696 15.753 18.1636 15.6506V15.4112C18.1694 15.3138 18.1947 15.2186 18.2382 15.1312C18.2816 15.0438 18.3422 14.9661 18.4164 14.9027C18.3871 14.9225 18.3639 14.95 18.3492 14.9821C18.3346 15.0143 18.3292 15.0499 18.3335 15.0849C18.3378 15.12 18.3517 15.1532 18.3737 15.1809C18.3956 15.2085 18.4248 15.2296 18.458 15.2417L22.284 17.4499C22.3758 17.5 22.4802 17.5222 22.5844 17.5138Z" fill="black"/>
<path d="M25.8936 11.1926V10.9547C25.8995 10.8509 25.9279 10.7496 25.977 10.658C26.026 10.5663 26.0945 10.4864 26.1776 10.4239L29.4772 7.94209C29.5634 7.88995 29.6614 7.86055 29.762 7.85665C29.8627 7.85275 29.9627 7.87447 30.0527 7.91978L33.8787 10.1295C33.9649 10.1847 34.0368 10.2596 34.0885 10.348C34.1402 10.4364 34.1702 10.5358 34.1761 10.638V11.5138C34.1701 11.6162 34.14 11.7158 34.0883 11.8044C34.0367 11.893 33.9648 11.9682 33.8787 12.0239L30.6073 13.9109C30.5163 13.9571 30.4157 13.9812 30.3136 13.9812C30.2116 13.9812 30.1109 13.9571 30.0199 13.9109L26.188 11.7027C26.1024 11.6467 26.0311 11.5713 25.98 11.4828C25.9288 11.3942 25.8992 11.2948 25.8936 11.1926Z" fill="#3EC492"/>
<path opacity="0.55" d="M25.8936 11.1926V10.9547C25.8995 10.8509 25.9279 10.7496 25.977 10.658C26.026 10.5663 26.0945 10.4864 26.1776 10.4239L29.4772 7.94209C29.5634 7.88995 29.6614 7.86055 29.762 7.85665C29.8627 7.85275 29.9627 7.87447 30.0527 7.91978L33.8787 10.1295C33.9649 10.1847 34.0368 10.2596 34.0885 10.348C34.1402 10.4364 34.1702 10.5358 34.1761 10.638V11.5138C34.1701 11.6162 34.14 11.7158 34.0883 11.8044C34.0367 11.893 33.9648 11.9682 33.8787 12.0239L30.6073 13.9109C30.5163 13.9571 30.4157 13.9812 30.3136 13.9812C30.2116 13.9812 30.1109 13.9571 30.0199 13.9109L26.188 11.7027C26.1024 11.6467 26.0311 11.5713 25.98 11.4828C25.9288 11.3942 25.8992 11.2948 25.8936 11.1926Z" fill="black"/>
<path d="M26.1882 10.7852L30.0142 12.9934C30.1038 13.0393 30.2036 13.0613 30.3041 13.0574C30.4047 13.0535 30.5025 13.0238 30.5882 12.9711L33.8893 10.4893C33.9238 10.4728 33.9528 10.4465 33.9725 10.4138C33.9923 10.381 34.0021 10.3432 34.0007 10.305C33.9993 10.2668 33.9867 10.2298 33.9645 10.1986C33.9424 10.1674 33.9116 10.1434 33.8759 10.1294L30.044 7.91978C29.954 7.87447 29.854 7.85275 29.7534 7.85665C29.6527 7.86055 29.5547 7.88995 29.4685 7.94209L26.1778 10.4239C26.1427 10.4399 26.1132 10.4659 26.0928 10.4987C26.0725 10.5314 26.0622 10.5694 26.0633 10.608C26.0644 10.6465 26.0769 10.6839 26.0991 10.7154C26.1213 10.7469 26.1523 10.7712 26.1882 10.7852Z" fill="#3EC492"/>
<path opacity="0.45" d="M26.1882 10.7852L30.0142 12.9934C30.1038 13.0393 30.2036 13.0613 30.3041 13.0574C30.4047 13.0535 30.5025 13.0238 30.5882 12.9711L33.8893 10.4893C33.9238 10.4728 33.9528 10.4465 33.9725 10.4138C33.9923 10.381 34.0021 10.3432 34.0007 10.305C33.9993 10.2668 33.9867 10.2298 33.9645 10.1986C33.9424 10.1674 33.9116 10.1434 33.8759 10.1294L30.044 7.91978C29.954 7.87447 29.854 7.85275 29.7534 7.85665C29.6527 7.86055 29.5547 7.88995 29.4685 7.94209L26.1778 10.4239C26.1427 10.4399 26.1132 10.4659 26.0928 10.4987C26.0725 10.5314 26.0622 10.5694 26.0633 10.608C26.0644 10.6465 26.0769 10.6839 26.0991 10.7154C26.1213 10.7469 26.1523 10.7712 26.1882 10.7852Z" fill="black"/>
<path opacity="0.2" d="M30.307 13.0557V13.9776C30.2033 13.9802 30.1008 13.9556 30.0096 13.9063L26.188 11.7025C26.1016 11.6471 26.0296 11.572 25.9779 11.4833C25.9262 11.3947 25.8963 11.295 25.8906 11.1925V10.9546C25.8965 10.857 25.922 10.7616 25.9654 10.674C26.0088 10.5864 26.0693 10.5084 26.1434 10.4445C26.1141 10.4643 26.0909 10.4918 26.0763 10.524C26.0617 10.5562 26.0562 10.5917 26.0605 10.6268C26.0648 10.6619 26.0787 10.6951 26.1007 10.7227C26.1227 10.7504 26.1519 10.7715 26.185 10.7836L30.0096 12.9932C30.1009 13.0414 30.204 13.0631 30.307 13.0557Z" fill="black"/>
<path d="M28.1001 23.6432C28.1001 23.6432 23.0919 28.5146 19.6243 30.6053V31.896C23.4265 29.8529 28.1001 24.2811 28.1001 24.2811V23.6432Z" fill="#3EC492"/>
<path d="M19.6217 30.5978C19.1664 30.882 18.6793 31.1116 18.1704 31.2818C17.0194 31.6387 14.8588 30.4654 14.8588 25.3903C14.8742 22.9733 15.2159 20.5695 15.8745 18.2439C16.1808 17.1599 15.7258 15.8543 14.7503 15.2907L12.209 13.829C11.235 13.2669 9.91609 13.5584 9.41795 14.5725C8.03084 17.4447 7.33812 20.6027 7.39565 23.7918C7.43728 27.2729 8.56293 28.6141 9.34211 29.374C10.2596 30.2662 13.8135 32.7465 17.5057 32.5591C18.2529 32.4959 18.977 32.2684 19.6261 31.893" fill="#3EC492"/>
<path opacity="0.2" d="M14.0466 29.3696C13.1649 27.5689 12.6518 26.1845 10.4452 24.9086C8.75147 23.9317 7.78939 24.5012 7.61987 26.0789C7.99459 27.9198 8.76337 28.8045 9.34181 29.3681C10.2593 30.2603 13.8132 32.7406 17.5054 32.5532C15.9619 32.5547 14.9284 31.1703 14.0466 29.3696Z" fill="black"/>
<path opacity="0.2" d="M12.2816 22.4284C12.2661 22.5311 12.2292 22.6294 12.1734 22.717C12.1175 22.8046 12.044 22.8795 11.9574 22.9369L11.4414 23.2343C11.3635 23.2792 11.2709 23.2914 11.184 23.2683C11.0971 23.2451 11.0228 23.1886 10.9775 23.1109L10.2147 21.7875C10.1127 21.5931 10.0655 21.3747 10.0779 21.1555C10.2028 20.0313 10.7128 16.3481 12.2518 13.8529L14.4585 15.1228C14.4585 15.1228 12.6667 18.5637 12.2816 22.4284Z" fill="black"/>
<path d="M12.1305 22.342C12.1158 22.445 12.0792 22.5436 12.0233 22.6313C11.9674 22.719 11.8935 22.7937 11.8064 22.8506L11.2919 23.148C11.2532 23.1703 11.2106 23.1848 11.1663 23.1907C11.122 23.1965 11.0771 23.1935 11.034 23.1819C10.9909 23.1703 10.9505 23.1503 10.9151 23.123C10.8798 23.0958 10.8501 23.0618 10.8279 23.0231L10.0636 21.7011C9.96236 21.5065 9.9156 21.2882 9.92831 21.0692C10.0517 19.945 10.5618 16.2617 12.1008 13.7666L14.3075 15.0365C14.3075 15.0365 12.5172 18.4759 12.1305 22.342Z" fill="#3EC492"/>
<path opacity="0.2" d="M12.1305 22.342C12.1158 22.445 12.0792 22.5436 12.0233 22.6313C11.9674 22.719 11.8935 22.7937 11.8064 22.8506L11.2919 23.148C11.2532 23.1703 11.2106 23.1848 11.1663 23.1907C11.122 23.1965 11.0771 23.1935 11.034 23.1819C10.9909 23.1703 10.9505 23.1503 10.9151 23.123C10.8798 23.0958 10.8501 23.0618 10.8279 23.0231L10.0636 21.7011C9.96236 21.5065 9.9156 21.2882 9.92831 21.0692C10.0517 19.945 10.5618 16.2617 12.1008 13.7666L14.3075 15.0365C14.3075 15.0365 12.5172 18.4759 12.1305 22.342Z" fill="white"/>
<path d="M11.8147 21.316C11.8015 21.3161 11.7887 21.3125 11.7775 21.3056L10.4154 20.5205C10.3984 20.5103 10.3861 20.4938 10.3811 20.4746C10.3761 20.4555 10.3788 20.4351 10.3886 20.4179C10.3934 20.4094 10.3999 20.4019 10.4076 20.3959C10.4153 20.39 10.4241 20.3856 10.4335 20.3831C10.443 20.3806 10.4528 20.38 10.4625 20.3814C10.4721 20.3828 10.4814 20.3861 10.4898 20.3911L11.8593 21.1822C11.8761 21.1921 11.8885 21.2082 11.8937 21.2271C11.899 21.2459 11.8968 21.2661 11.8875 21.2833C11.8795 21.2949 11.8685 21.304 11.8557 21.3098C11.8428 21.3156 11.8286 21.3177 11.8147 21.316Z" fill="#455A64"/>
<path d="M11.7224 21.7413C11.7095 21.7412 11.6967 21.7381 11.6852 21.7324L10.4525 21.0201C10.444 21.0153 10.4365 21.0089 10.4305 21.0012C10.4246 20.9935 10.4202 20.9846 10.4177 20.9752C10.4152 20.9658 10.4146 20.956 10.416 20.9463C10.4174 20.9366 10.4207 20.9274 10.4257 20.919C10.4357 20.9022 10.4518 20.8898 10.4706 20.8845C10.4894 20.8793 10.5096 20.8815 10.5268 20.8907L11.7595 21.603C11.7735 21.6113 11.7844 21.6239 11.7905 21.6389C11.7966 21.654 11.7976 21.6706 11.7934 21.6863C11.7892 21.7019 11.78 21.7158 11.7672 21.7257C11.7543 21.7357 11.7386 21.7411 11.7224 21.7413Z" fill="#455A64"/>
<path d="M11.6305 22.1682C11.6175 22.1678 11.6047 22.1642 11.5933 22.1578L10.4974 21.5243C10.4825 21.5135 10.4722 21.4976 10.4684 21.4795C10.4646 21.4615 10.4676 21.4428 10.4769 21.4268C10.4861 21.4109 10.5009 21.399 10.5185 21.3934C10.536 21.3878 10.555 21.3889 10.5718 21.3965L11.6677 22.0284C11.6847 22.0386 11.697 22.0551 11.702 22.0743C11.707 22.0934 11.7043 22.1138 11.6944 22.131C11.688 22.1423 11.6786 22.1516 11.6674 22.1581C11.6562 22.1647 11.6435 22.1681 11.6305 22.1682Z" fill="#455A64"/>
<path d="M11.5386 22.5933C11.5255 22.5936 11.5125 22.5899 11.5014 22.5829L10.5423 22.0297C10.5252 22.0199 10.5126 22.0036 10.5075 21.9845C10.5023 21.9654 10.5049 21.945 10.5148 21.9279C10.5247 21.9107 10.5409 21.8982 10.56 21.893C10.5791 21.8879 10.5995 21.8905 10.6167 21.9004L11.5758 22.4535C11.5897 22.4618 11.6006 22.4744 11.6067 22.4895C11.6128 22.5045 11.6139 22.5211 11.6096 22.5368C11.6054 22.5524 11.5962 22.5663 11.5834 22.5762C11.5705 22.5862 11.5548 22.5916 11.5386 22.5918V22.5933Z" fill="#455A64"/>
<path d="M13.4041 22.7971L13.9157 23.0945C14.0029 23.149 14.0756 23.2239 14.1274 23.3128C14.1792 23.4016 14.2086 23.5018 14.2131 23.6045C14.2052 23.8852 14.1813 24.1652 14.1417 24.4432C14.0966 24.7306 13.9557 24.9943 13.742 25.1916C13.5282 25.3889 13.2541 25.5082 12.964 25.5302H12.9432C12.907 25.5342 12.8704 25.5298 12.8361 25.5175C12.8019 25.5052 12.7709 25.4852 12.7455 25.4591C12.7201 25.433 12.701 25.4015 12.6897 25.3669C12.6783 25.3323 12.675 25.2956 12.68 25.2596C12.8591 24.5045 12.9922 23.7393 13.0785 22.9681C13.0764 22.9294 13.0854 22.8909 13.1045 22.8572C13.1237 22.8235 13.1521 22.7961 13.1864 22.778C13.2207 22.76 13.2595 22.7522 13.2981 22.7556C13.3367 22.759 13.3735 22.7734 13.4041 22.7971Z" fill="#FAFAFA"/>
<path d="M9.04434 20.2766L8.67705 20.064C8.64336 20.0406 8.60433 20.0262 8.56357 20.0219C8.52281 20.0176 8.48163 20.0237 8.44384 20.0396C8.40605 20.0554 8.37287 20.0805 8.34735 20.1126C8.32184 20.1447 8.30482 20.1827 8.29787 20.2231C8.20116 20.6127 8.14584 21.0114 8.13281 21.4127C8.13281 22.229 8.40642 22.7747 8.58783 22.968C8.76925 23.1614 9.08151 23.2982 9.07705 23.0588C9.06256 22.2961 9.12835 21.534 9.27333 20.7851C9.28847 20.6873 9.27489 20.5872 9.23424 20.4969C9.1936 20.4066 9.12763 20.3301 9.04434 20.2766Z" fill="#FAFAFA"/>
<path d="M18.5167 31.0856C18.9007 30.9606 19.2721 30.7998 19.626 30.6053C19.1667 30.8839 18.678 31.1108 18.1688 31.2818C17.0208 31.6387 14.8587 30.4655 14.8587 25.3904C14.8738 22.9733 15.2159 20.5693 15.8758 18.2439C16.1806 17.1614 15.7271 15.8543 14.7502 15.2908L12.2089 13.8291C11.9258 13.6661 11.6089 13.5708 11.2829 13.5504C10.9569 13.53 10.6305 13.5852 10.3293 13.7116C10.6559 13.4896 11.0386 13.3644 11.4332 13.3505C11.8279 13.3365 12.2184 13.4344 12.5598 13.6328L15.0996 15.0989C16.0751 15.6625 16.5316 16.9681 16.2253 18.0521C15.5666 20.3782 15.225 22.7826 15.2096 25.2001C15.2067 30.2692 17.3658 31.441 18.5167 31.0856Z" fill="#3EC492"/>
<path opacity="0.1" d="M18.5166 31.0855C17.3657 31.4409 15.2066 30.2691 15.2066 25.1955C15.2219 22.778 15.5635 20.3737 16.2222 18.0476C16.3577 17.5442 16.3453 17.0125 16.1865 16.516L15.8401 16.7182C15.9973 17.2129 16.0097 17.7423 15.8757 18.2439C15.2158 20.5692 14.8737 22.9732 14.8586 25.3903C14.8586 30.4654 17.0207 31.6357 18.1687 31.2818C18.6779 31.1108 19.1666 30.8839 19.6259 30.6052C19.2721 30.7998 18.9006 30.9606 18.5166 31.0855Z" fill="black"/>
<path opacity="0.4" d="M15.0969 15.0944L12.5571 13.6283C12.2157 13.4299 11.8252 13.332 11.4305 13.3459C11.0359 13.3599 10.6532 13.4851 10.3267 13.7071C10.6279 13.5807 10.9542 13.5255 11.2802 13.5459C11.6062 13.5662 11.9231 13.6616 12.2062 13.8245L14.7475 15.2907C15.2765 15.6136 15.6653 16.1229 15.8374 16.7182L16.1839 16.516C16.0107 15.9236 15.6232 15.4168 15.0969 15.0944Z" fill="white"/>
<path d="M12.4977 30.1621C11.9638 28.4149 9.77945 26.9681 7.7393 27.5406C7.41702 27.6317 7.1077 27.7636 6.81885 27.9331C4.83818 29.0752 3.23224 31.8573 3.23224 34.1443C3.22735 34.529 3.28151 34.9121 3.39283 35.2804C3.92666 37.0291 6.11105 38.467 8.1512 37.8945C8.4729 37.8031 8.78169 37.6712 9.07015 37.5019C11.0479 36.3569 12.6464 33.5763 12.6464 31.2893C12.6543 30.9082 12.6041 30.5281 12.4977 30.1621Z" fill="#455A64"/>
<path d="M9.06644 37.5004C11.0471 36.357 12.6456 33.5763 12.6456 31.2893C12.6456 29.0023 11.0397 28.0744 9.06049 29.2164C7.08131 30.3584 5.47388 33.1406 5.47388 35.4276C5.47388 37.7146 7.08577 38.6439 9.06644 37.5004Z" fill="#37474F"/>
<path d="M7.46524 37.2982C6.25335 37.2982 6.15967 35.8574 6.15967 35.4157C6.15967 33.383 7.64666 30.806 9.40577 29.7934C9.78473 29.5541 10.2191 29.4169 10.6667 29.3949C11.8786 29.3949 11.9738 30.8358 11.9738 31.2774C11.9738 33.3087 10.4868 35.8871 8.72621 36.8997C8.34716 37.1388 7.91285 37.2761 7.46524 37.2982Z" fill="#F5F5F5"/>
<path d="M7.90608 36.2825C6.95738 36.2825 6.88452 35.1807 6.88452 34.8431C6.88452 33.3457 7.97895 31.4483 9.2756 30.7004C9.56191 30.5209 9.88973 30.4185 10.2273 30.403C11.176 30.403 11.2503 31.5048 11.2503 31.8424C11.2503 33.3398 10.1544 35.2372 8.85776 35.9851C8.57145 36.1646 8.24363 36.267 7.90608 36.2825ZM10.2273 30.5502C9.91597 30.5669 9.61405 30.6626 9.34995 30.8283C8.09344 31.5539 7.03322 33.3918 7.03322 34.8431C7.03322 35.1405 7.09567 36.1338 7.90608 36.1338C8.21761 36.1172 8.51968 36.0209 8.78341 35.8543C10.0399 35.1301 11.1016 33.2922 11.1016 31.8394C11.1016 31.542 11.0377 30.5547 10.2273 30.5547V30.5502Z" fill="#E0E0E0"/>
<path d="M9.06669 31.7532C9.82803 31.3071 10.4451 31.6699 10.4451 32.5502C10.4451 33.4305 9.82803 34.4981 9.06669 34.9442C8.30536 35.3903 7.68677 35.0275 7.68677 34.1472C7.68677 33.2669 8.30387 32.1933 9.06669 31.7532Z" fill="#455A64"/>
<path d="M9.06661 32.8015C9.32683 32.6528 9.53799 32.7717 9.53799 33.0736C9.52942 33.2374 9.48226 33.3969 9.40034 33.539C9.31842 33.6812 9.20407 33.8019 9.06661 33.8915C8.8049 34.0401 8.59375 33.9212 8.59375 33.6193C8.60248 33.4554 8.64987 33.2958 8.73205 33.1537C8.81424 33.0115 8.92888 32.8909 9.06661 32.8015Z" fill="#37474F"/>
<path d="M11.9564 27.8528C11.4671 27.5703 9.64856 26.5532 9.20246 26.2647C8.42477 25.7651 7.32737 25.8082 6.10655 26.513C4.91696 27.1941 3.85822 28.3718 3.08796 29.716C3.05912 29.7656 3.04043 29.8204 3.03297 29.8773C3.02551 29.9342 3.02944 29.992 3.04452 30.0473C3.0596 30.1027 3.08554 30.1545 3.12082 30.1997C3.15611 30.245 3.20003 30.2827 3.25004 30.3108C3.86268 30.6617 5.06268 31.3517 5.7125 31.7354C6.45599 32.1815 8.24038 31.0677 9.98165 31.2342C10.2756 31.2582 10.5645 31.3243 10.8396 31.4305C12.0158 31.8885 12.4218 32.0446 12.8634 31.8841C12.9343 31.8577 12.9967 31.8127 13.0441 31.7538C13.0915 31.6949 13.122 31.6243 13.1326 31.5495C13.1795 31.2389 13.2034 30.9253 13.204 30.6112C13.204 29.2521 12.7281 28.2974 11.9564 27.8528Z" fill="#3EC492"/>
<path opacity="0.3" d="M11.956 27.8528C11.4667 27.5703 9.64815 26.5532 9.20206 26.2647C8.42436 25.7651 7.32697 25.8082 6.10615 26.513C5.49964 26.8714 4.94862 27.3162 4.47046 27.8335L10.527 31.3309C10.632 31.3573 10.7353 31.3901 10.8363 31.429C12.0125 31.887 12.4184 32.0432 12.8601 31.8826C12.9309 31.8562 12.9933 31.8112 13.0407 31.7523C13.0881 31.6934 13.1187 31.6228 13.1292 31.548C13.1762 31.2374 13.2 30.9238 13.2006 30.6097C13.2035 29.2521 12.7277 28.2974 11.956 27.8528Z" fill="white"/>
<path d="M13.2041 30.6097C13.2023 30.9996 13.1665 31.3887 13.097 31.7725C12.5364 32.0877 12.2167 31.9643 10.8398 31.429C10.5647 31.3228 10.2757 31.2567 9.98179 31.2327C8.23607 31.0662 6.45763 32.1755 5.71265 31.7338C6.11546 30.9612 6.61516 30.2432 7.19964 29.597C7.70607 29.0284 8.29685 28.5409 8.95131 28.1517C9.33619 27.9238 9.75257 27.754 10.187 27.6476C10.8666 27.4989 11.4732 27.5702 11.9625 27.8528C12.7283 28.2974 13.2041 29.252 13.2041 30.6097Z" fill="#3EC492"/>
<path opacity="0.1" d="M13.2041 30.6097C13.2023 30.9996 13.1665 31.3887 13.097 31.7725C12.5364 32.0877 12.2167 31.9643 10.8398 31.429C10.5647 31.3228 10.2757 31.2567 9.98179 31.2327C8.23607 31.0662 6.45763 32.1755 5.71265 31.7338C6.11546 30.9612 6.61516 30.2432 7.19964 29.597C7.70607 29.0284 8.29685 28.5409 8.95131 28.1517C9.33619 27.9238 9.75257 27.754 10.187 27.6476C10.8666 27.4989 11.4732 27.5702 11.9625 27.8528C12.7283 28.2974 13.2041 29.252 13.2041 30.6097Z" fill="black"/>
<path d="M8.54855 8.72266L9.0333 7.88102L6.97977 6.69143C6.94087 6.67219 6.89744 6.66396 6.85419 6.66763C6.81095 6.6713 6.76953 6.68673 6.73442 6.71225C6.63468 6.77753 6.55173 6.86541 6.4923 6.96876C6.43288 7.0721 6.39866 7.188 6.39241 7.30705C6.38809 7.34859 6.39459 7.39055 6.41126 7.42885C6.42794 7.46715 6.45422 7.50049 6.48758 7.52563L8.54855 8.72266Z" fill="#455A64"/>
<path d="M8.448 8.50121C8.448 8.7198 8.5967 8.80753 8.79001 8.69898C8.88994 8.63378 8.97312 8.54595 9.03279 8.44261C9.09247 8.33928 9.12697 8.22334 9.1335 8.10419C9.1335 7.8856 8.9848 7.79638 8.79001 7.90642C8.69018 7.97161 8.60717 8.05947 8.54773 8.16284C8.4883 8.2662 8.45413 8.38214 8.448 8.50121Z" fill="#37474F"/>
<path d="M10.0409 9.15695L10.1732 8.92795L8.87063 8.17851C8.86051 8.17249 8.84895 8.16931 8.83717 8.16931C8.8254 8.16931 8.81384 8.17249 8.80372 8.17851C8.77645 8.19625 8.75375 8.22018 8.73748 8.24834C8.7212 8.2765 8.7118 8.30811 8.71004 8.34059C8.70891 8.35198 8.71078 8.36347 8.71548 8.37391C8.72018 8.38434 8.72753 8.39337 8.7368 8.40007L10.0409 9.15695Z" fill="#F0F0F0"/>
<path d="M10.0144 9.0959C10.0144 9.15538 10.056 9.17917 10.1081 9.14943C10.135 9.13176 10.1573 9.10802 10.1733 9.08013C10.1893 9.05223 10.1986 9.02096 10.2003 8.98884C10.2003 8.92787 10.1586 8.90408 10.1081 8.93382C10.0808 8.95156 10.0581 8.97548 10.0418 9.00365C10.0256 9.03181 10.0162 9.06342 10.0144 9.0959Z" fill="#E0E0E0"/>
<path d="M16.7207 14.2751C16.2969 14.2587 15.3972 14.4892 15.0969 15.09L12.5571 13.6238C12.5571 13.6238 12.8277 12.4833 11.0999 11.1494L16.7207 14.2751Z" fill="#3EC492"/>
<path opacity="0.2" d="M16.7207 14.2751C16.2969 14.2587 15.3972 14.4892 15.0969 15.09L12.5571 13.6238C12.5571 13.6238 12.8277 12.4833 11.0999 11.1494L16.7207 14.2751Z" fill="black"/>
<path d="M14.9216 13.658L18.9023 15.0364V14.1294L15.7618 12.3167L14.9216 13.658Z" fill="#3EC492"/>
<path d="M16.5466 11.8632L19.6871 13.6759L18.902 14.1294L15.7615 12.3168L16.5466 11.8632Z" fill="#3EC492"/>
<path opacity="0.4" d="M16.5466 11.8632L19.6871 13.6759L18.902 14.1294L15.7615 12.3168L16.5466 11.8632Z" fill="white"/>
<path d="M18.9016 15.0365L19.6867 14.583V13.6759L18.9016 14.1294V15.0365Z" fill="#3EC492"/>
<path opacity="0.1" d="M18.9016 15.0365L19.6867 14.583V13.6759L18.9016 14.1294V15.0365Z" fill="black"/>
<path d="M12.4186 10.3926L9.27808 8.57994L10.0632 8.1264L13.2037 9.93904L12.4186 10.3926Z" fill="#3EC492"/>
<path opacity="0.4" d="M12.4186 10.3926L9.27808 8.57994L10.0632 8.1264L13.2037 9.93904L12.4186 10.3926Z" fill="white"/>
<path d="M9.27808 9.48547L11.6335 11.7516L12.4186 10.3925L9.27808 8.5799V9.48547Z" fill="#3EC492"/>
<path d="M15.9833 11.2135C15.8323 11.0475 15.6586 10.9038 15.4673 10.7867L12.9156 9.31309C12.8319 9.26831 12.7358 9.25248 12.6422 9.26808C12.5486 9.28369 12.4628 9.32984 12.3981 9.39933L12.0517 9.79338C11.9107 9.96682 11.7983 10.1616 11.7186 10.3703L11.1595 11.9956C11.1308 12.0861 11.1333 12.1835 11.1664 12.2725C11.1996 12.3614 11.2615 12.4367 11.3424 12.4863L13.894 13.9599C13.9861 14.0072 14.088 14.0318 14.1914 14.0318C14.2949 14.0318 14.3968 14.0072 14.4888 13.9599L14.6851 13.8454C14.8724 13.7273 15.0309 13.5688 15.1491 13.3815L15.5952 12.6097C15.7133 12.4225 15.8718 12.264 16.0591 12.1458L16.5498 11.8633L15.9833 11.2135Z" fill="#3EC492"/>
<path opacity="0.1" d="M15.9833 11.2135C15.8323 11.0475 15.6586 10.9038 15.4673 10.7867L12.9156 9.31309C12.8319 9.26831 12.7358 9.25248 12.6422 9.26808C12.5486 9.28369 12.4628 9.32984 12.3981 9.39933L12.0517 9.79338C11.9107 9.96682 11.7983 10.1616 11.7186 10.3703L11.1595 11.9956C11.1308 12.0861 11.1333 12.1835 11.1664 12.2725C11.1996 12.3614 11.2615 12.4367 11.3424 12.4863L13.894 13.9599C13.9861 14.0072 14.088 14.0318 14.1914 14.0318C14.2949 14.0318 14.3968 14.0072 14.4888 13.9599L14.6851 13.8454C14.8724 13.7273 15.0309 13.5688 15.1491 13.3815L15.5952 12.6097C15.7133 12.4225 15.8718 12.264 16.0591 12.1458L16.5498 11.8633L15.9833 11.2135Z" fill="black"/>
<path d="M15.1979 11.606L15.5384 11.2135C15.5676 11.1832 15.5893 11.1465 15.6018 11.1063C15.6143 11.0661 15.6172 11.0236 15.6102 10.9821C15.6033 10.9406 15.5867 10.9013 15.5618 10.8674C15.537 10.8334 15.5045 10.8058 15.467 10.7867L12.9153 9.31309C12.8317 9.26831 12.7355 9.25248 12.6419 9.26808C12.5483 9.28369 12.4625 9.32984 12.3979 9.39933L12.0514 9.79338C12.0225 9.82389 12.0011 9.8607 11.9889 9.90089C11.9768 9.94109 11.9741 9.98357 11.9812 10.025C11.9882 10.0664 12.0048 10.1056 12.0297 10.1394C12.0545 10.1733 12.0869 10.201 12.1242 10.2201L14.6759 11.6938C14.7602 11.7397 14.8574 11.7561 14.9521 11.7402C15.0467 11.7243 15.1333 11.677 15.1979 11.606Z" fill="#3EC492"/>
<path d="M14.865 12.1844L14.3029 13.8082C14.2907 13.8483 14.2694 13.885 14.2406 13.9155C14.2119 13.946 14.1764 13.9693 14.137 13.9838C14.0977 13.9982 14.0555 14.0033 14.0138 13.9986C13.9722 13.9939 13.9322 13.9796 13.897 13.9569L11.3453 12.4907C11.2644 12.4411 11.2025 12.3658 11.1694 12.2769C11.1362 12.1879 11.1338 12.0905 11.1624 12L11.7245 10.3747C11.7366 10.3346 11.758 10.2979 11.7868 10.2674C11.8155 10.2369 11.851 10.2136 11.8904 10.1992C11.9297 10.1847 11.9719 10.1797 12.0136 10.1843C12.0552 10.189 12.0952 10.2033 12.1304 10.226L14.6821 11.6996C14.7614 11.7494 14.8221 11.8237 14.8552 11.9112C14.8882 11.9988 14.8917 12.0947 14.865 12.1844Z" fill="#455A64"/>
<path d="M14.0319 13.7249L11.4803 12.2513C11.4547 12.2327 11.4352 12.207 11.4241 12.1774C11.413 12.1478 11.4108 12.1156 11.4178 12.0848L11.9814 10.4595C11.9819 10.4561 11.9819 10.4525 11.9814 10.4491L14.5434 11.9287C14.5693 11.9469 14.589 11.9727 14.5999 12.0024C14.6108 12.0322 14.6123 12.0645 14.6044 12.0952L14.0423 13.719C14.0429 13.7219 14.0429 13.725 14.0423 13.7279L14.0319 13.7249Z" fill="#EBEBEB"/>
<path d="M12.1 10.7197L11.6287 12.1101L13.9097 13.4484L14.0064 13.1896C14.0064 13.1896 12.7647 12.5606 12.4183 12.0937C12.0718 11.6268 12.1 10.7197 12.1 10.7197Z" fill="#FAFAFA"/>
<path d="M10.9976 9.11975C10.9685 9.11968 10.9402 9.11024 10.9169 9.09283C10.8936 9.07542 10.8765 9.05097 10.8682 9.02309L10.4697 7.73238L8.58568 6.6454C8.55581 6.62848 8.53348 6.60084 8.52323 6.56807L8.03698 4.9874C8.03014 4.9541 8.03594 4.91944 8.05325 4.89019C8.07057 4.86093 8.09816 4.83917 8.13065 4.82914C8.16313 4.81912 8.19819 4.82155 8.22898 4.83596C8.25977 4.85037 8.28409 4.87574 8.2972 4.9071L8.77155 6.43722L10.6556 7.52421C10.6854 7.54113 10.7078 7.56876 10.718 7.60153L11.1314 8.93982C11.1367 8.95681 11.1386 8.97467 11.137 8.99239C11.1353 9.01011 11.1302 9.02734 11.122 9.04308C11.1137 9.05883 11.1024 9.07279 11.0887 9.08415C11.075 9.09552 11.0592 9.10408 11.0422 9.10934C11.0281 9.11553 11.013 9.11906 10.9976 9.11975Z" fill="#E0E0E0"/>
<path d="M8.98935 4.00302L8.03619 3.45581C8.00039 3.42944 7.9581 3.4133 7.91383 3.40911C7.86957 3.40492 7.825 3.41284 7.78489 3.43201C7.73879 3.46027 7.55143 3.56287 7.50236 3.59558C7.46907 3.6218 7.44291 3.65597 7.42628 3.69495C7.40966 3.73393 7.40309 3.77645 7.40719 3.81863V4.27811C7.41412 4.4006 7.44976 4.51974 7.51124 4.6259C7.57272 4.73207 7.65831 4.82229 7.7611 4.88926L8.7098 5.43647C8.74491 5.46234 8.78625 5.47845 8.82961 5.48315C8.87296 5.48785 8.9168 5.48098 8.95664 5.46324L9.2347 5.30265C9.27087 5.2772 9.29959 5.24256 9.31789 5.2023C9.33619 5.16204 9.3434 5.11763 9.33879 5.07365V4.60971C9.3318 4.48836 9.29656 4.37032 9.2359 4.26499C9.17523 4.15966 9.09081 4.06996 8.98935 4.00302Z" fill="#E0E0E0"/>
<path d="M7.76406 4.88932L8.71276 5.43654C8.90756 5.54955 9.06518 5.45884 9.06518 5.23282V4.77483C9.05888 4.65236 9.02367 4.53313 8.96241 4.4269C8.90115 4.32067 8.8156 4.23046 8.71276 4.16367L7.76406 3.61497C7.56926 3.50196 7.41016 3.59416 7.41016 3.81869V4.27817C7.41708 4.40066 7.45273 4.5198 7.5142 4.62596C7.57568 4.73213 7.66127 4.82235 7.76406 4.88932Z" fill="#F0F0F0"/>
<path d="M13.2248 12.2111C13.2173 12.2415 13.2027 12.2697 13.1822 12.2934C13.1617 12.3171 13.136 12.3356 13.107 12.3475C13.078 12.3594 13.0467 12.3642 13.0155 12.3617C12.9843 12.3592 12.9541 12.3494 12.9274 12.3331C12.8684 12.295 12.8238 12.2384 12.8006 12.1721C12.7775 12.1059 12.7771 12.0338 12.7995 11.9673C12.8073 11.9371 12.8221 11.9091 12.8426 11.8856C12.8631 11.8621 12.8888 11.8437 12.9177 11.8319C12.9466 11.82 12.9778 11.8151 13.0089 11.8174C13.04 11.8198 13.0701 11.8293 13.0969 11.8453C13.1559 11.8834 13.2005 11.94 13.2237 12.0063C13.2469 12.0725 13.2473 12.1446 13.2248 12.2111Z" fill="#E0E0E0"/>
<path d="M20.5765 15.2299L20.7088 15.0024L19.4062 14.2485C19.3961 14.2424 19.3845 14.2393 19.3727 14.2393C19.361 14.2393 19.3494 14.2424 19.3393 14.2485C19.312 14.2662 19.2893 14.2901 19.273 14.3183C19.2568 14.3464 19.2474 14.3781 19.2456 14.4105C19.2446 14.4219 19.2466 14.4334 19.2513 14.4438C19.2559 14.4542 19.2632 14.4632 19.2724 14.47L20.5765 15.2299Z" fill="#F0F0F0"/>
<path d="M20.5493 15.1673C20.5493 15.2268 20.591 15.2506 20.643 15.2209C20.6701 15.203 20.6927 15.179 20.7089 15.1509C20.7252 15.1227 20.7347 15.0912 20.7367 15.0588C20.7367 14.9993 20.6936 14.9755 20.643 15.0053C20.6157 15.023 20.593 15.0469 20.5768 15.0751C20.5605 15.1033 20.5511 15.1349 20.5493 15.1673Z" fill="#E0E0E0"/>
<path d="M22.0332 16.4774L22.5194 15.6387L20.4659 14.4491C20.4268 14.4297 20.3831 14.4214 20.3396 14.4251C20.2961 14.4288 20.2544 14.4443 20.2191 14.4699C20.1195 14.5354 20.0367 14.6233 19.9773 14.7266C19.9179 14.8299 19.8835 14.9457 19.8771 15.0647C19.8732 15.106 19.8798 15.1476 19.8965 15.1856C19.9131 15.2236 19.9392 15.2567 19.9722 15.2818L22.0332 16.4774Z" fill="#455A64"/>
<path d="M21.9336 16.2558C21.9336 16.4744 22.0823 16.5636 22.2771 16.4536C22.3769 16.3884 22.4599 16.3005 22.5194 16.1971C22.5788 16.0938 22.613 15.9778 22.6191 15.8588C22.6191 15.6402 22.4704 15.551 22.2771 15.661C22.1768 15.7258 22.0934 15.8136 22.0337 15.917C21.9739 16.0204 21.9397 16.1365 21.9336 16.2558Z" fill="#263238"/>
<path d="M21.8931 14.2751C21.8691 14.2751 21.8455 14.269 21.8247 14.2572L18.641 12.4193L18.296 13.1539C18.2883 13.17 18.2775 13.1844 18.2642 13.1964C18.2509 13.2083 18.2354 13.2175 18.2186 13.2234C18.2017 13.2294 18.1839 13.2319 18.166 13.231C18.1482 13.23 18.1307 13.2255 18.1146 13.2178C18.0985 13.2101 18.0841 13.1993 18.0722 13.186C18.0602 13.1727 18.051 13.1572 18.0451 13.1404C18.0392 13.1235 18.0366 13.1057 18.0376 13.0878C18.0385 13.07 18.043 13.0525 18.0507 13.0364L18.4641 12.171C18.4721 12.154 18.4837 12.139 18.4981 12.127C18.5125 12.1149 18.5293 12.1061 18.5473 12.1011C18.565 12.0953 18.5837 12.0933 18.6022 12.0954C18.6206 12.0974 18.6385 12.1034 18.6544 12.113L21.8381 13.9509L22.189 13.2178C22.2046 13.1853 22.2324 13.1603 22.2664 13.1483C22.3005 13.1363 22.3379 13.1383 22.3704 13.1539C22.4029 13.1695 22.4279 13.1973 22.4399 13.2313C22.4519 13.2654 22.4499 13.3028 22.4343 13.3353L22.0135 14.2007C22.0053 14.2173 21.9938 14.232 21.9798 14.244C21.9657 14.2561 21.9494 14.2651 21.9317 14.2706C21.9192 14.2741 21.9061 14.2756 21.8931 14.2751Z" fill="#E0E0E0"/>
<path d="M23.0554 12.1249L22.1067 11.5762C22.0707 11.5503 22.0285 11.5344 21.9843 11.5302C21.9401 11.526 21.8956 11.5337 21.8554 11.5524C21.8078 11.5807 21.6205 11.6833 21.5714 11.716C21.5386 11.7425 21.5129 11.7768 21.4965 11.8157C21.4802 11.8546 21.4737 11.897 21.4777 11.939V12.3985C21.4844 12.5209 21.5197 12.64 21.581 12.7462C21.6422 12.8523 21.7275 12.9426 21.8301 13.0097L22.7788 13.5584C22.8144 13.5838 22.8561 13.5996 22.8996 13.604C22.9432 13.6084 22.9872 13.6014 23.0272 13.5836C23.0762 13.5569 23.2562 13.4513 23.3037 13.423C23.3403 13.3983 23.3693 13.364 23.3876 13.3239C23.406 13.2837 23.413 13.2393 23.4078 13.1955V12.736C23.4015 12.6136 23.3663 12.4944 23.3051 12.3881C23.2438 12.2819 23.1583 12.1917 23.0554 12.1249Z" fill="#E0E0E0"/>
<path d="M21.8322 13.0097L22.7809 13.5584C22.9771 13.6699 23.1348 13.5792 23.1348 13.3547V12.8952C23.1281 12.7727 23.0925 12.6534 23.031 12.5472C22.9695 12.441 22.8838 12.3509 22.7809 12.2841L21.8322 11.7354C21.6374 11.6238 21.4797 11.7145 21.4797 11.9391V12.3986C21.4864 12.5209 21.5217 12.64 21.583 12.7462C21.6442 12.8524 21.7296 12.9427 21.8322 13.0097Z" fill="#F0F0F0"/>
</svg>
