<svg width="99" height="95" viewBox="0 0 99 95" fill="none" xmlns="http://www.w3.org/2000/svg">
<g clip-path="url(#clip0_163_12584)">
<rect x="18.8614" y="5.54456" width="73.5785" height="70.6931" rx="11.0891" fill="#E1FBF1"/>
<path d="M14.1539 13.9651C13.9985 13.5522 13.6969 13.2107 13.3063 13.0054C13.0811 12.8867 12.8332 12.817 12.5791 12.8011C12.325 12.7852 12.0704 12.8234 11.8322 12.9131C10.9714 13.2429 10.6152 14.4433 10.8197 15.3139C10.4009 14.5257 9.33567 13.8497 8.47492 14.1729C8.23707 14.2619 8.02071 14.4002 7.83998 14.5786C7.65926 14.7571 7.51825 14.9717 7.42619 15.2084C7.26931 15.6216 7.26931 16.078 7.42619 16.4913C7.92747 17.8269 9.4412 18.0973 10.8065 18.5854L12.2312 19.09L12.9831 17.7708C13.6922 16.5045 14.6518 15.3007 14.1539 13.9651Z" fill="#3EC492"/>
<path d="M76.8497 7.09231C77.0407 6.69435 77.0783 6.23995 76.9553 5.81603C76.8844 5.57165 76.7625 5.34507 76.5976 5.15123C76.4328 4.95739 76.2287 4.80068 75.9989 4.69145C75.1711 4.29241 74.0531 4.87284 73.5683 5.62475C73.8454 4.7739 73.5947 3.5405 72.767 3.14475C72.5372 3.03494 72.2867 2.97494 72.0321 2.96868C71.7775 2.96243 71.5244 3.01007 71.2895 3.10848C70.8829 3.27984 70.5532 3.59428 70.3628 3.99231C69.7461 5.27848 70.6003 6.56135 71.1972 7.8838L71.8271 9.27221L73.3045 8.88965C74.7028 8.51699 76.2363 8.37848 76.8497 7.09231Z" fill="#3EC492"/>
<path d="M91.003 35.4095C89.5468 30.6565 83.6045 26.7247 78.0587 28.278C77.1815 28.5227 76.3399 28.8803 75.5548 29.3418C70.1667 32.4525 65.8021 40.0168 65.8021 46.2422C65.7875 47.2871 65.9335 48.3281 66.2349 49.3287C67.6911 54.0816 73.6334 57.9933 79.1792 56.4399C80.0543 56.1947 80.8934 55.8357 81.675 55.372C87.0631 52.2614 91.4318 44.697 91.4318 38.4757C91.443 37.4379 91.2985 36.4043 91.003 35.4095Z" fill="#455A64"/>
<path d="M81.6588 55.372C87.0469 52.2614 91.4156 44.697 91.4156 38.4757C91.4156 32.2543 87.0469 29.7302 81.6588 32.8409C76.2707 35.9515 71.902 43.5118 71.902 49.7372C71.902 55.9626 76.2869 58.4827 81.6588 55.372Z" fill="#37474F"/>
<path d="M77.3184 54.826C74.0217 54.826 73.7668 50.9063 73.7668 49.7049C73.7668 44.1712 77.8119 37.1651 82.5973 34.4064C83.6293 33.7578 84.8103 33.3846 86.0275 33.3223C89.3283 33.3223 89.5832 37.242 89.5832 38.4434C89.5832 43.969 85.5381 50.9832 80.7527 53.7419C79.7193 54.3906 78.537 54.7639 77.3184 54.826Z" fill="#F5F5F5"/>
<path d="M78.5158 52.0753C75.935 52.0753 75.7368 49.0738 75.7368 48.1556C75.7368 44.0822 78.714 38.9207 82.2413 36.886C83.0224 36.3995 83.9151 36.121 84.8342 36.077C87.411 36.077 87.6132 39.0744 87.6132 39.9926C87.6132 44.066 84.632 49.2276 81.1047 51.2622C80.326 51.7515 79.4343 52.0316 78.5158 52.0753ZM84.8342 36.4774C83.9854 36.522 83.1622 36.7839 82.4436 37.2379C79.0295 39.2079 76.1413 44.2076 76.1413 48.1597C76.1413 48.9687 76.3112 51.6749 78.5158 51.6749C79.3634 51.6303 80.1853 51.3684 80.9024 50.9144C84.3205 48.9404 87.2087 43.9406 87.2087 39.9926C87.2087 39.1674 87.0348 36.4774 84.8342 36.4774Z" fill="#E0E0E0"/>
<path d="M81.6588 39.7499C83.7299 38.5363 85.4086 39.5234 85.4086 41.914C85.4086 44.3047 83.7299 47.2171 81.6588 48.4145C79.5877 49.6118 77.905 48.641 77.905 46.2463C77.905 43.8516 79.6039 40.9391 81.6588 39.7499Z" fill="#455A64"/>
<path d="M81.6588 42.5814C82.3667 42.1769 82.9452 42.5046 82.9452 43.3217C82.922 43.7684 82.7934 44.2033 82.5698 44.5907C82.3462 44.9781 82.0341 45.307 81.6588 45.5505C80.9469 45.9551 80.3725 45.6274 80.3725 44.8062C80.3962 44.3602 80.5252 43.9262 80.7487 43.5395C80.9723 43.1528 81.2842 42.8246 81.6588 42.5814Z" fill="#37474F"/>
<path d="M70.7087 53.9077L54.2007 44.3775C54.2007 44.3775 39.7759 58.4666 32.9154 56.3348C32.9154 56.3348 31.172 74.6146 39.2783 76.1881C47.3847 77.7617 57.995 67.8391 61.8823 63.8304C65.7697 59.8217 70.7087 53.9077 70.7087 53.9077Z" fill="#3EC492"/>
<path opacity="0.4" d="M70.7087 53.9077L54.2007 44.3775C54.2007 44.3775 39.7759 58.4666 32.9154 56.3348C32.9154 56.3348 31.172 74.6146 39.2783 76.1881C47.3847 77.7617 57.995 67.8391 61.8823 63.8304C65.7697 59.8217 70.7087 53.9077 70.7087 53.9077Z" fill="black"/>
<path d="M87.7831 24.5606C86.2136 23.6383 80.2592 20.2162 78.7059 19.302C77.0355 18.3275 75.1364 17.8141 73.2026 17.8141C71.2687 17.8141 69.3696 18.3275 67.6992 19.302L58.5128 24.5202C54.5567 26.8056 46.7375 31.2552 46.2198 35.7979C45.5442 41.7078 50.6289 50.6151 45.1964 56.4885L54.2007 61.6865L93.2238 37.4159V34.0625C93.2334 32.14 92.7355 30.249 91.7802 28.5805C90.8249 26.9121 89.4461 25.5254 87.7831 24.5606Z" fill="#3EC492"/>
<path opacity="0.2" d="M55.5841 46.1371C55.0947 43.3055 53.2178 39.8389 50.73 38.411L50.6855 38.3827C48.2099 36.9547 46.0782 38.1238 46.5676 40.9392C47.4697 46.1573 49.1969 52.1522 45.1842 56.4885L54.1886 61.6865C58.1973 57.3501 56.4862 51.3593 55.5841 46.1371Z" fill="black"/>
<path opacity="0.1" d="M76.6955 24.5241L67.501 29.7342C63.5449 32.0157 55.7258 36.4612 55.208 40.9958C54.5324 46.9056 59.6171 55.817 54.1846 61.6864L93.2076 37.4159V34.0625C93.2036 25.5921 84.0333 20.2849 76.6955 24.5241Z" fill="black"/>
<path d="M87.8883 25.4748C85.2225 23.9659 81.5698 23.5614 76.6955 26.1381C76.5863 26.1948 76.469 26.2514 76.3597 26.3161L75.9876 26.5224C69.3334 30.3612 63.9373 39.7014 63.9373 47.3911C63.9373 47.5327 63.9373 47.6783 63.9373 47.8279C63.9699 48.6474 64.2096 49.4451 64.634 50.1469C65.0585 50.8486 65.6537 51.4313 66.3643 51.8407C67.1046 52.2705 67.9454 52.4969 68.8015 52.4969C69.6575 52.4969 70.4983 52.2705 71.2386 51.8407L76.5822 48.7583L92.1761 39.7499L98.5066 36.1093C98.5066 36.1093 96.84 30.6646 92.4997 28.1405C91.7715 27.7157 88.7215 25.944 87.8883 25.4748Z" fill="#3EC492"/>
<path d="M68.662 52.4798C69.3536 52.5038 70.0426 52.3825 70.6845 52.1238C69.9607 52.4214 69.176 52.5409 68.3965 52.472C67.6169 52.4032 66.8653 52.1482 66.2048 51.7284C65.5444 51.3085 64.9944 50.7362 64.6012 50.0596C64.208 49.3829 63.9831 48.6217 63.9454 47.8401C63.9454 47.6904 63.9454 47.5448 63.9454 47.3991C63.9454 43.1194 65.6241 38.3179 68.2574 34.2485L72.7596 36.8374C70.1222 40.9108 68.4516 45.7083 68.4516 49.988C68.4475 50.8232 68.5179 51.6571 68.662 52.4798Z" fill="#3EC492"/>
<path opacity="0.1" d="M98.5026 36.1093V36.0769C98.5026 36.0769 98.5026 36.0405 98.4824 36.0203C98.4621 35.9596 98.4338 35.8868 98.4015 35.7978C98.4015 35.7574 98.3651 35.7088 98.3489 35.6603V35.6401L98.2882 35.4864C98.2154 35.3043 98.1264 35.0819 98.0253 34.8513C97.9888 34.7744 97.9565 34.6935 97.9201 34.6167C97.8028 34.3578 97.6693 34.0787 97.5156 33.7834L97.3538 33.484C97.1313 33.0795 96.8724 32.6467 96.5812 32.2098C96.2772 31.7518 95.9491 31.3102 95.5982 30.8871C95.2225 30.437 94.8171 30.0127 94.3847 29.6169C93.9378 29.2056 93.4574 28.8322 92.9487 28.5005C92.8233 28.4155 92.6938 28.3387 92.5644 28.2618L92.5158 28.2335L92.4107 28.1728C89.749 26.6842 86.1084 26.2959 81.2583 28.8605C81.1451 28.9131 81.0318 28.9737 80.9186 29.0344L80.5464 29.2448C73.8922 33.0836 68.5001 42.4237 68.5001 50.1094C68.4968 50.9449 68.5699 51.779 68.7185 52.6011C69.626 52.6335 70.5243 52.4107 71.3115 51.958L76.655 48.8756L92.1761 39.7499L98.5066 36.1093H98.5026Z" fill="black"/>
<path opacity="0.4" d="M92.3136 28.0191C89.656 26.5507 86.0275 26.1745 81.2058 28.727C81.0925 28.7796 80.9792 28.8403 80.866 28.9009L80.4938 29.1113C77.545 30.8102 74.8307 33.5892 72.7556 36.8253L68.2493 34.2243C70.3366 30.9882 73.0387 28.2092 75.9876 26.5103L76.3597 26.2999C76.469 26.2393 76.5863 26.1786 76.6955 26.126C81.5496 23.5493 85.2225 23.9538 87.8883 25.4626C88.6609 25.9157 91.367 27.473 92.3136 28.0191Z" fill="white"/>
<path d="M43.6956 32.1694V31.5181C43.7108 31.2368 43.7866 30.9621 43.9178 30.7128C44.0491 30.4636 44.2327 30.2457 44.4561 30.074L59.4229 19.8521C59.6574 19.7102 59.924 19.6302 60.1978 19.6196C60.4717 19.609 60.7437 19.6681 60.9884 19.7914L71.3924 25.8024C71.6274 25.9522 71.8233 26.1558 71.964 26.3964C72.1046 26.637 72.186 26.9076 72.2014 27.1858V29.5684C72.186 29.8472 72.1047 30.1183 71.964 30.3595C71.8234 30.6008 71.6274 30.8051 71.3924 30.9558L56.4862 39.5638C56.2359 39.6923 55.9586 39.7593 55.6772 39.7593C55.3958 39.7593 55.1185 39.6923 54.8682 39.5638L44.4601 33.5528C44.2339 33.3976 44.0469 33.1917 43.9142 32.9515C43.7815 32.7114 43.7066 32.4435 43.6956 32.1694Z" fill="#3EC492"/>
<path opacity="0.55" d="M43.6956 32.1694V31.5181C43.7108 31.2368 43.7866 30.9621 43.9178 30.7128C44.0491 30.4636 44.2327 30.2457 44.4561 30.074L59.4229 19.8521C59.6574 19.7102 59.924 19.6302 60.1978 19.6196C60.4717 19.609 60.7437 19.6681 60.9884 19.7914L71.3924 25.8024C71.6274 25.9522 71.8233 26.1558 71.964 26.3964C72.1046 26.637 72.186 26.9076 72.2014 27.1858V29.5684C72.186 29.8472 72.1047 30.1183 71.964 30.3595C71.8234 30.6008 71.6274 30.8051 71.3924 30.9558L56.4862 39.5638C56.2359 39.6923 55.9586 39.7593 55.6772 39.7593C55.3958 39.7593 55.1185 39.6923 54.8682 39.5638L44.4601 33.5528C44.2339 33.3976 44.0469 33.1917 43.9142 32.9515C43.7815 32.7114 43.7066 32.4435 43.6956 32.1694Z" fill="black"/>
<path d="M44.4925 31.057L54.9006 37.068C55.1448 37.1905 55.416 37.2492 55.6891 37.2386C55.9621 37.228 56.228 37.1484 56.462 37.0073L71.4288 26.7853C71.5239 26.7409 71.6038 26.6695 71.6585 26.5799C71.7132 26.4904 71.7403 26.3867 71.7364 26.2818C71.7326 26.1769 71.6979 26.0755 71.6367 25.9903C71.5755 25.905 71.4905 25.8396 71.3924 25.8024L60.9884 19.7914C60.7437 19.6681 60.4717 19.609 60.1979 19.6196C59.9241 19.6302 59.6574 19.7102 59.423 19.8521L44.4561 30.074C44.361 30.1184 44.2811 30.1899 44.2264 30.2794C44.1717 30.369 44.1446 30.4727 44.1485 30.5776C44.1524 30.6824 44.1871 30.7838 44.2483 30.8691C44.3095 30.9544 44.3944 31.0197 44.4925 31.057Z" fill="#3EC492"/>
<path opacity="0.45" d="M44.4925 31.057L54.9006 37.068C55.1448 37.1905 55.416 37.2492 55.6891 37.2386C55.9621 37.228 56.228 37.1484 56.462 37.0073L71.4288 26.7853C71.5239 26.7409 71.6038 26.6695 71.6585 26.5799C71.7132 26.4904 71.7403 26.3867 71.7364 26.2818C71.7326 26.1769 71.6979 26.0755 71.6367 25.9903C71.5755 25.905 71.4905 25.8396 71.3924 25.8024L60.9884 19.7914C60.7437 19.6681 60.4717 19.609 60.1979 19.6196C59.9241 19.6302 59.6574 19.7102 59.423 19.8521L44.4561 30.074C44.361 30.1184 44.2811 30.1899 44.2264 30.2794C44.1717 30.369 44.1446 30.4727 44.1485 30.5776C44.1524 30.6824 44.1871 30.7838 44.2483 30.8691C44.3095 30.9544 44.3944 31.0197 44.4925 31.057Z" fill="black"/>
<path opacity="0.2" d="M55.7015 37.2339V39.7499C55.4199 39.7581 55.141 39.6925 54.8925 39.5598L44.4844 33.5528C44.2501 33.4014 44.0547 33.1968 43.9141 32.9558C43.7735 32.7147 43.6918 32.4439 43.6754 32.1654V31.5141C43.6911 31.2491 43.7601 30.99 43.8783 30.7523C43.9964 30.5146 44.1613 30.3032 44.3631 30.1307C44.2835 30.1845 44.2203 30.2593 44.1805 30.3468C44.1407 30.4343 44.1259 30.5311 44.1376 30.6265C44.1493 30.7219 44.1871 30.8122 44.2469 30.8874C44.3067 30.9627 44.3861 31.02 44.4763 31.053L54.8844 37.0599C55.134 37.1962 55.418 37.2567 55.7015 37.2339Z" fill="black"/>
<path d="M64.7058 20.0381V19.3909C64.7219 19.1085 64.7993 18.833 64.9328 18.5836C65.0662 18.3342 65.2524 18.1169 65.4784 17.9468L74.4545 11.1956C74.6889 11.0537 74.9556 10.9737 75.2294 10.9631C75.5032 10.9525 75.7752 11.0116 76.0199 11.1349L86.428 17.1459C86.6625 17.2962 86.8581 17.4999 86.9987 17.7404C87.1393 17.9809 87.221 18.2512 87.237 18.5293V20.9119C87.2206 21.1904 87.1389 21.4612 86.9983 21.7023C86.8577 21.9434 86.6624 22.1479 86.428 22.2993L77.5288 27.4326C77.2812 27.5583 77.0075 27.6239 76.7299 27.6239C76.4522 27.6239 76.1785 27.5583 75.9309 27.4326L65.5067 21.4256C65.2739 21.2733 65.08 21.0683 64.9409 20.8273C64.8018 20.5863 64.7213 20.316 64.7058 20.0381Z" fill="#3EC492"/>
<path opacity="0.55" d="M64.7058 20.0381V19.3909C64.7219 19.1085 64.7993 18.833 64.9328 18.5836C65.0662 18.3342 65.2524 18.1169 65.4784 17.9468L74.4545 11.1956C74.6889 11.0537 74.9556 10.9737 75.2294 10.9631C75.5032 10.9525 75.7752 11.0116 76.0199 11.1349L86.428 17.1459C86.6625 17.2962 86.8581 17.4999 86.9987 17.7404C87.1393 17.9809 87.221 18.2512 87.237 18.5293V20.9119C87.2206 21.1904 87.1389 21.4612 86.9983 21.7023C86.8577 21.9434 86.6624 22.1479 86.428 22.2993L77.5288 27.4326C77.2812 27.5583 77.0075 27.6239 76.7299 27.6239C76.4522 27.6239 76.1785 27.5583 75.9309 27.4326L65.5067 21.4256C65.2739 21.2733 65.08 21.0683 64.9409 20.8273C64.8018 20.5863 64.7213 20.316 64.7058 20.0381Z" fill="black"/>
<path d="M65.5067 18.9298L75.9148 24.9367C76.1583 25.0615 76.4299 25.1215 76.7034 25.1109C76.9769 25.1003 77.243 25.0194 77.4762 24.8761L86.4563 18.1248C86.5501 18.0798 86.6288 18.0084 86.6826 17.9194C86.7364 17.8303 86.763 17.7274 86.7592 17.6234C86.7553 17.5194 86.7211 17.4188 86.6609 17.334C86.6006 17.2491 86.5168 17.1838 86.4199 17.1459L75.9957 11.1349C75.7509 11.0116 75.4789 10.9525 75.2051 10.9631C74.9313 10.9737 74.6647 11.0537 74.4302 11.1956L65.4784 17.9468C65.383 17.9905 65.3026 18.0613 65.2473 18.1503C65.1919 18.2394 65.1639 18.3428 65.167 18.4477C65.17 18.5525 65.2038 18.6542 65.2642 18.7399C65.3247 18.8256 65.409 18.8917 65.5067 18.9298Z" fill="#3EC492"/>
<path opacity="0.45" d="M65.5067 18.9298L75.9148 24.9367C76.1583 25.0615 76.4299 25.1215 76.7034 25.1109C76.9769 25.1003 77.243 25.0194 77.4762 24.8761L86.4563 18.1248C86.5501 18.0798 86.6288 18.0084 86.6826 17.9194C86.7364 17.8303 86.763 17.7274 86.7592 17.6234C86.7553 17.5194 86.7211 17.4188 86.6609 17.334C86.6006 17.2491 86.5168 17.1838 86.4199 17.1459L75.9957 11.1349C75.7509 11.0116 75.4789 10.9525 75.2051 10.9631C74.9313 10.9737 74.6647 11.0537 74.4302 11.1956L65.4784 17.9468C65.383 17.9905 65.3026 18.0613 65.2473 18.1503C65.1919 18.2394 65.1639 18.3428 65.167 18.4477C65.17 18.5525 65.2038 18.6542 65.2642 18.7399C65.3247 18.8256 65.409 18.8917 65.5067 18.9298Z" fill="black"/>
<path opacity="0.2" d="M76.7117 25.1067V27.6146C76.4297 27.6215 76.1508 27.5546 75.9027 27.4205L65.5068 21.4256C65.2717 21.2749 65.0758 21.0705 64.9352 20.8293C64.7945 20.5881 64.7131 20.317 64.6978 20.0382V19.3909C64.7138 19.1255 64.783 18.8659 64.9011 18.6276C65.0192 18.3893 65.1839 18.1771 65.3854 18.0035C65.3058 18.0573 65.2426 18.1321 65.2028 18.2196C65.1631 18.3071 65.1482 18.4039 65.1599 18.4993C65.1716 18.5947 65.2095 18.685 65.2692 18.7602C65.329 18.8355 65.4084 18.8928 65.4987 18.9258L75.9027 24.9368C76.1512 25.0678 76.4314 25.1267 76.7117 25.1067Z" fill="black"/>
<path d="M70.7088 53.9077C70.7088 53.9077 57.0849 67.1595 47.6517 72.8469V76.358C57.995 70.8 70.7088 55.6431 70.7088 55.6431V53.9077Z" fill="#3EC492"/>
<path d="M47.6436 72.8267C46.4053 73.5998 45.0801 74.2244 43.6956 74.6874C40.5647 75.6582 34.6872 72.4667 34.6872 58.6607C34.7291 52.0857 35.6584 45.5464 37.45 39.22C38.2833 36.2711 37.0455 32.7195 34.3919 31.1865L27.4788 27.2101C24.8293 25.6811 21.2413 26.4739 19.8862 29.2327C16.1128 37.0461 14.2284 45.6368 14.3849 54.3123C14.4981 63.7818 17.5603 67.4305 19.6799 69.4976C22.1757 71.9246 31.8435 78.6718 41.8875 78.1621C43.9202 77.9901 45.8899 77.3713 47.6558 76.3499" fill="#3EC492"/>
<path opacity="0.2" d="M32.4786 69.4854C30.0798 64.5868 28.6843 60.8208 22.6813 57.3501C18.074 54.6925 15.4568 56.2418 14.9957 60.5336C16.015 65.5415 18.1063 67.9483 19.6799 69.4814C22.1757 71.9084 31.8435 78.6557 41.8875 78.146C37.6886 78.15 34.8773 74.384 32.4786 69.4854Z" fill="black"/>
<path opacity="0.2" d="M27.677 50.6029C27.6349 50.8823 27.5346 51.1498 27.3827 51.388C27.2308 51.6263 27.0307 51.8301 26.7952 51.9863L25.3916 52.7953C25.1795 52.9174 24.9278 52.9506 24.6913 52.8877C24.4548 52.8248 24.2529 52.6709 24.1295 52.4596L22.0544 48.8595C21.7771 48.3306 21.6485 47.7365 21.6822 47.1403C22.022 44.0822 23.4095 34.0625 27.5961 27.2748L33.5991 30.7294C33.5991 30.7294 28.7247 40.0897 27.677 50.6029Z" fill="black"/>
<path d="M27.2644 50.3683C27.2242 50.6483 27.1247 50.9165 26.9727 51.1551C26.8206 51.3936 26.6194 51.597 26.3826 51.7517L24.983 52.5607C24.8779 52.6215 24.7618 52.661 24.6414 52.6768C24.521 52.6927 24.3986 52.6846 24.2814 52.653C24.1641 52.6214 24.0542 52.567 23.958 52.4929C23.8619 52.4187 23.7813 52.3263 23.7209 52.2209L21.6417 48.6249C21.3662 48.0955 21.2391 47.5015 21.2736 46.9057C21.6094 43.8476 22.9968 33.8279 27.1835 27.0402L33.1864 30.4947C33.1864 30.4947 28.3161 39.851 27.2644 50.3683Z" fill="#3EC492"/>
<path opacity="0.2" d="M27.2644 50.3683C27.2242 50.6483 27.1247 50.9165 26.9727 51.1551C26.8206 51.3936 26.6194 51.597 26.3826 51.7517L24.983 52.5607C24.8779 52.6215 24.7618 52.661 24.6414 52.6768C24.521 52.6927 24.3986 52.6846 24.2814 52.653C24.1641 52.6214 24.0542 52.567 23.958 52.4929C23.8619 52.4187 23.7813 52.3263 23.7209 52.2209L21.6417 48.6249C21.3662 48.0955 21.2391 47.5015 21.2736 46.9057C21.6094 43.8476 22.9968 33.8279 27.1835 27.0402L33.1864 30.4947C33.1864 30.4947 28.3161 39.851 27.2644 50.3683Z" fill="white"/>
<path d="M26.4069 47.5772C26.3712 47.5774 26.3362 47.5676 26.3058 47.5488L22.6005 45.413C22.5543 45.3852 22.5208 45.3405 22.5072 45.2883C22.4936 45.2361 22.5009 45.1807 22.5277 45.1339C22.5406 45.1108 22.5581 45.0905 22.5791 45.0742C22.6001 45.058 22.6241 45.0461 22.6498 45.0393C22.6754 45.0325 22.7022 45.031 22.7285 45.0347C22.7547 45.0384 22.78 45.0474 22.8027 45.0611L26.5283 47.2131C26.5741 47.2402 26.6077 47.2839 26.622 47.3352C26.6363 47.3864 26.6303 47.4412 26.6051 47.4882C26.5833 47.5196 26.5533 47.5445 26.5184 47.5602C26.4835 47.5759 26.4449 47.5818 26.4069 47.5772Z" fill="#455A64"/>
<path d="M26.1561 48.734C26.1209 48.7337 26.0863 48.7254 26.0549 48.7098L22.7015 46.7721C22.6784 46.7592 22.6581 46.7417 22.6419 46.7207C22.6256 46.6997 22.6137 46.6757 22.6069 46.65C22.6002 46.6244 22.5986 46.5976 22.6023 46.5713C22.6061 46.5451 22.6151 46.5198 22.6287 46.4971C22.6558 46.4513 22.6996 46.4177 22.7508 46.4034C22.8021 46.389 22.8569 46.3951 22.9038 46.4202L26.2572 48.3578C26.2951 48.3804 26.3247 48.4147 26.3413 48.4556C26.358 48.4965 26.3608 48.5417 26.3493 48.5843C26.3379 48.6269 26.3128 48.6646 26.2779 48.6917C26.243 48.7187 26.2002 48.7336 26.1561 48.734Z" fill="#455A64"/>
<path d="M25.9053 49.895C25.8698 49.8938 25.8351 49.8841 25.8042 49.8667L22.8229 48.1435C22.7824 48.114 22.7543 48.0706 22.744 48.0216C22.7336 47.9726 22.7419 47.9215 22.767 47.8782C22.7922 47.835 22.8325 47.8025 22.8802 47.7873C22.9279 47.772 22.9795 47.775 23.0252 47.7956L26.0064 49.5148C26.0526 49.5425 26.0861 49.5873 26.0997 49.6395C26.1133 49.6916 26.106 49.7471 26.0792 49.7939C26.0616 49.8244 26.0362 49.8499 26.0057 49.8676C25.9752 49.8853 25.9406 49.8948 25.9053 49.895Z" fill="#455A64"/>
<path d="M25.6545 51.0519C25.6188 51.0526 25.5836 51.0428 25.5534 51.0236L22.9443 49.5188C22.8976 49.492 22.8635 49.4477 22.8495 49.3958C22.8355 49.3438 22.8426 49.2884 22.8695 49.2417C22.8963 49.1951 22.9405 49.1609 22.9925 49.1469C23.0445 49.1329 23.0999 49.1401 23.1466 49.1669L25.7556 50.6717C25.7936 50.6942 25.8232 50.7285 25.8398 50.7694C25.8564 50.8103 25.8592 50.8555 25.8478 50.8981C25.8363 50.9407 25.8112 50.9784 25.7763 51.0055C25.7414 51.0325 25.6986 51.0474 25.6545 51.0479V51.0519Z" fill="#455A64"/>
<path d="M30.7311 51.6061L32.1226 52.4151C32.36 52.5633 32.5577 52.767 32.6987 53.0088C32.8396 53.2505 32.9196 53.523 32.9316 53.8025C32.9102 54.5661 32.8454 55.3278 32.7375 56.084C32.6148 56.8658 32.2317 57.5832 31.6502 58.1199C31.0686 58.6567 30.3229 58.9812 29.5338 59.0409H29.4771C29.3787 59.0517 29.2791 59.0399 29.186 59.0064C29.0928 58.9729 29.0085 58.9186 28.9394 58.8476C28.8704 58.7766 28.8185 58.6908 28.7876 58.5968C28.7567 58.5027 28.7476 58.4028 28.7611 58.3047C29.2485 56.2508 29.6106 54.1691 29.8452 52.0712C29.8395 51.966 29.8641 51.8613 29.9161 51.7696C29.9682 51.678 30.0455 51.6032 30.1388 51.5542C30.2321 51.5052 30.3376 51.484 30.4426 51.4932C30.5476 51.5024 30.6477 51.5416 30.7311 51.6061Z" fill="#FAFAFA"/>
<path d="M18.8709 44.7496L17.8717 44.1712C17.7801 44.1077 17.6739 44.0684 17.563 44.0568C17.4522 44.0452 17.3401 44.0617 17.2373 44.1048C17.1345 44.148 17.0443 44.2163 16.9749 44.3036C16.9055 44.3908 16.8592 44.4941 16.8402 44.604C16.5772 45.6639 16.4267 46.7486 16.3912 47.8401C16.3912 50.0608 17.1355 51.5454 17.629 52.0713C18.1225 52.5971 18.972 52.9693 18.9599 52.318C18.9204 50.2433 19.0994 48.1703 19.4938 46.1331C19.535 45.8669 19.4981 45.5945 19.3875 45.349C19.2769 45.1034 19.0975 44.8952 18.8709 44.7496Z" fill="#FAFAFA"/>
<path d="M44.6381 74.1534C45.6828 73.8135 46.6931 73.3761 47.6558 72.8469C46.4064 73.6049 45.0769 74.2221 43.6916 74.6874C40.5688 75.6582 34.6872 72.4666 34.6872 58.6607C34.7282 52.0853 35.6589 45.5457 37.4541 39.22C38.2833 36.2752 37.0495 32.7195 34.3919 31.1864L27.4788 27.2101C26.7087 26.7669 25.8466 26.5074 24.9597 26.452C24.0729 26.3966 23.1852 26.5467 22.3658 26.8905C23.2542 26.2866 24.2952 25.9461 25.3687 25.9082C26.4423 25.8702 27.5047 26.1364 28.4335 26.6761L35.3425 30.6646C37.9961 32.1977 39.2379 35.7493 38.4047 38.6982C36.6128 45.0259 35.6835 51.5665 35.6419 58.1429C35.6338 71.9327 41.5072 75.1202 44.6381 74.1534Z" fill="#3EC492"/>
<path opacity="0.1" d="M44.6381 74.1534C41.5072 75.1202 35.6337 71.9327 35.6337 58.1308C35.6754 51.5544 36.6047 45.0138 38.3965 38.686C38.765 37.3167 38.7313 35.8703 38.2995 34.5196L37.357 35.0697C37.7847 36.4155 37.8184 37.8557 37.454 39.22C35.6589 45.5457 34.7282 52.0853 34.6872 58.6607C34.6872 72.4666 40.5688 75.6501 43.6916 74.6874C45.0769 74.2221 46.4064 73.6049 47.6558 72.8469C46.6931 73.3761 45.6828 73.8135 44.6381 74.1534Z" fill="black"/>
<path opacity="0.4" d="M35.3344 30.6525L28.4254 26.664C27.4966 26.1243 26.4342 25.8581 25.3606 25.896C24.2871 25.9339 23.2461 26.2745 22.3577 26.8784C23.1771 26.5345 24.0648 26.3844 24.9516 26.4399C25.8385 26.4953 26.7006 26.7547 27.4707 27.1979L34.3838 31.1864C35.8228 32.0647 36.8807 33.4501 37.3489 35.0697L38.2914 34.5196C37.8202 32.908 36.7661 31.5295 35.3344 30.6525Z" fill="white"/>
<path d="M28.2636 71.6415C26.8114 66.8885 20.8691 62.9526 15.3193 64.51C14.4425 64.7578 13.6011 65.1167 12.8153 65.5779C7.42727 68.6845 3.05857 76.2529 3.05857 82.4742C3.04526 83.5207 3.19259 84.5629 3.49543 85.5647C4.94762 90.3217 10.8899 94.2333 16.4397 92.676C17.3149 92.4273 18.1549 92.0684 18.9396 91.6081C24.3196 88.4933 28.6681 80.929 28.6681 74.7077C28.6895 73.671 28.5531 72.6371 28.2636 71.6415Z" fill="#455A64"/>
<path d="M18.9315 91.6039C24.3196 88.4933 28.6681 80.9289 28.6681 74.7076C28.6681 68.4862 24.2994 65.9621 18.9153 69.0687C13.5313 72.1754 9.15857 79.7437 9.15857 85.9651C9.15857 92.1864 13.5434 94.7146 18.9315 91.6039Z" fill="#37474F"/>
<path d="M14.575 91.0538C11.2782 91.0538 11.0234 87.1341 11.0234 85.9327C11.0234 80.4031 15.0685 73.3929 19.8538 70.6382C20.8847 69.9873 22.0663 69.6139 23.2841 69.5541C26.5808 69.5541 26.8397 73.4738 26.8397 74.6752C26.8397 80.2008 22.7946 87.215 18.0052 89.9697C16.9741 90.6201 15.7926 90.9935 14.575 91.0538Z" fill="#F5F5F5"/>
<path d="M15.7723 88.2911C13.1916 88.2911 12.9933 85.2937 12.9933 84.3754C12.9933 80.302 15.9705 75.1405 19.4979 73.1058C20.2767 72.6176 21.1685 72.3389 22.0867 72.2968C24.6675 72.2968 24.8697 75.2942 24.8697 76.2124C24.8697 80.2858 21.8885 85.4474 18.3612 87.482C17.5823 87.9702 16.6906 88.2489 15.7723 88.2911ZM22.0867 72.6972C21.2399 72.7427 20.4185 73.003 19.7001 73.4537C16.282 75.4277 13.3979 80.4274 13.3979 84.3754C13.3979 85.1844 13.5677 87.8866 15.7723 87.8866C16.6198 87.8413 17.4415 87.5794 18.1589 87.1261C21.577 85.1561 24.4652 80.1564 24.4652 76.2043C24.4652 75.3953 24.2913 72.7094 22.0867 72.7094V72.6972Z" fill="#E0E0E0"/>
<path d="M18.9315 75.9697C21.0026 74.7562 22.6813 75.7432 22.6813 78.1379C22.6813 80.5325 21.0026 83.4369 18.9315 84.6505C16.8604 85.864 15.1777 84.877 15.1777 82.4823C15.1777 80.0876 16.8564 77.167 18.9315 75.9697Z" fill="#455A64"/>
<path d="M18.9315 78.8214C19.6394 78.4169 20.2138 78.7405 20.2138 79.5617C20.1905 80.0073 20.0622 80.4412 19.8394 80.8278C19.6165 81.2144 19.3055 81.5429 18.9315 81.7865C18.2196 82.191 17.6452 81.8674 17.6452 81.0462C17.669 80.6002 17.7979 80.1662 18.0214 79.7795C18.245 79.3928 18.5569 79.0645 18.9315 78.8214Z" fill="#37474F"/>
<path d="M26.7911 65.3594C25.4603 64.5908 20.5131 61.824 19.2996 61.0392C17.184 59.6801 14.1988 59.7974 10.8777 61.7148C7.64165 63.5674 4.76154 66.7711 2.66618 70.4279C2.58772 70.5628 2.53687 70.712 2.51658 70.8667C2.49629 71.0214 2.50698 71.1786 2.54801 71.3292C2.58903 71.4798 2.65959 71.6207 2.75557 71.7437C2.85156 71.8668 2.97105 71.9695 3.1071 72.0459C4.77368 73.0006 8.03807 74.8775 9.80578 75.9212C11.8283 77.1347 16.6824 74.1049 21.4192 74.5579C22.2188 74.6233 23.0048 74.8031 23.7533 75.0919C26.9529 76.3378 28.0573 76.7625 29.2586 76.3257C29.4514 76.254 29.6212 76.1316 29.7501 75.9714C29.8789 75.8112 29.9621 75.6191 29.9908 75.4155C30.1186 74.5707 30.1835 73.7175 30.185 72.863C30.185 69.1658 28.8905 66.5689 26.7911 65.3594Z" fill="#3EC492"/>
<path opacity="0.3" d="M26.7912 65.3594C25.4603 64.5908 20.5132 61.824 19.2997 61.0392C17.1841 59.6801 14.1988 59.7974 10.8778 61.7148C9.22788 62.6895 7.72891 63.8996 6.42816 65.3068L22.9038 74.8209C23.1895 74.8927 23.4704 74.9818 23.7452 75.0879C26.9449 76.3337 28.0492 76.7585 29.2506 76.3216C29.4433 76.25 29.6131 76.1276 29.742 75.9674C29.8709 75.8071 29.9541 75.6151 29.9827 75.4115C30.1105 74.5666 30.1754 73.7135 30.1769 72.859C30.185 69.1658 28.8906 66.5689 26.7912 65.3594Z" fill="white"/>
<path d="M30.185 72.859C30.1801 73.9199 30.0827 74.9783 29.8937 76.0222C28.3687 76.8798 27.499 76.5441 23.7533 75.0878C23.0049 74.799 22.2188 74.6192 21.4193 74.5539C16.6703 74.1008 11.8324 77.1185 9.80579 75.9171C10.9016 73.8154 12.2609 71.862 13.8509 70.1043C15.2285 68.5574 16.8357 67.2313 18.616 66.1724C19.663 65.5526 20.7957 65.0905 21.9775 64.8011C23.8261 64.3966 25.4765 64.5908 26.8073 65.3594C28.8905 66.5689 30.185 69.1658 30.185 72.859Z" fill="#3EC492"/>
<path opacity="0.1" d="M30.185 72.859C30.1801 73.9199 30.0827 74.9783 29.8937 76.0222C28.3687 76.8798 27.499 76.5441 23.7533 75.0878C23.0049 74.799 22.2188 74.6192 21.4193 74.5539C16.6703 74.1008 11.8324 77.1185 9.80579 75.9171C10.9016 73.8154 12.2609 71.862 13.8509 70.1043C15.2285 68.5574 16.8357 67.2313 18.616 66.1724C19.663 65.5526 20.7957 65.0905 21.9775 64.8011C23.8261 64.3966 25.4765 64.5908 26.8073 65.3594C28.8905 66.5689 30.185 69.1658 30.185 72.859Z" fill="black"/>
<path d="M17.5198 13.3192L18.8385 11.0297L13.2522 7.79363C13.1464 7.74129 13.0283 7.7189 12.9106 7.72888C12.793 7.73886 12.6803 7.78084 12.5848 7.85026C12.3134 8.02785 12.0878 8.26692 11.9261 8.54805C11.7645 8.82918 11.6714 9.14445 11.6544 9.4683C11.6427 9.58132 11.6603 9.69546 11.7057 9.79964C11.751 9.90382 11.8226 9.99452 11.9133 10.0629L17.5198 13.3192Z" fill="#455A64"/>
<path d="M17.2488 12.7166C17.2488 13.3112 17.6533 13.5498 18.1792 13.2546C18.451 13.0772 18.6773 12.8383 18.8396 12.5571C19.002 12.276 19.0958 11.9606 19.1136 11.6365C19.1136 11.0419 18.7091 10.7992 18.1792 11.0985C17.9076 11.2759 17.6818 11.5149 17.5201 11.7961C17.3584 12.0772 17.2655 12.3926 17.2488 12.7166Z" fill="#37474F"/>
<path d="M21.5811 14.5004L21.9411 13.8775L18.3976 11.8387C18.37 11.8224 18.3386 11.8137 18.3066 11.8137C18.2745 11.8137 18.2431 11.8224 18.2156 11.8387C18.1414 11.887 18.0796 11.9521 18.0354 12.0287C17.9911 12.1053 17.9655 12.1913 17.9607 12.2797C17.9576 12.3106 17.9627 12.3419 17.9755 12.3703C17.9883 12.3987 18.0083 12.4232 18.0335 12.4415L21.5811 14.5004Z" fill="#F0F0F0"/>
<path d="M21.5082 14.3346C21.5082 14.4964 21.6215 14.5611 21.7631 14.4802C21.8362 14.4321 21.897 14.3676 21.9406 14.2917C21.9841 14.2158 22.0092 14.1307 22.0139 14.0433C22.0139 13.8775 21.9006 13.8128 21.7631 13.8937C21.6889 13.9419 21.6272 14.007 21.5829 14.0836C21.5386 14.1602 21.513 14.2462 21.5082 14.3346Z" fill="#E0E0E0"/>
<path d="M39.7516 28.4236C38.5988 28.3791 36.1515 29.0061 35.3344 30.6403L28.4254 26.6519C28.4254 26.6519 29.1616 23.5493 24.4612 19.9208L39.7516 28.4236Z" fill="#3EC492"/>
<path opacity="0.2" d="M39.7516 28.4236C38.5988 28.3791 36.1515 29.0061 35.3344 30.6403L28.4254 26.6519C28.4254 26.6519 29.1616 23.5493 24.4612 19.9208L39.7516 28.4236Z" fill="black"/>
<path d="M34.8571 26.7449L45.6858 30.4947V28.0272L37.1426 23.0963L34.8571 26.7449Z" fill="#3EC492"/>
<path d="M39.2784 21.8625L47.8216 26.7935L45.6858 28.0272L37.1426 23.0962L39.2784 21.8625Z" fill="#3EC492"/>
<path opacity="0.4" d="M39.2784 21.8625L47.8216 26.7935L45.6858 28.0272L37.1426 23.0962L39.2784 21.8625Z" fill="white"/>
<path d="M45.6858 30.4947L47.8216 29.261V26.7935L45.6858 28.0272V30.4947Z" fill="#3EC492"/>
<path opacity="0.1" d="M45.6858 30.4947L47.8216 29.261V26.7935L45.6858 28.0272V30.4947Z" fill="black"/>
<path d="M28.0492 17.8619L19.5059 12.9309L21.6417 11.6971L30.185 16.6281L28.0492 17.8619Z" fill="#3EC492"/>
<path opacity="0.4" d="M28.0492 17.8619L19.5059 12.9309L21.6417 11.6971L30.185 16.6281L28.0492 17.8619Z" fill="white"/>
<path d="M19.5059 15.3944L25.9133 21.5591L28.0492 17.8619L19.5059 12.9309V15.3944Z" fill="#3EC492"/>
<path d="M37.7453 20.0948C37.3347 19.6433 36.8621 19.2524 36.3416 18.9338L29.4003 14.9251C29.1726 14.8033 28.9111 14.7603 28.6565 14.8027C28.4018 14.8452 28.1684 14.9707 27.9926 15.1597L27.0501 16.2317C26.6667 16.7035 26.3609 17.2333 26.144 17.8012L24.623 22.2225C24.5451 22.4686 24.5518 22.7337 24.6419 22.9756C24.7321 23.2175 24.9006 23.4223 25.1206 23.5574L32.0619 27.5661C32.3123 27.6945 32.5896 27.7615 32.871 27.7615C33.1523 27.7615 33.4296 27.6945 33.68 27.5661L34.2139 27.2546C34.7233 26.9331 35.1545 26.5019 35.476 25.9925L36.6895 23.8931C37.011 23.3837 37.4422 22.9525 37.9516 22.631L39.2865 21.8625L37.7453 20.0948Z" fill="#3EC492"/>
<path opacity="0.1" d="M37.7453 20.0948C37.3347 19.6433 36.8621 19.2524 36.3416 18.9338L29.4003 14.9251C29.1726 14.8033 28.9111 14.7603 28.6565 14.8027C28.4018 14.8452 28.1684 14.9707 27.9926 15.1597L27.0501 16.2317C26.6667 16.7035 26.3609 17.2333 26.144 17.8012L24.623 22.2225C24.5451 22.4686 24.5518 22.7337 24.6419 22.9756C24.7321 23.2175 24.9006 23.4223 25.1206 23.5574L32.0619 27.5661C32.3123 27.6945 32.5896 27.7615 32.871 27.7615C33.1523 27.7615 33.4296 27.6945 33.68 27.5661L34.2139 27.2546C34.7233 26.9331 35.1545 26.5019 35.476 25.9925L36.6895 23.8931C37.011 23.3837 37.4422 22.9525 37.9516 22.631L39.2865 21.8625L37.7453 20.0948Z" fill="black"/>
<path d="M35.6095 21.1627L36.5358 20.0948C36.6153 20.0124 36.6744 19.9126 36.7084 19.8033C36.7423 19.694 36.7502 19.5782 36.7313 19.4654C36.7124 19.3525 36.6673 19.2456 36.5997 19.1533C36.532 19.061 36.4436 18.9858 36.3416 18.9338L29.4003 14.9251C29.1726 14.8033 28.9111 14.7603 28.6565 14.8027C28.4018 14.8452 28.1684 14.9707 27.9926 15.1597L27.0501 16.2317C26.9715 16.3147 26.9134 16.4148 26.8802 16.5242C26.847 16.6335 26.8398 16.7491 26.859 16.8617C26.8782 16.9743 26.9234 17.081 26.991 17.1731C27.0586 17.2653 27.1466 17.3404 27.2483 17.3926L34.1897 21.4013C34.4188 21.5264 34.6834 21.5709 34.9409 21.5276C35.1983 21.4843 35.4338 21.3558 35.6095 21.1627Z" fill="#3EC492"/>
<path d="M34.7033 22.7362L33.1743 27.1535C33.1412 27.2626 33.0832 27.3625 33.0049 27.4454C32.9266 27.5283 32.8301 27.5919 32.723 27.6311C32.6159 27.6703 32.5012 27.6841 32.3879 27.6714C32.2746 27.6587 32.1657 27.6199 32.07 27.558L25.1286 23.5695C24.9086 23.4344 24.7402 23.2296 24.65 22.9878C24.5598 22.7459 24.5532 22.4808 24.6311 22.2346L26.1601 17.8134C26.1932 17.7042 26.2512 17.6043 26.3295 17.5214C26.4078 17.4385 26.5043 17.375 26.6114 17.3358C26.7185 17.2965 26.8332 17.2827 26.9465 17.2954C27.0598 17.3081 27.1687 17.3469 27.2644 17.4088L34.2058 21.4175C34.4214 21.5528 34.5868 21.755 34.6766 21.9931C34.7665 22.2312 34.7759 22.4923 34.7033 22.7362Z" fill="#455A64"/>
<path d="M32.4381 26.927L25.4968 22.9183C25.4274 22.8675 25.3743 22.7976 25.3441 22.7171C25.3139 22.6366 25.3079 22.5491 25.3269 22.4652L26.86 18.0439C26.8613 18.0345 26.8613 18.025 26.86 18.0156L33.8296 22.0405C33.9 22.0903 33.9535 22.1603 33.9831 22.2412C34.0128 22.3221 34.0171 22.4101 33.9955 22.4935L32.4665 26.9108C32.468 26.9188 32.468 26.927 32.4665 26.9351L32.4381 26.927Z" fill="#EBEBEB"/>
<path d="M27.1835 18.7518L25.9012 22.534L32.1064 26.1746L32.3693 25.4707C32.3693 25.4707 28.9917 23.7597 28.0492 22.4895C27.1067 21.2193 27.1835 18.7518 27.1835 18.7518Z" fill="#FAFAFA"/>
<path d="M24.1821 14.3993C24.1029 14.3991 24.026 14.3734 23.9626 14.326C23.8992 14.2787 23.8528 14.2122 23.8301 14.1363L22.7461 10.6252L17.6209 7.66823C17.5397 7.6222 17.4789 7.54701 17.451 7.45788L16.1283 3.15794C16.1097 3.06735 16.1254 2.97307 16.1726 2.89348C16.2197 2.81389 16.2947 2.75469 16.3831 2.72742C16.4715 2.70015 16.5668 2.70677 16.6506 2.74597C16.7344 2.78518 16.8005 2.85418 16.8362 2.93951L18.1266 7.10191L23.2517 10.0589C23.333 10.1049 23.3937 10.1801 23.4216 10.2692L24.5461 13.9098C24.5605 13.956 24.5657 14.0046 24.5613 14.0528C24.5568 14.101 24.543 14.1479 24.5204 14.1907C24.4979 14.2335 24.4671 14.2715 24.4299 14.3024C24.3926 14.3334 24.3497 14.3566 24.3034 14.3709C24.2651 14.3878 24.2239 14.3974 24.1821 14.3993Z" fill="#E0E0E0"/>
<path d="M18.7212 0.480095L16.1283 -1.0085C16.0309 -1.08021 15.9159 -1.12412 15.7955 -1.13552C15.675 -1.14692 15.5538 -1.12538 15.4447 -1.07322C15.3193 -0.996363 14.8096 -0.717255 14.6761 -0.628263C14.5856 -0.556929 14.5144 -0.463972 14.4692 -0.357946C14.4239 -0.251921 14.4061 -0.13623 14.4172 -0.021499V1.22844C14.4361 1.56164 14.533 1.88574 14.7003 2.17455C14.8675 2.46335 15.1003 2.70878 15.38 2.89097L17.9607 4.37957C18.0563 4.44994 18.1687 4.49375 18.2867 4.50654C18.4046 4.51933 18.5238 4.50065 18.6322 4.45238L19.3887 4.01551C19.487 3.94629 19.5652 3.85205 19.6149 3.74254C19.6647 3.63302 19.6844 3.5122 19.6718 3.39256V2.13049C19.6528 1.80039 19.5569 1.47928 19.3919 1.19275C19.2269 0.906225 18.9972 0.662195 18.7212 0.480095Z" fill="#E0E0E0"/>
<path d="M15.388 2.89101L17.9688 4.37961C18.4987 4.68703 18.9275 4.44028 18.9275 3.82543V2.57954C18.9104 2.2464 18.8146 1.92204 18.6479 1.63306C18.4813 1.34408 18.2486 1.0987 17.9688 0.917005L15.388 -0.575636C14.8581 -0.883063 14.4253 -0.632269 14.4253 -0.0214595V1.22848C14.4441 1.56168 14.5411 1.88578 14.7083 2.17459C14.8756 2.46339 15.1084 2.70882 15.388 2.89101Z" fill="#F0F0F0"/>
<path d="M30.2416 22.809C30.2211 22.8917 30.1814 22.9683 30.1257 23.0328C30.07 23.0972 30 23.1476 29.9212 23.1799C29.8424 23.2122 29.7571 23.2255 29.6722 23.2187C29.5873 23.2119 29.5052 23.1852 29.4326 23.1407C29.2721 23.0373 29.1507 22.8832 29.0877 22.7029C29.0247 22.5227 29.0236 22.3265 29.0847 22.1456C29.106 22.0635 29.1461 21.9874 29.2019 21.9235C29.2578 21.8595 29.3277 21.8095 29.4062 21.7773C29.4847 21.7451 29.5697 21.7316 29.6543 21.738C29.7389 21.7443 29.8209 21.7704 29.8937 21.8139C30.0542 21.9174 30.1756 22.0715 30.2386 22.2517C30.3017 22.432 30.3027 22.6281 30.2416 22.809Z" fill="#E0E0E0"/>
<path d="M50.2406 31.0206L50.6006 30.4017L47.0571 28.3508C47.0296 28.3345 46.9981 28.3258 46.9661 28.3258C46.9341 28.3258 46.9026 28.3345 46.8751 28.3508C46.8009 28.3991 46.7392 28.4642 46.6949 28.5408C46.6506 28.6174 46.625 28.7034 46.6202 28.7918C46.6176 28.8227 46.6229 28.8538 46.6356 28.8821C46.6483 28.9105 46.6681 28.935 46.6931 28.9536L50.2406 31.0206Z" fill="#F0F0F0"/>
<path d="M50.1677 30.8507C50.1677 31.0125 50.281 31.0772 50.4226 30.9963C50.4963 30.9476 50.5577 30.8824 50.6019 30.8059C50.6462 30.7294 50.672 30.6436 50.6774 30.5554C50.6774 30.3936 50.5601 30.3289 50.4226 30.4098C50.3484 30.458 50.2866 30.5231 50.2424 30.5997C50.1981 30.6763 50.1725 30.7623 50.1677 30.8507Z" fill="#E0E0E0"/>
<path d="M54.2048 34.4144L55.5275 32.133L49.9412 28.8969C49.8348 28.8442 49.716 28.8217 49.5976 28.8316C49.4792 28.8416 49.3659 28.8838 49.2697 28.9536C48.9989 29.1316 48.7736 29.3708 48.612 29.6518C48.4504 29.9329 48.357 30.2479 48.3394 30.5716C48.3287 30.6839 48.3469 30.7971 48.3922 30.9005C48.4375 31.0038 48.5084 31.0939 48.5983 31.1622L54.2048 34.4144Z" fill="#455A64"/>
<path d="M53.9337 33.8117C53.9337 34.4063 54.3382 34.649 54.8681 34.3497C55.1397 34.1723 55.3655 33.9333 55.5272 33.6522C55.6889 33.371 55.7818 33.0556 55.7985 32.7317C55.7985 32.137 55.394 31.8943 54.8681 32.1937C54.5954 32.3701 54.3684 32.6088 54.206 32.8901C54.0435 33.1714 53.9502 33.4873 53.9337 33.8117Z" fill="#263238"/>
<path d="M53.8246 28.4236C53.7594 28.4238 53.6953 28.4071 53.6385 28.3751L44.9779 23.3753L44.0395 25.3736C44.0185 25.4174 43.9891 25.4567 43.9529 25.4891C43.9168 25.5216 43.8746 25.5466 43.8287 25.5628C43.7829 25.5789 43.7344 25.5859 43.6858 25.5833C43.6373 25.5807 43.5898 25.5685 43.546 25.5475C43.5021 25.5266 43.4629 25.4971 43.4304 25.461C43.398 25.4248 43.3729 25.3826 43.3568 25.3368C43.3406 25.291 43.3337 25.2424 43.3363 25.1939C43.3389 25.1454 43.3511 25.0979 43.372 25.054L44.4966 22.6998C44.5185 22.6537 44.5501 22.6129 44.5892 22.5801C44.6282 22.5473 44.6739 22.5233 44.7231 22.5097C44.7711 22.4938 44.822 22.4885 44.8722 22.4941C44.9225 22.4997 44.971 22.516 45.0143 22.542L53.6749 27.5418L54.6295 25.5475C54.6719 25.459 54.7477 25.391 54.8403 25.3584C54.9328 25.3257 55.0345 25.3312 55.123 25.3736C55.2115 25.416 55.2796 25.4918 55.3122 25.5843C55.3448 25.6769 55.3393 25.7786 55.297 25.8671L54.1522 28.2213C54.1299 28.2664 54.0987 28.3065 54.0604 28.3392C54.0222 28.3719 53.9777 28.3965 53.9297 28.4115C53.8955 28.421 53.86 28.4251 53.8246 28.4236Z" fill="#E0E0E0"/>
<path d="M56.9838 22.5744L54.403 21.0818C54.3051 21.0112 54.1901 20.9681 54.07 20.9567C53.9498 20.9453 53.8288 20.9661 53.7194 21.017C53.5899 21.0939 53.0803 21.373 52.9468 21.462C52.8575 21.5342 52.7875 21.6275 52.7431 21.7333C52.6986 21.8392 52.681 21.9544 52.6919 22.0688V23.3187C52.71 23.6516 52.8062 23.9756 52.9728 24.2644C53.1393 24.5533 53.3715 24.7988 53.6506 24.9812L56.2314 26.4739C56.3282 26.5432 56.4415 26.586 56.56 26.598C56.6785 26.6101 56.7981 26.591 56.9069 26.5426C57.0404 26.4698 57.5299 26.1826 57.6593 26.1058C57.7586 26.0384 57.8376 25.9451 57.8875 25.836C57.9375 25.7268 57.9565 25.6061 57.9425 25.4869V24.2369C57.9253 23.9038 57.8295 23.5794 57.6629 23.2905C57.4963 23.0015 57.2635 22.7561 56.9838 22.5744Z" fill="#E0E0E0"/>
<path d="M53.6587 24.9813L56.2395 26.4739C56.7734 26.7773 57.2022 26.5305 57.2022 25.9197V24.6698C57.184 24.3365 57.0873 24.0121 56.92 23.7232C56.7527 23.4343 56.5195 23.189 56.2395 23.0073L53.6587 21.5146C53.1288 21.2112 52.7 21.458 52.7 22.0688V23.3187C52.7181 23.6517 52.8143 23.9757 52.9808 24.2645C53.1474 24.5533 53.3796 24.7989 53.6587 24.9813Z" fill="#F0F0F0"/>
</g>
<defs>
<clipPath id="clip0_163_12584">
<rect width="99" height="95" fill="white"/>
</clipPath>
</defs>
</svg>
