<svg width="15" height="15" viewBox="0 0 15 15" fill="none" xmlns="http://www.w3.org/2000/svg">
<path d="M12.3374 10.5903V7.32244C12.3374 6.72042 12.3374 6.41941 12.1742 6.19279C12.0422 6.00999 11.8305 5.91254 11.4534 5.78164C11.3761 6.70774 11.0694 7.65401 10.5879 8.4815C10.0268 9.44566 9.19354 10.3077 8.12616 10.7731C7.8174 10.9074 7.48429 10.9767 7.14759 10.9767C6.81089 10.9767 6.47779 10.9074 6.16902 10.7731C5.10165 10.3077 4.26839 9.44566 3.70731 8.4815C3.34176 7.85249 3.08189 7.16775 2.93806 6.45459C2.71721 6.42172 2.54825 6.43844 2.40178 6.51975C2.34363 6.55241 2.28945 6.59169 2.24032 6.63681C1.95776 6.89399 1.95776 7.37203 1.95776 8.32869V11.1716C1.95776 11.773 1.95776 12.074 2.12095 12.3006C2.28415 12.5273 2.56959 12.6224 3.14047 12.8127L3.3619 12.8865C4.27127 13.1893 4.72567 13.3409 5.19103 13.3421C5.33115 13.3421 5.4707 13.3323 5.60967 13.3121C6.06984 13.2458 6.50232 13.0295 7.36729 12.597C8.02986 12.2655 8.36143 12.1 8.71319 12.0233C8.83659 11.9962 8.96172 11.9771 9.08801 11.9668C9.44726 11.9368 9.80882 11.9973 10.5337 12.1178C11.2677 12.2401 11.6351 12.3012 11.9032 12.1473C11.9943 12.0954 12.075 12.0267 12.1414 11.9454C12.3374 11.7061 12.3374 11.3342 12.3374 10.5903Z" fill="#3EC492"/>
<path fill-rule="evenodd" clip-rule="evenodd" d="M7.14751 2.03861C5.2365 2.03861 3.68762 3.51022 3.68762 5.3255C3.68762 7.12695 4.7919 9.22883 6.51493 9.9802C6.71456 10.0669 6.92987 10.1116 7.14751 10.1116C7.36514 10.1116 7.58045 10.0669 7.78009 9.9802C9.50311 9.22941 10.6074 7.12695 10.6074 5.3255C10.6074 3.51022 9.05852 2.03861 7.14751 2.03861ZM7.14751 6.65179C7.45338 6.65179 7.74673 6.53029 7.96301 6.314C8.1793 6.09772 8.3008 5.80437 8.3008 5.4985C8.3008 5.19263 8.1793 4.89928 7.96301 4.68299C7.74673 4.46671 7.45338 4.3452 7.14751 4.3452C6.84163 4.3452 6.54829 4.46671 6.33201 4.68299C6.11572 4.89928 5.99421 5.19263 5.99421 5.4985C5.99421 5.80437 6.11572 6.09772 6.33201 6.314C6.54829 6.53029 6.84163 6.65179 7.14751 6.65179Z" fill="#3EC492"/>
</svg>
