<svg width="18" height="19" viewBox="0 0 18 19" fill="none" xmlns="http://www.w3.org/2000/svg">
<path d="M9 17C4.85775 17 1.5 13.6423 1.5 9.5C1.5 5.35775 4.85775 2 9 2C13.1423 2 16.5 5.35775 16.5 9.5C16.5 13.6423 13.1423 17 9 17ZM9 15.5C10.5913 15.5 12.1174 14.8679 13.2426 13.7426C14.3679 12.6174 15 11.0913 15 9.5C15 7.9087 14.3679 6.38258 13.2426 5.25736C12.1174 4.13214 10.5913 3.5 9 3.5C7.4087 3.5 5.88258 4.13214 4.75736 5.25736C3.63214 6.38258 3 7.9087 3 9.5C3 11.0913 3.63214 12.6174 4.75736 13.7426C5.88258 14.8679 7.4087 15.5 9 15.5ZM5.25 9.5H6.75C6.75 10.0967 6.98705 10.669 7.40901 11.091C7.83097 11.5129 8.40326 11.75 9 11.75C9.59674 11.75 10.169 11.5129 10.591 11.091C11.0129 10.669 11.25 10.0967 11.25 9.5H12.75C12.75 10.4946 12.3549 11.4484 11.6517 12.1517C10.9484 12.8549 9.99456 13.25 9 13.25C8.00544 13.25 7.05161 12.8549 6.34835 12.1517C5.64509 11.4484 5.25 10.4946 5.25 9.5Z" fill="#3EC492"/>
</svg>
