<svg width="7" height="7" viewBox="0 0 7 7" fill="none" xmlns="http://www.w3.org/2000/svg">
<path d="M3.12826 0.621785C3.2339 0.296661 3.69387 0.296661 3.7995 0.621784L4.37502 2.39304C4.42226 2.53844 4.55776 2.63688 4.71064 2.63688H6.57305C6.9149 2.63688 7.05704 3.07433 6.78047 3.27527L5.27375 4.36996C5.15007 4.45983 5.09831 4.61911 5.14556 4.76451L5.72107 6.53576C5.82671 6.86089 5.45459 7.13125 5.17803 6.93031L3.67131 5.83561C3.54763 5.74575 3.38014 5.74575 3.25646 5.83561L1.74974 6.93031C1.47317 7.13125 1.10106 6.86089 1.2067 6.53576L1.78221 4.76451C1.82945 4.61911 1.7777 4.45983 1.65402 4.36996L0.147296 3.27527C-0.12927 3.07433 0.0128663 2.63688 0.354721 2.63688H2.21713C2.37001 2.63688 2.50551 2.53844 2.55275 2.39304L3.12826 0.621785Z" fill="#FFE350"/>
</svg>
